<svg width="24" height="24" viewBox="0 0 24 24" fill="none" xmlns="http://www.w3.org/2000/svg">
<g filter="url(#filter0_g_2004_808)">
<path d="M12 6L12.7071 5.29289L12 4.58579L11.2929 5.29289L12 6ZM11 18C11 18.5523 11.4477 19 12 19C12.5523 19 13 18.5523 13 18L12 18L11 18ZM16 10L16.7071 9.29289L12.7071 5.29289L12 6L11.2929 6.70711L15.2929 10.7071L16 10ZM12 6L11.2929 5.29289L7.29289 9.29289L8 10L8.70711 10.7071L12.7071 6.70711L12 6ZM12 6L11 6L11 18L12 18L13 18L13 6L12 6Z" fill="#2F4C33"/>
</g>
<defs>
<filter id="filter0_g_2004_808" x="-0.75" y="-0.75" width="25.5" height="25.5" filterUnits="userSpaceOnUse" color-interpolation-filters="sRGB">
<feFlood flood-opacity="0" result="BackgroundImageFix"/>
<feBlend mode="normal" in="SourceGraphic" in2="BackgroundImageFix" result="shape"/>
<feTurbulence type="fractalNoise" baseFrequency="0.99900001287460327 0.99900001287460327" numOctaves="3" seed="3145" />
<feDisplacementMap in="shape" scale="1.5" xChannelSelector="R" yChannelSelector="G" result="displacedImage" width="100%" height="100%" />
<feMerge result="effect1_texture_2004_808">
<feMergeNode in="displacedImage"/>
</feMerge>
</filter>
</defs>
</svg>
