<svg width="24" height="24" viewBox="0 0 24 24" fill="none" xmlns="http://www.w3.org/2000/svg">
<g filter="url(#filter0_g_2004_806)">
<path d="M18 12L18.7071 11.2929L19.4142 12L18.7071 12.7071L18 12ZM6 13C5.44771 13 5 12.5523 5 12C5 11.4477 5.44771 11 6 11V12V13ZM14 8L14.7071 7.29289L18.7071 11.2929L18 12L17.2929 12.7071L13.2929 8.70711L14 8ZM18 12L18.7071 12.7071L14.7071 16.7071L14 16L13.2929 15.2929L17.2929 11.2929L18 12ZM18 12V13H6V12V11H18V12Z" fill="#2F4C33"/>
</g>
<defs>
<filter id="filter0_g_2004_806" x="-0.75" y="-0.75" width="25.5" height="25.5" filterUnits="userSpaceOnUse" color-interpolation-filters="sRGB">
<feFlood flood-opacity="0" result="BackgroundImageFix"/>
<feBlend mode="normal" in="SourceGraphic" in2="BackgroundImageFix" result="shape"/>
<feTurbulence type="fractalNoise" baseFrequency="0.99900001287460327 0.99900001287460327" numOctaves="3" seed="3145" />
<feDisplacementMap in="shape" scale="1.5" xChannelSelector="R" yChannelSelector="G" result="displacedImage" width="100%" height="100%" />
<feMerge result="effect1_texture_2004_806">
<feMergeNode in="displacedImage"/>
</feMerge>
</filter>
</defs>
</svg>
