<svg width="24" height="24" viewBox="0 0 24 24" fill="none" xmlns="http://www.w3.org/2000/svg">
<g filter="url(#filter0_g_2004_798)">
<path fill-rule="evenodd" clip-rule="evenodd" d="M12.0001 3C12.6261 3.00004 13.2303 3.10327 13.795 3.29492C13.2923 4.07481 13.0001 5.0031 13.0001 6C13.0001 8.73641 15.198 10.957 17.9249 10.9971C18.1046 11.8682 18.4264 12.7055 18.8829 13.4727C18.8903 13.485 18.8982 13.4975 18.9132 13.5225L19.4913 14.4854C20.0159 15.3596 20.2784 15.7974 20.2218 16.1562C20.184 16.3949 20.0604 16.6115 19.8751 16.7666C19.5965 16.9997 19.0869 17 18.0675 17H5.93174C4.91238 17 4.40268 16.9998 4.12413 16.7666C3.93893 16.6115 3.81617 16.3948 3.77842 16.1562C3.7218 15.7974 3.98337 15.3596 4.50792 14.4854L5.08604 13.5225C5.10096 13.4976 5.10897 13.485 5.11631 13.4727C5.69475 12.5007 6.06061 11.4167 6.18956 10.293C6.19118 10.2788 6.19223 10.264 6.19542 10.2354L6.44737 7.96973C6.76171 5.14063 9.1536 3 12.0001 3ZM16.2745 4.99121C16.9599 5.80518 17.4182 6.82049 17.548 7.94629C16.6613 7.74127 16.0001 6.94899 16.0001 6C16.0001 5.63171 16.1009 5.28756 16.2745 4.99121Z" fill="#2F4C33"/>
<path d="M9 17C9 17.394 9.0776 17.7841 9.22836 18.1481C9.37913 18.512 9.6001 18.8427 9.87868 19.1213C10.1573 19.3999 10.488 19.6209 10.8519 19.7716C11.2159 19.9224 11.606 20 12 20C12.394 20 12.7841 19.9224 13.1481 19.7716C13.512 19.6209 13.8427 19.3999 14.1213 19.1213C14.3999 18.8427 14.6209 18.512 14.7716 18.1481C14.9224 17.7841 15 17.394 15 17L12 17H9Z" fill="#2F4C33"/>
<circle cx="18" cy="6" r="2.5" fill="#2F4C33" stroke="#2F4C33"/>
</g>
<defs>
<filter id="filter0_g_2004_798" x="-0.75" y="-0.75" width="25.5" height="25.5" filterUnits="userSpaceOnUse" color-interpolation-filters="sRGB">
<feFlood flood-opacity="0" result="BackgroundImageFix"/>
<feBlend mode="normal" in="SourceGraphic" in2="BackgroundImageFix" result="shape"/>
<feTurbulence type="fractalNoise" baseFrequency="0.99900001287460327 0.99900001287460327" numOctaves="3" seed="3145" />
<feDisplacementMap in="shape" scale="1.5" xChannelSelector="R" yChannelSelector="G" result="displacedImage" width="100%" height="100%" />
<feMerge result="effect1_texture_2004_798">
<feMergeNode in="displacedImage"/>
</feMerge>
</filter>
</defs>
</svg>
