<svg width="24" height="24" viewBox="0 0 24 24" fill="none" xmlns="http://www.w3.org/2000/svg">
<g filter="url(#filter0_g_2004_945)">
<path d="M12 3C16.9706 3 21 7.02944 21 12C21 16.9706 16.9706 21 12 21C7.02944 21 3 16.9706 3 12C3 7.02944 7.02944 3 12 3ZM16.6406 8.23145C16.2164 7.87791 15.585 7.93519 15.2314 8.35938L11.6338 12.6777C11.2873 13.0935 11.0921 13.3233 10.9365 13.4648C10.9347 13.4665 10.9325 13.4681 10.9307 13.4697C10.9287 13.4683 10.9259 13.4673 10.9238 13.4658C10.7561 13.3389 10.541 13.1269 10.1582 12.7441L8.70703 11.293C8.31651 10.9024 7.68349 10.9024 7.29297 11.293C6.90245 11.6835 6.90245 12.3165 7.29297 12.707L8.74414 14.1582C9.08528 14.4993 9.41337 14.8313 9.71777 15.0615C10.0043 15.2781 10.3686 15.4835 10.8232 15.5146L11.0234 15.5166L11.2227 15.4961C11.6726 15.4239 12.0165 15.186 12.2822 14.9443C12.5644 14.6876 12.8612 14.3284 13.1699 13.958L16.7686 9.64062C17.1221 9.21638 17.0648 8.58502 16.6406 8.23145Z" fill="#2F4C33"/>
</g>
<defs>
<filter id="filter0_g_2004_945" x="-0.75" y="-0.75" width="25.5" height="25.5" filterUnits="userSpaceOnUse" color-interpolation-filters="sRGB">
<feFlood flood-opacity="0" result="BackgroundImageFix"/>
<feBlend mode="normal" in="SourceGraphic" in2="BackgroundImageFix" result="shape"/>
<feTurbulence type="fractalNoise" baseFrequency="0.99900001287460327 0.99900001287460327" numOctaves="3" seed="3145" />
<feDisplacementMap in="shape" scale="1.5" xChannelSelector="R" yChannelSelector="G" result="displacedImage" width="100%" height="100%" />
<feMerge result="effect1_texture_2004_945">
<feMergeNode in="displacedImage"/>
</feMerge>
</filter>
</defs>
</svg>
