<svg width="24" height="24" viewBox="0 0 24 24" fill="none" xmlns="http://www.w3.org/2000/svg">
<g filter="url(#filter0_g_2004_854)">
<path d="M8.5 7C11.16 7 13.4455 8.59813 14.4514 10.8864C14.7286 11.5172 15.311 12 16 12C18.2091 12 20 13.7909 20 16C20 18.2091 18.2091 20 16 20H9.01033C9.00463 20 9 19.9954 9 19.9897C9 19.9836 8.99488 19.9789 8.98888 19.9794C8.82744 19.9915 8.66452 20 8.5 20C4.91015 20 2 17.0899 2 13.5C2 9.91015 4.91015 7 8.5 7Z" fill="#2F4C33"/>
<path d="M18.0002 4C20.2093 4.00013 22.0002 5.79094 22.0002 8C22.0002 9.69461 20.9453 11.1408 19.4573 11.7236C18.5138 10.9599 17.3133 10.5012 16.0051 10.5C15.9997 10.4979 15.9883 10.4924 15.9709 10.4795C15.9264 10.4461 15.867 10.3798 15.8245 10.2832C15.3948 9.30582 14.7753 8.42974 14.012 7.70312C14.1639 5.63266 15.891 4 18.0002 4Z" fill="#2F4C33"/>
</g>
<defs>
<filter id="filter0_g_2004_854" x="-0.75" y="-0.75" width="25.5" height="25.5" filterUnits="userSpaceOnUse" color-interpolation-filters="sRGB">
<feFlood flood-opacity="0" result="BackgroundImageFix"/>
<feBlend mode="normal" in="SourceGraphic" in2="BackgroundImageFix" result="shape"/>
<feTurbulence type="fractalNoise" baseFrequency="0.99900001287460327 0.99900001287460327" numOctaves="3" seed="3145" />
<feDisplacementMap in="shape" scale="1.5" xChannelSelector="R" yChannelSelector="G" result="displacedImage" width="100%" height="100%" />
<feMerge result="effect1_texture_2004_854">
<feMergeNode in="displacedImage"/>
</feMerge>
</filter>
</defs>
</svg>
