<svg width="24" height="24" viewBox="0 0 24 24" fill="none" xmlns="http://www.w3.org/2000/svg">
<g filter="url(#filter0_g_1_380)">
<mask id="mask0_1_380" style="mask-type:alpha" maskUnits="userSpaceOnUse" x="0" y="0" width="24" height="24">
<rect width="24" height="24" fill="#D9D9D9"/>
</mask>
<g mask="url(#mask0_1_380)">
<path d="M3 20C2.71667 20 2.47917 19.9042 2.2875 19.7125C2.09583 19.5208 2 19.2833 2 19C2 18.7167 2.09583 18.4792 2.2875 18.2875C2.47917 18.0958 2.71667 18 3 18H7.75C7.46667 16.95 7 16 6.35 15.15C5.7 14.3 4.91667 13.6083 4 13.075C3.63333 12.8583 3.45833 12.6208 3.475 12.3625C3.49167 12.1042 3.71667 11.9833 4.15 12C6.33333 12.0333 8.1875 12.825 9.7125 14.375C11.2375 15.925 12 17.8 12 20H3ZM14 20C14 19.3 13.925 18.6042 13.775 17.9125C13.625 17.2208 13.4083 16.5583 13.125 15.925C13.825 14.775 14.7625 13.8417 15.9375 13.125C17.1125 12.4083 18.4167 12.0333 19.85 12C20.25 11.9833 20.4583 12.1125 20.475 12.3875C20.4917 12.6625 20.3333 12.8917 20 13.075C19.0833 13.6083 18.3 14.3 17.65 15.15C17 16 16.5333 16.95 16.25 18H21C21.2833 18 21.5208 18.0958 21.7125 18.2875C21.9042 18.4792 22 18.7167 22 19C22 19.2833 21.9042 19.5208 21.7125 19.7125C21.5208 19.9042 21.2833 20 21 20H14ZM12 14.025C12 12.2583 12.5042 10.6875 13.5125 9.3125C14.5208 7.9375 15.8167 6.98333 17.4 6.45C17.7833 6.31666 18.0667 6.35833 18.25 6.575C18.4333 6.79166 18.3583 7.05833 18.025 7.375C17.4917 7.875 17.0292 8.43333 16.6375 9.05C16.2458 9.66666 15.9167 10.325 15.65 11.025C14.9167 11.375 14.2458 11.8042 13.6375 12.3125C13.0292 12.8208 12.4833 13.3917 12 14.025ZM10.175 12.15C9.975 12 9.775 11.8583 9.575 11.725C9.375 11.5917 9.16667 11.4583 8.95 11.325C8.95 11.225 8.95833 11.1208 8.975 11.0125C8.99167 10.9042 9 10.8 9 10.7C9 9.81666 8.90417 8.975 8.7125 8.175C8.52083 7.375 8.24167 6.6 7.875 5.85C7.69167 5.48333 7.70417 5.2125 7.9125 5.0375C8.12083 4.8625 8.39167 4.90833 8.725 5.175C9.325 5.65833 9.85417 6.20833 10.3125 6.825C10.7708 7.44166 11.1417 8.11666 11.425 8.85C11.125 9.35 10.8667 9.87916 10.65 10.4375C10.4333 10.9958 10.275 11.5667 10.175 12.15Z" fill="#2F4C33"/>
</g>
</g>
<defs>
<filter id="filter0_g_1_380" x="-0.75" y="-0.75" width="25.5" height="25.5" filterUnits="userSpaceOnUse" color-interpolation-filters="sRGB">
<feFlood flood-opacity="0" result="BackgroundImageFix"/>
<feBlend mode="normal" in="SourceGraphic" in2="BackgroundImageFix" result="shape"/>
<feTurbulence type="fractalNoise" baseFrequency="0.99900001287460327 0.99900001287460327" numOctaves="3" seed="3145" />
<feDisplacementMap in="shape" scale="1.5" xChannelSelector="R" yChannelSelector="G" result="displacedImage" width="100%" height="100%" />
<feMerge result="effect1_texture_1_380">
<feMergeNode in="displacedImage"/>
</feMerge>
</filter>
</defs>
</svg>
