<svg width="24" height="24" viewBox="0 0 24 24" fill="none" xmlns="http://www.w3.org/2000/svg">
<g filter="url(#filter0_g_2040_27)">
<path d="M14 2C15.6569 2 17 3.34315 17 5L16.999 5.00195C18.0785 5.00664 18.6705 5.04238 19.1113 5.33691C19.3297 5.48281 19.5172 5.67034 19.6631 5.88867C20.0001 6.39312 20 7.09554 20 8.5V18C20 19.8856 19.9998 20.8283 19.4141 21.4141C18.8283 21.9998 17.8856 22 16 22H8C6.11438 22 5.17172 21.9998 4.58594 21.4141C4.00015 20.8283 4 19.8856 4 18V8.5C4 7.09554 3.99985 6.39312 4.33691 5.88867C4.48281 5.67034 4.67034 5.48281 4.88867 5.33691C5.32935 5.04246 5.92115 5.00666 7 5.00195V5C7 3.34315 8.34315 2 10 2H14ZM9 15C8.44772 15 8 15.4477 8 16C8 16.5523 8.44772 17 9 17H13C13.5523 17 14 16.5523 14 16C14 15.4477 13.5523 15 13 15H9ZM9 11C8.44772 11 8 11.4477 8 12C8 12.5523 8.44772 13 9 13H15C15.5523 13 16 12.5523 16 12C16 11.4477 15.5523 11 15 11H9ZM11 4C10.4477 4 10 4.44772 10 5C10 5.55228 10.4477 6 11 6H13C13.5523 6 14 5.55228 14 5C14 4.44772 13.5523 4 13 4H11Z" fill="#2F4C33"/>
</g>
<defs>
<filter id="filter0_g_2040_27" x="-0.75" y="-0.75" width="25.5" height="25.5" filterUnits="userSpaceOnUse" color-interpolation-filters="sRGB">
<feFlood flood-opacity="0" result="BackgroundImageFix"/>
<feBlend mode="normal" in="SourceGraphic" in2="BackgroundImageFix" result="shape"/>
<feTurbulence type="fractalNoise" baseFrequency="0.99900001287460327 0.99900001287460327" numOctaves="3" seed="3145" />
<feDisplacementMap in="shape" scale="1.5" xChannelSelector="R" yChannelSelector="G" result="displacedImage" width="100%" height="100%" />
<feMerge result="effect1_texture_2040_27">
<feMergeNode in="displacedImage"/>
</feMerge>
</filter>
</defs>
</svg>
