<svg width="24" height="24" viewBox="0 0 24 24" fill="none" xmlns="http://www.w3.org/2000/svg">
<path fill-rule="evenodd" clip-rule="evenodd" d="M11.7278 8.27172C12.7534 9.87507 14.1246 11.2373 15.7463 12.2532L8.8567 19.1438C8.43163 19.5689 8.21838 19.7814 7.95728 19.9211C7.69634 20.0607 7.40168 20.1198 6.81275 20.2375L3.7356 20.8528C3.40299 20.9193 3.23646 20.9523 3.14185 20.8577C3.04756 20.7631 3.08032 20.5969 3.14673 20.2649L3.76295 17.1877C3.88084 16.5983 3.93962 16.3033 4.07935 16.0422C4.21909 15.7812 4.4317 15.5688 4.8567 15.1438L11.7278 8.27172ZM16.1116 4.03637C16.6711 3.7591 17.3284 3.75912 17.8879 4.03637C18.182 4.18211 18.455 4.45499 19.0002 5.00024C19.5453 5.54526 19.8184 5.81755 19.9641 6.11157C20.2414 6.67105 20.2413 7.32843 19.9641 7.88793C19.8184 8.18203 19.5455 8.45499 19.0002 9.00024L17.2034 10.7961C15.5308 9.84479 14.1456 8.4684 13.1819 6.81762L15.0002 5.00024C15.5453 4.4552 15.8176 4.18215 16.1116 4.03637Z" fill="#2F4C33"/>
</svg>
