<svg width="24" height="24" viewBox="0 0 24 24" fill="none" xmlns="http://www.w3.org/2000/svg">
<g filter="url(#filter0_g_2004_922)">
<path d="M12 6.16211C13.976 3.25843 18.3278 3.01419 20.5781 5.91406L20.8877 6.31348C22.8489 8.8414 22.5661 12.446 20.2344 14.6367L13.2812 21.168C13.176 21.2668 13.0453 21.3917 12.9199 21.4883C12.7811 21.5952 12.5727 21.7304 12.2891 21.7861C12.0983 21.8236 11.9017 21.8236 11.7109 21.7861C11.4273 21.7304 11.2189 21.5952 11.0801 21.4883C10.9547 21.3917 10.824 21.2668 10.7187 21.168L3.76562 14.6367C1.43389 12.446 1.15111 8.8414 3.1123 6.31348L3.42188 5.91406C5.67217 3.01419 10.024 3.25843 12 6.16211ZM18.998 7.14062C17.4861 5.19189 14.4511 5.51819 13.3887 7.74414C12.8311 8.91248 11.1689 8.91248 10.6113 7.74414C9.54893 5.51819 6.5139 5.19189 5.00195 7.14062L4.69238 7.53906C3.36333 9.25207 3.55551 11.6952 5.13574 13.1797L12 19.6279L18.8643 13.1797C20.4445 11.6952 20.6367 9.25207 19.3076 7.53906L18.998 7.14062Z" fill="#2F4C33"/>
</g>
<defs>
<filter id="filter0_g_2004_922" x="-0.75" y="-0.75" width="25.5" height="25.5" filterUnits="userSpaceOnUse" color-interpolation-filters="sRGB">
<feFlood flood-opacity="0" result="BackgroundImageFix"/>
<feBlend mode="normal" in="SourceGraphic" in2="BackgroundImageFix" result="shape"/>
<feTurbulence type="fractalNoise" baseFrequency="0.99900001287460327 0.99900001287460327" numOctaves="3" seed="3145" />
<feDisplacementMap in="shape" scale="1.5" xChannelSelector="R" yChannelSelector="G" result="displacedImage" width="100%" height="100%" />
<feMerge result="effect1_texture_2004_922">
<feMergeNode in="displacedImage"/>
</feMerge>
</filter>
</defs>
</svg>
