<svg width="24" height="24" viewBox="0 0 24 24" fill="none" xmlns="http://www.w3.org/2000/svg">
<g filter="url(#filter0_g_2004_941)">
<path d="M13.5 16V21H10.5V16H13.5ZM12 4.95117C13.1097 4.95117 14.0412 5.74975 15.9043 7.34668L16.9043 8.2041C17.9351 9.08765 18.4511 9.52931 18.7256 10.126C19 10.7227 19 11.402 19 12.7598V17C19 18.8856 18.9998 19.8283 18.4141 20.4141C17.8825 20.9456 17.0571 20.9915 15.5 20.9961V16C15.5 14.8954 14.6046 14 13.5 14H10.5C9.39543 14 8.5 14.8954 8.5 16V20.9961C6.94288 20.9915 6.11748 20.9456 5.58594 20.4141C5.00016 19.8283 5 18.8856 5 17V12.7598C5 11.402 4.99995 10.7227 5.27441 10.126C5.54889 9.52931 6.0649 9.08765 7.0957 8.2041L8.0957 7.34668C9.95879 5.74975 10.8903 4.95117 12 4.95117Z" fill="#2F4C33"/>
</g>
<defs>
<filter id="filter0_g_2004_941" x="-0.75" y="-0.75" width="25.5" height="25.5" filterUnits="userSpaceOnUse" color-interpolation-filters="sRGB">
<feFlood flood-opacity="0" result="BackgroundImageFix"/>
<feBlend mode="normal" in="SourceGraphic" in2="BackgroundImageFix" result="shape"/>
<feTurbulence type="fractalNoise" baseFrequency="0.99900001287460327 0.99900001287460327" numOctaves="3" seed="3145" />
<feDisplacementMap in="shape" scale="1.5" xChannelSelector="R" yChannelSelector="G" result="displacedImage" width="100%" height="100%" />
<feMerge result="effect1_texture_2004_941">
<feMergeNode in="displacedImage"/>
</feMerge>
</filter>
</defs>
</svg>
