<svg width="24" height="24" viewBox="0 0 24 24" fill="none" xmlns="http://www.w3.org/2000/svg">
<g filter="url(#filter0_g_2004_788)">
<path d="M12 3C16.9706 3 21 7.02944 21 12C21 16.9706 16.9706 21 12 21C7.02944 21 3 16.9706 3 12C3 7.02944 7.02944 3 12 3ZM10.5 11C9.94772 11 9.5 11.4477 9.5 12C9.5 12.5523 9.94772 13 10.5 13H11V16C11 16.5523 11.4477 17 12 17H14C14.5523 17 15 16.5523 15 16C15 15.4477 14.5523 15 14 15H13V12C13 11.4477 12.5523 11 12 11H10.5ZM12 7C11.4477 7.00001 11 7.44772 11 8C11 8.55228 11.4477 8.99999 12 9H12.0098C12.562 9 13.0098 8.55228 13.0098 8C13.0098 7.44772 12.562 7 12.0098 7H12Z" fill="#2F4C33"/>
</g>
<defs>
<filter id="filter0_g_2004_788" x="-0.75" y="-0.75" width="25.5" height="25.5" filterUnits="userSpaceOnUse" color-interpolation-filters="sRGB">
<feFlood flood-opacity="0" result="BackgroundImageFix"/>
<feBlend mode="normal" in="SourceGraphic" in2="BackgroundImageFix" result="shape"/>
<feTurbulence type="fractalNoise" baseFrequency="0.99900001287460327 0.99900001287460327" numOctaves="3" seed="3145" />
<feDisplacementMap in="shape" scale="1.5" xChannelSelector="R" yChannelSelector="G" result="displacedImage" width="100%" height="100%" />
<feMerge result="effect1_texture_2004_788">
<feMergeNode in="displacedImage"/>
</feMerge>
</filter>
</defs>
</svg>
