<svg width="25" height="24" viewBox="0 0 25 24" fill="none" xmlns="http://www.w3.org/2000/svg">
<g filter="url(#filter0_g_2009_29)">
<path d="M23.542 17.4086C23.5422 17.4086 23.5423 17.4087 23.5423 17.4089V17.4322C23.5423 17.4386 23.5397 17.4448 23.535 17.4493C21.6871 19.2036 19.2471 20.6904 16.5764 19.8807C15.2938 19.5041 14.0578 18.6978 13.0637 17.7581C12.8664 17.5716 12.8683 17.2598 13.0663 17.0741C13.8438 16.3446 14.6989 15.7333 15.6707 15.2933C17.3664 14.5254 18.9189 14.5461 20.6069 15.3181C21.7233 15.8285 22.6789 16.569 23.5418 17.4085C23.5418 17.4085 23.5419 17.4086 23.542 17.4086Z" fill="#2F4C33"/>
<path d="M7.52384 19.8756C7.52394 19.8757 7.5239 19.8758 7.52376 19.8759C5.08325 20.6462 2.66479 19.3944 0.901515 17.7623C0.699111 17.5749 0.69965 17.2571 0.902207 17.0699C1.68341 16.348 2.53989 15.7438 3.50924 15.3037C5.22429 14.5254 6.80744 14.5367 8.50942 15.3379C9.44082 15.7766 10.264 16.3702 11.0154 17.0739C11.2135 17.2595 11.2156 17.5714 11.0185 17.758C10.0374 18.6864 8.81092 19.4931 7.52392 19.8753C7.52378 19.8753 7.52374 19.8755 7.52384 19.8756Z" fill="#2F4C33"/>
<path d="M12.3847 16.3937C12.1991 16.5917 11.8873 16.5933 11.7008 16.396C10.4373 15.0586 9.38424 13.263 9.34746 11.434C9.32799 9.5277 10.3954 7.70221 11.6982 6.31176C11.8844 6.11306 12.1972 6.11284 12.3834 6.31146C13.6837 7.69807 14.7578 9.53689 14.7334 11.434C14.7082 12.4135 14.4246 13.3102 13.9794 14.1776C13.5518 14.9848 13.0265 15.709 12.3847 16.3937Z" fill="#2F4C33"/>
<path d="M19.4637 13.1319C19.3778 13.3484 19.1474 13.4649 18.9164 13.4348C18.1512 13.3349 17.3963 13.3804 16.6499 13.5484C16.2294 13.643 15.8154 13.2282 15.9109 12.8079C16.0812 12.0584 16.1266 11.305 16.0249 10.547C15.994 10.3168 16.1081 10.0863 16.3234 9.99939C17.3872 9.56975 18.5012 9.3611 19.6515 9.32184C19.9233 9.31257 20.1453 9.53261 20.1375 9.8044C20.1046 10.9431 19.8925 12.0513 19.4637 13.1319Z" fill="#2F4C33"/>
<path d="M8.12473 10.1604C8.12484 10.1603 8.12502 10.1604 8.12499 10.1606C7.94088 11.0594 7.97385 11.942 8.17304 12.8167C8.26839 13.2354 7.85719 13.6457 7.43848 13.5505C6.69114 13.3807 5.93434 13.3324 5.17034 13.435C4.93946 13.466 4.70826 13.3512 4.62147 13.135C4.19343 12.0688 3.98043 10.9516 3.94533 9.80503C3.93699 9.53281 4.15915 9.31202 4.43134 9.32137C5.72315 9.3658 6.97124 9.62521 8.12455 10.1605C8.12461 10.1605 8.12468 10.1605 8.12473 10.1604Z" fill="#2F4C33"/>
<path d="M12.3567 22.0865C12.1799 22.2483 11.9106 22.2511 11.7323 22.0909C11.2261 21.6363 10.7867 21.1286 10.3827 20.5851C10.2136 20.3577 10.2794 20.0376 10.5131 19.8775C10.9243 19.5958 11.3156 19.2977 11.6932 18.9685C11.8924 18.7947 12.1913 18.7938 12.3909 18.9672C12.7663 19.2935 13.1549 19.5921 13.5699 19.8751C13.8018 20.0332 13.8712 20.3488 13.7057 20.5754C13.3124 21.1143 12.8695 21.6174 12.3567 22.0865Z" fill="#2F4C33"/>
<path d="M12.2204 3.36873C12.1229 3.46685 11.9642 3.46711 11.8664 3.36931L11.2648 2.76802C11.1668 2.67009 11.1672 2.51115 11.2656 2.41363L11.8682 1.81642C11.966 1.71949 12.1237 1.7199 12.221 1.81734L12.8175 2.41466C12.9148 2.5121 12.915 2.66988 12.8179 2.76755L12.2204 3.36873Z" fill="#2F4C33"/>
<path d="M8.17685 6.06407C8.07934 6.16218 7.9207 6.16246 7.82284 6.0647L7.22094 5.46337C7.1229 5.36542 7.12324 5.20642 7.22169 5.1089L7.82453 4.51173C7.92237 4.4148 8.08018 4.41527 8.17745 4.51277L8.77369 5.11042C8.87091 5.20787 8.87106 5.36558 8.77402 5.46322L8.17685 6.06407Z" fill="#2F4C33"/>
<path d="M16.264 6.06407C16.1664 6.16218 16.0078 6.16246 15.9099 6.0647L15.308 5.46337C15.21 5.36542 15.2103 5.20642 15.3088 5.1089L15.9116 4.51173C16.0095 4.4148 16.1673 4.41527 16.2646 4.51277L16.8608 5.11042C16.958 5.20787 16.9582 5.36558 16.8611 5.46322L16.264 6.06407Z" fill="#2F4C33"/>
</g>
<defs>
<filter id="filter0_g_2009_29" x="-0.707644" y="-0.75" width="25.5" height="25.5" filterUnits="userSpaceOnUse" color-interpolation-filters="sRGB">
<feFlood flood-opacity="0" result="BackgroundImageFix"/>
<feBlend mode="normal" in="SourceGraphic" in2="BackgroundImageFix" result="shape"/>
<feTurbulence type="fractalNoise" baseFrequency="0.99900001287460327 0.99900001287460327" numOctaves="3" seed="3145" />
<feDisplacementMap in="shape" scale="1.5" xChannelSelector="R" yChannelSelector="G" result="displacedImage" width="100%" height="100%" />
<feMerge result="effect1_texture_2009_29">
<feMergeNode in="displacedImage"/>
</feMerge>
</filter>
</defs>
</svg>
