<svg width="24" height="24" viewBox="0 0 24 24" fill="none" xmlns="http://www.w3.org/2000/svg">
<g filter="url(#filter0_g_2004_863)">
<path d="M15 4C15.2931 4 15.4397 4 15.5799 4.04196C16.1934 4.22551 16.4787 4.931 16.1653 5.48943C16.0937 5.61708 15.8753 5.82826 15.4386 6.25062C13.935 7.70471 13 9.74291 13 12C13 14.2569 13.9349 16.2945 15.4384 17.7483C15.8759 18.1714 16.0947 18.383 16.1664 18.5108C16.4796 19.0691 16.1943 19.7743 15.5812 19.958C15.4408 20 15.2939 20 15 20C10.5817 20 7 16.4183 7 12C7 7.58172 10.5817 4 15 4Z" fill="#2F4C33"/>
</g>
<defs>
<filter id="filter0_g_2004_863" x="-0.75" y="-0.75" width="25.5" height="25.5" filterUnits="userSpaceOnUse" color-interpolation-filters="sRGB">
<feFlood flood-opacity="0" result="BackgroundImageFix"/>
<feBlend mode="normal" in="SourceGraphic" in2="BackgroundImageFix" result="shape"/>
<feTurbulence type="fractalNoise" baseFrequency="0.99900001287460327 0.99900001287460327" numOctaves="3" seed="3145" />
<feDisplacementMap in="shape" scale="1.5" xChannelSelector="R" yChannelSelector="G" result="displacedImage" width="100%" height="100%" />
<feMerge result="effect1_texture_2004_863">
<feMergeNode in="displacedImage"/>
</feMerge>
</filter>
</defs>
</svg>
