<svg width="24" height="24" viewBox="0 0 24 24" fill="none" xmlns="http://www.w3.org/2000/svg">
<g filter="url(#filter0_g_2004_886)">
<path d="M12 4C14.0325 4 15.7814 5.21286 16.5632 6.95428C16.8254 7.53849 17.3596 8 18 8C19.6569 8 21 9.34315 21 11C21 12.6569 19.6569 14 18 14H6C4.34315 14 3 12.6569 3 11C3 9.34315 4.34315 8 6 8C6.64037 8 7.1746 7.53849 7.43685 6.95428C8.21857 5.21286 9.96746 4 12 4Z" fill="#2F4C33"/>
<path d="M12 19V17" stroke="#2F4C33" stroke-width="2" stroke-linecap="round"/>
<path d="M17 20V17" stroke="#2F4C33" stroke-width="2" stroke-linecap="round"/>
<path d="M7 21V17" stroke="#2F4C33" stroke-width="2" stroke-linecap="round"/>
</g>
<defs>
<filter id="filter0_g_2004_886" x="-0.75" y="-0.75" width="25.5" height="25.5" filterUnits="userSpaceOnUse" color-interpolation-filters="sRGB">
<feFlood flood-opacity="0" result="BackgroundImageFix"/>
<feBlend mode="normal" in="SourceGraphic" in2="BackgroundImageFix" result="shape"/>
<feTurbulence type="fractalNoise" baseFrequency="0.99900001287460327 0.99900001287460327" numOctaves="3" seed="3145" />
<feDisplacementMap in="shape" scale="1.5" xChannelSelector="R" yChannelSelector="G" result="displacedImage" width="100%" height="100%" />
<feMerge result="effect1_texture_2004_886">
<feMergeNode in="displacedImage"/>
</feMerge>
</filter>
</defs>
</svg>
