<svg width="24" height="24" viewBox="0 0 24 24" fill="none" xmlns="http://www.w3.org/2000/svg">
<g filter="url(#filter0_g_2004_935)">
<path d="M13 16C13.7354 16 14.1863 16.002 14.5127 16.0459C14.8103 16.0859 14.8506 16.1436 14.8535 16.1465C14.8564 16.1494 14.9141 16.1897 14.9541 16.4873C14.998 16.8137 15 17.2646 15 18V21H9C8.64496 21 8.31221 20.9988 8 20.9971V18C8 17.2646 8.00202 16.8137 8.0459 16.4873C8.08591 16.1897 8.14358 16.1494 8.14648 16.1465C8.14939 16.1436 8.18974 16.0859 8.4873 16.0459C8.81365 16.002 9.26462 16 10 16H13ZM15.3428 3C16.16 3 16.5691 3.00023 16.9365 3.15234C17.3041 3.30458 17.5938 3.59381 18.1719 4.17188L19.8281 5.82812C20.4062 6.40618 20.6954 6.69593 20.8477 7.06348C20.9998 7.43094 21 7.83996 21 8.65723V15C21 17.8284 20.9998 19.2424 20.1211 20.1211C19.4798 20.7624 18.5534 20.9346 17 20.9814V18C17 17.3212 17.0025 16.7113 16.9365 16.2207C16.8667 15.7014 16.704 15.1688 16.2676 14.7324C15.8312 14.296 15.2986 14.1333 14.7793 14.0635C14.2887 13.9975 13.6788 14 13 14H10C9.32116 14 8.7113 13.9975 8.2207 14.0635C7.70137 14.1333 7.16884 14.296 6.73242 14.7324C6.29601 15.1688 6.13331 15.7014 6.06348 16.2207C5.99752 16.7113 6 17.3212 6 18V20.9229C5.02497 20.8269 4.36878 20.611 3.87891 20.1211C3.00023 19.2424 3 17.8284 3 15V9C3 6.17157 3.00023 4.75759 3.87891 3.87891C4.75759 3.00023 6.17157 3 9 3H15.3428ZM7 7C6.44772 7 6 7.44772 6 8C6 8.55228 6.44772 9 7 9H12C12.5523 9 13 8.55228 13 8C13 7.44772 12.5523 7 12 7H7Z" fill="#2F4C33"/>
</g>
<defs>
<filter id="filter0_g_2004_935" x="-0.75" y="-0.75" width="25.5" height="25.5" filterUnits="userSpaceOnUse" color-interpolation-filters="sRGB">
<feFlood flood-opacity="0" result="BackgroundImageFix"/>
<feBlend mode="normal" in="SourceGraphic" in2="BackgroundImageFix" result="shape"/>
<feTurbulence type="fractalNoise" baseFrequency="0.99900001287460327 0.99900001287460327" numOctaves="3" seed="3145" />
<feDisplacementMap in="shape" scale="1.5" xChannelSelector="R" yChannelSelector="G" result="displacedImage" width="100%" height="100%" />
<feMerge result="effect1_texture_2004_935">
<feMergeNode in="displacedImage"/>
</feMerge>
</filter>
</defs>
</svg>
