<svg width="24" height="24" viewBox="0 0 24 24" fill="none" xmlns="http://www.w3.org/2000/svg">
<g filter="url(#filter0_g_2004_783)">
<path d="M11 4C14.866 4 18 7.13401 18 11C18 14.866 14.866 18 11 18C7.13401 18 4 14.866 4 11C4 7.13401 7.13401 4 11 4ZM11 6C10.3435 6 9.69349 6.12964 9.08691 6.38086C8.48029 6.63213 7.92914 7.00055 7.46484 7.46484C7.00055 7.92914 6.63213 8.48029 6.38086 9.08691C6.12964 9.69349 6 10.3435 6 11C6 11.5523 6.44772 12 7 12C7.55228 12 8 11.5523 8 11C8 10.606 8.07775 10.2155 8.22852 9.85156C8.37928 9.48774 8.60043 9.15738 8.87891 8.87891C9.15738 8.60043 9.48774 8.37928 9.85156 8.22852C10.2155 8.07775 10.606 8 11 8C11.5523 8 12 7.55228 12 7C12 6.44772 11.5523 6 11 6Z" fill="#2F4C33"/>
<path d="M20 20L18 18" stroke="#2F4C33" stroke-width="2" stroke-linecap="round"/>
</g>
<defs>
<filter id="filter0_g_2004_783" x="-0.75" y="-0.75" width="25.5" height="25.5" filterUnits="userSpaceOnUse" color-interpolation-filters="sRGB">
<feFlood flood-opacity="0" result="BackgroundImageFix"/>
<feBlend mode="normal" in="SourceGraphic" in2="BackgroundImageFix" result="shape"/>
<feTurbulence type="fractalNoise" baseFrequency="0.99900001287460327 0.99900001287460327" numOctaves="3" seed="3145" />
<feDisplacementMap in="shape" scale="1.5" xChannelSelector="R" yChannelSelector="G" result="displacedImage" width="100%" height="100%" />
<feMerge result="effect1_texture_2004_783">
<feMergeNode in="displacedImage"/>
</feMerge>
</filter>
</defs>
</svg>
