<svg width="24" height="24" viewBox="0 0 24 24" fill="none" xmlns="http://www.w3.org/2000/svg">
<g filter="url(#filter0_g_2004_775)">
<path d="M12.6318 2C13.0675 2 13.2858 2.00028 13.4629 2.07031C13.6878 2.15934 13.8726 2.32699 13.9834 2.54199C14.0707 2.71127 14.0925 2.92789 14.1357 3.36133C14.2177 4.18213 14.2589 4.59316 14.4307 4.81836C14.6486 5.10394 15.0033 5.251 15.3594 5.20312C15.64 5.16528 15.9591 4.90323 16.5977 4.38086C16.9353 4.10467 17.1045 3.96713 17.2861 3.90918C17.5165 3.8357 17.7655 3.84826 17.9873 3.94434C18.1622 4.0201 18.3167 4.17412 18.625 4.48242L19.5176 5.375C19.8258 5.68323 19.9799 5.83787 20.0557 6.0127C20.1517 6.23455 20.1643 6.48357 20.0908 6.71387C20.0328 6.89534 19.8942 7.0641 19.6182 7.40137C19.0958 8.03946 18.8349 8.35905 18.7969 8.63965C18.7489 8.99576 18.896 9.35039 19.1816 9.56836C19.4068 9.7401 19.8176 9.78112 20.6387 9.86328C21.0724 9.90669 21.2897 9.92921 21.459 10.0166C21.6737 10.1275 21.8408 10.3124 21.9297 10.5371C21.9998 10.7143 22 10.9323 22 11.3682V12.6318C22 13.0675 21.9997 13.2858 21.9297 13.4629C21.8407 13.6878 21.673 13.8726 21.458 13.9834C21.2887 14.0706 21.0721 14.0925 20.6387 14.1357C19.8181 14.2177 19.4078 14.259 19.1826 14.4307C18.8967 14.6486 18.7498 15.0031 18.7979 15.3594C18.8357 15.6399 19.0969 15.9594 19.6191 16.5977C19.8947 16.9345 20.0328 17.103 20.0908 17.2842C20.1645 17.5146 20.1518 17.7643 20.0557 17.9863C19.9799 18.1611 19.8257 18.316 19.5176 18.624L18.625 19.5166C18.3167 19.8249 18.1622 19.9789 17.9873 20.0547C17.7654 20.1508 17.5165 20.1633 17.2861 20.0898C17.1045 20.0319 16.9352 19.8943 16.5977 19.6182C15.9588 19.0956 15.6392 18.8336 15.3584 18.7959C15.0026 18.7483 14.6484 18.8953 14.4307 19.1807C14.2588 19.4059 14.2177 19.8166 14.1357 20.6377C14.0924 21.0714 14.0707 21.2886 13.9834 21.458C13.8725 21.6729 13.6877 21.8407 13.4629 21.9297C13.2856 21.9998 13.067 22 12.6309 22H11.3682C10.9323 22 10.7143 21.9998 10.5371 21.9297C10.3124 21.8408 10.1275 21.6737 10.0166 21.459C9.92921 21.2897 9.90669 21.0724 9.86328 20.6387C9.78112 19.8176 9.7401 19.4068 9.56836 19.1816C9.35039 18.896 8.99576 18.7489 8.63965 18.7969C8.35905 18.8349 8.03946 19.0958 7.40137 19.6182C7.0641 19.8942 6.89534 20.0328 6.71387 20.0908C6.48357 20.1643 6.23455 20.1517 6.0127 20.0557C5.83787 19.9799 5.68323 19.8258 5.375 19.5176L4.48242 18.625C4.17412 18.3167 4.0201 18.1622 3.94434 17.9873C3.84826 17.7655 3.8357 17.5165 3.90918 17.2861C3.96713 17.1045 4.10467 16.9353 4.38086 16.5977C4.90323 15.9591 5.16528 15.64 5.20312 15.3594C5.251 15.0033 5.10394 14.6486 4.81836 14.4307C4.59316 14.2589 4.18213 14.2177 3.36133 14.1357C2.92789 14.0925 2.71127 14.0707 2.54199 13.9834C2.32699 13.8726 2.15934 13.6878 2.07031 13.4629C2.00028 13.2858 2 13.0675 2 12.6318V11.3682C2 10.9323 2.00023 10.7143 2.07031 10.5371C2.15921 10.3124 2.32634 10.1275 2.54102 10.0166C2.71035 9.92922 2.9276 9.90669 3.36133 9.86328C4.18237 9.7811 4.59316 9.74021 4.81836 9.56836C5.10372 9.3505 5.25086 8.99645 5.20312 8.64062C5.16537 8.35987 4.90335 8.03991 4.38086 7.40137C4.10503 7.06427 3.96714 6.89531 3.90918 6.71387C3.83569 6.48354 3.84827 6.23456 3.94434 6.0127C4.02008 5.83785 4.17418 5.68324 4.48242 5.375L5.375 4.48242C5.68326 4.17417 5.83783 4.02009 6.0127 3.94434C6.23457 3.84823 6.48352 3.8357 6.71387 3.90918C6.89541 3.96713 7.06487 4.10482 7.40234 4.38086C8.04077 4.90307 8.35992 5.16444 8.64062 5.20215C8.99654 5.24992 9.3505 5.10287 9.56836 4.81738C9.74013 4.59218 9.78112 4.18199 9.86328 3.36133C9.9067 2.92763 9.92924 2.71034 10.0166 2.54102C10.1275 2.32633 10.3124 2.15921 10.5371 2.07031C10.7143 2.00025 10.9323 2 11.3682 2H12.6318ZM12 8C9.79086 8 8 9.79086 8 12C8 14.2091 9.79086 16 12 16C14.2091 16 16 14.2091 16 12C16 9.79086 14.2091 8 12 8Z" fill="#2F4C33"/>
</g>
<defs>
<filter id="filter0_g_2004_775" x="-0.75" y="-0.75" width="25.5" height="25.5" filterUnits="userSpaceOnUse" color-interpolation-filters="sRGB">
<feFlood flood-opacity="0" result="BackgroundImageFix"/>
<feBlend mode="normal" in="SourceGraphic" in2="BackgroundImageFix" result="shape"/>
<feTurbulence type="fractalNoise" baseFrequency="0.99900001287460327 0.99900001287460327" numOctaves="3" seed="3145" />
<feDisplacementMap in="shape" scale="1.5" xChannelSelector="R" yChannelSelector="G" result="displacedImage" width="100%" height="100%" />
<feMerge result="effect1_texture_2004_775">
<feMergeNode in="displacedImage"/>
</feMerge>
</filter>
</defs>
</svg>
