<svg width="24" height="24" viewBox="0 0 24 24" fill="none" xmlns="http://www.w3.org/2000/svg">
<g filter="url(#filter0_g_2004_918)">
<path d="M10.1438 6.62758C10.9304 4.66658 11.3237 3.68608 12 3.68608C12.6763 3.68608 13.0696 4.66658 13.8562 6.62758L13.8929 6.71889C14.3373 7.82676 14.5595 8.38069 15.0123 8.71738C15.4652 9.05407 16.0596 9.10731 17.2485 9.21379L17.4635 9.23304C19.4093 9.4073 20.3822 9.49443 20.5904 10.1134C20.7985 10.7324 20.076 11.3897 18.631 12.7044L18.1487 13.1432C17.4172 13.8087 17.0514 14.1415 16.881 14.5776C16.8492 14.659 16.8227 14.7423 16.8018 14.8271C16.6898 15.2818 16.7969 15.7645 17.0111 16.73L17.0778 17.0305C17.4714 18.8048 17.6683 19.692 17.3246 20.0747C17.1962 20.2177 17.0293 20.3206 16.8438 20.3712C16.3476 20.5066 15.6432 19.9326 14.2342 18.7845C13.309 18.0306 12.8464 17.6536 12.3153 17.5688C12.1064 17.5355 11.8936 17.5355 11.6847 17.5688C11.1536 17.6536 10.691 18.0306 9.7658 18.7845C8.35684 19.9326 7.65237 20.5066 7.15617 20.3712C6.97075 20.3206 6.80384 20.2177 6.67542 20.0747C6.33174 19.692 6.52857 18.8048 6.92225 17.0305L6.98892 16.73C7.20313 15.7645 7.31024 15.2818 7.19818 14.8271C7.17728 14.7423 7.15084 14.659 7.11904 14.5776C6.94857 14.1415 6.58282 13.8087 5.85131 13.1432L5.36903 12.7044C3.92398 11.3897 3.20146 10.7324 3.40964 10.1134C3.61782 9.49443 4.59073 9.4073 6.53654 9.23304L6.75148 9.21379C7.94039 9.10731 8.53485 9.05407 8.9877 8.71738C9.44055 8.38069 9.66275 7.82676 10.1071 6.71889L10.1438 6.62758Z" stroke="#2F4C33" stroke-width="2"/>
</g>
<defs>
<filter id="filter0_g_2004_918" x="-0.75" y="-0.75" width="25.5" height="25.5" filterUnits="userSpaceOnUse" color-interpolation-filters="sRGB">
<feFlood flood-opacity="0" result="BackgroundImageFix"/>
<feBlend mode="normal" in="SourceGraphic" in2="BackgroundImageFix" result="shape"/>
<feTurbulence type="fractalNoise" baseFrequency="0.99900001287460327 0.99900001287460327" numOctaves="3" seed="3145" />
<feDisplacementMap in="shape" scale="1.5" xChannelSelector="R" yChannelSelector="G" result="displacedImage" width="100%" height="100%" />
<feMerge result="effect1_texture_2004_918">
<feMergeNode in="displacedImage"/>
</feMerge>
</filter>
</defs>
</svg>
