<svg width="24" height="24" viewBox="0 0 24 24" fill="none" xmlns="http://www.w3.org/2000/svg">
<g filter="url(#filter0_g_2004_907)">
<path d="M6 12H18C19.6569 12 21 10.6569 21 9C21 7.34315 19.6569 6 18 6C17.36 6 16.826 5.53873 16.5639 4.95481C15.7822 3.21307 14.0328 2 12 2C9.96722 2 8.21776 3.21307 7.43606 4.95481C7.17399 5.53873 6.64004 6 6 6C4.34315 6 3 7.34315 3 9C3 10.6569 4.34315 12 6 12Z" fill="#2F4C33"/>
<path fill-rule="evenodd" clip-rule="evenodd" d="M12.0002 14.7002C12.0002 14.9358 12.0003 15.0537 12.0735 15.127C12.1467 15.1999 12.2646 15.2002 12.5002 15.2002C14.054 15.2002 14.8312 15.2 15.1194 15.7031C15.4074 16.2066 15.0138 16.8759 14.2268 18.2139L12.9309 20.417C12.556 21.0543 12.3681 21.3734 12.1838 21.3232C11.9999 21.2727 12.0002 20.9028 12.0002 20.1641V18.2998C12.0002 18.0643 12.0002 17.9463 11.927 17.873C11.8538 17.7998 11.7352 17.7998 11.4993 17.7998C9.94551 17.7998 9.16819 17.8001 8.88012 17.2969C8.59215 16.7934 8.98573 16.124 9.7727 14.7861L10.2356 14H12.0002V14.7002Z" fill="#2F4C33"/>
</g>
<defs>
<filter id="filter0_g_2004_907" x="-0.75" y="-0.75" width="25.5" height="25.5" filterUnits="userSpaceOnUse" color-interpolation-filters="sRGB">
<feFlood flood-opacity="0" result="BackgroundImageFix"/>
<feBlend mode="normal" in="SourceGraphic" in2="BackgroundImageFix" result="shape"/>
<feTurbulence type="fractalNoise" baseFrequency="0.99900001287460327 0.99900001287460327" numOctaves="3" seed="3145" />
<feDisplacementMap in="shape" scale="1.5" xChannelSelector="R" yChannelSelector="G" result="displacedImage" width="100%" height="100%" />
<feMerge result="effect1_texture_2004_907">
<feMergeNode in="displacedImage"/>
</feMerge>
</filter>
</defs>
</svg>
