<svg width="24" height="25" viewBox="0 0 24 25" fill="none" xmlns="http://www.w3.org/2000/svg">
<g filter="url(#filter0_g_2004_880)">
<path d="M17 18.1642C17 16.8381 16.4732 15.5664 15.5355 14.6287C14.5979 13.691 13.3261 13.1642 12 13.1642C10.6739 13.1642 9.40215 13.691 8.46447 14.6287C7.52678 15.5664 7 16.8381 7 18.1642L12 18.1642H17Z" fill="#2F4C33"/>
<path d="M17.5 12.6642L19.5 10.6642" stroke="#2F4C33" stroke-width="2" stroke-linecap="round"/>
<path d="M5 18.1642H19" stroke="#2F4C33" stroke-width="2" stroke-linecap="square"/>
<path d="M4.5 10.6642L6.5 12.6642" stroke="#2F4C33" stroke-width="2" stroke-linecap="round"/>
<path d="M12 2.16421L12.7071 1.45711L12 0.75L11.2929 1.45711L12 2.16421ZM11 10.6642C11 11.2165 11.4477 11.6642 12 11.6642C12.5523 11.6642 13 11.2165 13 10.6642L12 10.6642L11 10.6642ZM15 5.16421L15.7071 4.45711L12.7071 1.45711L12 2.16421L11.2929 2.87132L14.2929 5.87132L15 5.16421ZM12 2.16421L11.2929 1.45711L8.29289 4.45711L9 5.16421L9.70711 5.87132L12.7071 2.87132L12 2.16421ZM12 2.16421L11 2.16421L11 10.6642L12 10.6642L13 10.6642L13 2.16421L12 2.16421Z" fill="#2F4C33"/>
</g>
<defs>
<filter id="filter0_g_2004_880" x="-0.75" y="-0.585787" width="25.5" height="25.5" filterUnits="userSpaceOnUse" color-interpolation-filters="sRGB">
<feFlood flood-opacity="0" result="BackgroundImageFix"/>
<feBlend mode="normal" in="SourceGraphic" in2="BackgroundImageFix" result="shape"/>
<feTurbulence type="fractalNoise" baseFrequency="0.99900001287460327 0.99900001287460327" numOctaves="3" seed="3145" />
<feDisplacementMap in="shape" scale="1.5" xChannelSelector="R" yChannelSelector="G" result="displacedImage" width="100%" height="100%" />
<feMerge result="effect1_texture_2004_880">
<feMergeNode in="displacedImage"/>
</feMerge>
</filter>
</defs>
</svg>
