<svg width="24" height="24" viewBox="0 0 24 24" fill="none" xmlns="http://www.w3.org/2000/svg">
<g filter="url(#filter0_g_2004_845)">
<path d="M15 13H17" stroke="#2F4C33" stroke-width="2" stroke-linecap="round" stroke-linejoin="round"/>
<path d="M15 9H17" stroke="#2F4C33" stroke-width="2" stroke-linecap="round" stroke-linejoin="round"/>
<path d="M15 5H19" stroke="#2F4C33" stroke-width="2" stroke-linecap="round" stroke-linejoin="round"/>
<path d="M10 2C11.1046 2 12 2.89543 12 4V14.5361C13.1954 15.2278 14 16.5196 14 18C14 20.2091 12.2091 22 10 22C7.79086 22 6 20.2091 6 18C6 16.5196 6.80464 15.2278 8 14.5361V4C8 2.89543 8.89543 2 10 2ZM10 16C8.89543 16 8 16.8954 8 18C8 19.1046 8.89543 20 10 20C11.1046 20 12 19.1046 12 18C12 16.8954 11.1046 16 10 16Z" fill="#2F4C33"/>
</g>
<defs>
<filter id="filter0_g_2004_845" x="-0.75" y="-0.75" width="25.5" height="25.5" filterUnits="userSpaceOnUse" color-interpolation-filters="sRGB">
<feFlood flood-opacity="0" result="BackgroundImageFix"/>
<feBlend mode="normal" in="SourceGraphic" in2="BackgroundImageFix" result="shape"/>
<feTurbulence type="fractalNoise" baseFrequency="0.99900001287460327 0.99900001287460327" numOctaves="3" seed="3145" />
<feDisplacementMap in="shape" scale="1.5" xChannelSelector="R" yChannelSelector="G" result="displacedImage" width="100%" height="100%" />
<feMerge result="effect1_texture_2004_845">
<feMergeNode in="displacedImage"/>
</feMerge>
</filter>
</defs>
</svg>
