<svg width="24" height="24" viewBox="0 0 24 24" fill="none" xmlns="http://www.w3.org/2000/svg">
<g filter="url(#filter0_g_2004_894)">
<path d="M12 3C13.6569 3 15 4.34315 15 6V11.5C15 11.8145 15.1523 12.1064 15.3838 12.3193C16.3773 13.2331 17 14.5438 17 16C17 18.7614 14.7614 21 12 21C9.23858 21 7 18.7614 7 16C7 14.5438 7.62273 13.2331 8.61621 12.3193C8.84765 12.1064 9 11.8145 9 11.5V6C9 4.34315 10.3431 3 12 3ZM12 5C11.4477 5 11 5.44772 11 6V13H13V6C13 5.44772 12.5523 5 12 5Z" fill="#2F4C33"/>
</g>
<defs>
<filter id="filter0_g_2004_894" x="-0.75" y="-0.75" width="25.5" height="25.5" filterUnits="userSpaceOnUse" color-interpolation-filters="sRGB">
<feFlood flood-opacity="0" result="BackgroundImageFix"/>
<feBlend mode="normal" in="SourceGraphic" in2="BackgroundImageFix" result="shape"/>
<feTurbulence type="fractalNoise" baseFrequency="0.99900001287460327 0.99900001287460327" numOctaves="3" seed="3145" />
<feDisplacementMap in="shape" scale="1.5" xChannelSelector="R" yChannelSelector="G" result="displacedImage" width="100%" height="100%" />
<feMerge result="effect1_texture_2004_894">
<feMergeNode in="displacedImage"/>
</feMerge>
</filter>
</defs>
</svg>
