<svg width="24" height="24" viewBox="0 0 24 24" fill="none" xmlns="http://www.w3.org/2000/svg">
<g filter="url(#filter0_g_2004_765)">
<path d="M12.0002 6C15.6359 6.00014 18.7677 9.21046 20.1877 10.9346C20.5759 11.4058 20.7707 11.6412 20.7707 12C20.7707 12.3588 20.5759 12.5942 20.1877 13.0654C18.7677 14.7895 15.6359 17.9999 12.0002 18C8.3645 18 5.23184 14.7896 3.81175 13.0654C3.42374 12.5943 3.22972 12.3587 3.22972 12C3.22972 11.6413 3.42374 11.4057 3.81175 10.9346C5.23184 9.21042 8.3645 6 12.0002 6ZM12.0002 9C10.3434 9 9.00023 10.3431 9.00023 12C9.00023 13.6569 10.3434 15 12.0002 15C13.657 14.9999 15.0002 13.6568 15.0002 12C15.0002 10.3432 13.657 9.00012 12.0002 9Z" fill="#2F4C33"/>
</g>
<defs>
<filter id="filter0_g_2004_765" x="-0.75" y="-0.75" width="25.5" height="25.5" filterUnits="userSpaceOnUse" color-interpolation-filters="sRGB">
<feFlood flood-opacity="0" result="BackgroundImageFix"/>
<feBlend mode="normal" in="SourceGraphic" in2="BackgroundImageFix" result="shape"/>
<feTurbulence type="fractalNoise" baseFrequency="0.99900001287460327 0.99900001287460327" numOctaves="3" seed="3145" />
<feDisplacementMap in="shape" scale="1.5" xChannelSelector="R" yChannelSelector="G" result="displacedImage" width="100%" height="100%" />
<feMerge result="effect1_texture_2004_765">
<feMergeNode in="displacedImage"/>
</feMerge>
</filter>
</defs>
</svg>
