<svg width="40" height="40" viewBox="0 0 40 40" fill="none" xmlns="http://www.w3.org/2000/svg">
<g filter="url(#filter0_g_2004_138)">
<path d="M31.1783 6.92246H33.1769C33.1443 7.5792 33.2222 8.26014 33.1769 8.91372C32.8401 13.7614 29.6911 23.3136 23.449 22.7494C20.8999 22.519 17.5267 19.1574 17.2952 16.6167C16.73 10.403 26.3138 7.24662 31.1783 6.92141V6.92246ZM28.6545 11.9564C28.666 11.9427 28.8597 11.908 28.9713 11.8038C29.1428 11.6438 29.5438 11.2755 29.6259 11.0881C29.8332 10.6177 29.5691 10.2704 29.0691 10.4251C28.5692 10.5798 27.4483 12.1143 26.9168 12.4774C26.8484 12.0838 26.6506 10.545 25.9612 11.105C25.6718 11.3407 25.9717 12.3553 25.9086 12.8363C25.7444 14.0929 24.4183 14.8212 23.6563 15.7274C23.6226 15.0591 23.5047 14.4939 23.1627 13.914C22.9522 13.5572 22.6312 12.9773 22.1765 13.3088C21.6534 13.6909 22.3175 14.1634 22.4996 14.5739C22.828 15.3159 22.8175 16.3589 22.3428 17.0388C22.0208 17.4987 20.8041 18.3144 20.7746 18.8206C20.7452 19.3268 21.2335 19.3626 21.5998 19.129C23.2364 18.086 23.7079 15.76 26.2622 16.2757C26.7811 16.381 27.3347 17.1693 27.763 16.8893C28.846 16.1789 26.0833 15.117 25.4981 15.2569C26.6621 14.2255 27.321 12.8289 29.1176 13.011C29.5943 13.0594 30.0048 13.4898 30.2132 12.651C29.9216 12.0869 29.2859 12.209 28.7797 12.1395C28.6134 12.1174 28.4882 12.1437 28.6534 11.9564H28.6545Z" fill="#427449"/>
<path d="M6.88 31.1376L6.97788 30.9713C7.18732 27.9287 8.05561 24.7797 9.56064 22.1201C10.9878 19.5994 13.3464 16.9441 16.5532 17.3051C17.2194 20.1878 19.9264 22.7621 22.7702 23.5462C23.0459 26.1731 21.2315 28.2423 19.2212 29.6515C16.5943 31.4923 12.8559 32.6921 9.66694 33.0236C8.7976 33.1142 7.37993 33.4373 6.88106 32.6058V31.1387L6.88 31.1376ZM16.168 27.855C16.489 28.1202 16.9669 27.8697 16.9763 27.5235C16.9837 27.2614 16.327 26.6394 16.248 26.1521C16.1691 25.6648 16.228 24.8239 16.4469 24.3713C16.8111 23.622 18.1814 22.8358 18.5413 22.1622C18.6908 21.8833 18.7403 21.5055 18.3751 21.4044C17.8078 21.2487 17.31 22.219 16.8416 22.459C16.1628 22.8053 15.2461 22.7926 14.5588 22.4906C14.1968 22.3316 13.8273 21.8254 13.4727 22.0285C12.3223 22.6884 15.0472 23.863 15.6629 23.5904C15.8755 23.8072 15.5429 23.8125 15.3976 23.9514C14.5883 24.7239 13.92 25.7785 12.718 25.8974C12.0781 25.9605 10.8026 25.4091 11.0299 26.4226C11.192 26.7383 12.1266 26.7857 12.4528 26.892C12.0234 27.4993 10.7857 28.3054 10.4689 28.898C10.1521 29.4905 10.5657 29.8694 11.1246 29.5516L12.1371 28.6233C12.0161 29.0053 12.1981 30.0978 12.6265 30.1778C13.4685 29.9694 13.0359 29.561 12.9875 29.0853C12.8054 27.2951 14.2073 26.6383 15.2408 25.4785C15.2808 26.1742 15.6102 27.3972 16.1659 27.856L16.168 27.855Z" fill="#427449"/>
<path d="M17.5037 12.2711C16.968 13.3393 16.3902 14.3939 16.346 15.6243C15.6282 15.2843 14.381 12.9405 13.7148 14.1087C13.658 14.6918 15.304 15.8063 15.6103 16.3568C14.3758 16.401 13.317 16.9767 12.2456 17.5103C11.6562 15.9484 11.0479 14.1129 10.9773 12.4311C10.9005 10.5893 11.9961 10.9355 13.438 11.1313C14.8799 11.327 16.1986 11.7649 17.5026 12.2711H17.5037Z" fill="#427449"/>
<path d="M27.8105 22.5421C28.3073 23.8114 28.744 25.1438 28.9398 26.5015C29.2955 28.9632 29.1503 29.2716 26.616 28.9222C25.2372 28.7317 23.8406 28.2844 22.5524 27.7813C23.0881 26.713 23.6659 25.6585 23.7101 24.4281C24.4279 24.7681 25.675 27.1119 26.3413 25.9437C26.3981 25.3606 24.752 24.2461 24.4458 23.6956C25.6803 23.6514 26.7391 23.0757 27.8105 22.5421Z" fill="#427449"/>
</g>
<defs>
<filter id="filter0_g_2004_138" x="-0.5" y="-0.5" width="41" height="41" filterUnits="userSpaceOnUse" color-interpolation-filters="sRGB">
<feFlood flood-opacity="0" result="BackgroundImageFix"/>
<feBlend mode="normal" in="SourceGraphic" in2="BackgroundImageFix" result="shape"/>
<feTurbulence type="fractalNoise" baseFrequency="0.99900001287460327 0.99900001287460327" numOctaves="3" seed="3145" />
<feDisplacementMap in="shape" scale="1" xChannelSelector="R" yChannelSelector="G" result="displacedImage" width="100%" height="100%" />
<feMerge result="effect1_texture_2004_138">
<feMergeNode in="displacedImage"/>
</feMerge>
</filter>
</defs>
</svg>
