<svg width="40" height="40" viewBox="0 0 40 40" fill="none" xmlns="http://www.w3.org/2000/svg">
<g filter="url(#filter0_g_2004_152)">
<path d="M33.1946 6.89422V7.10393C32.7067 8.23256 32.1913 9.33064 31.3588 10.2538L16.6096 25.0061C16.5306 25.0757 16.4821 25.0483 16.401 25.0061C16.3145 24.9619 15.0605 23.7163 15.0436 23.6214L29.834 8.72997C30.814 7.8964 31.9448 7.23987 33.1946 6.89422Z" fill="#427449"/>
<path d="M12.8318 33.1342H11.9919L11.1541 32.6621L14.2629 29.5734L15.5591 30.7726C14.6591 31.5693 13.9689 32.66 12.8318 33.1342Z" fill="#427449"/>
<path d="M32.985 14.0328C31.6646 15.0328 30.3663 16.0498 29.1512 17.1773C25.8317 20.2587 22.3077 23.8596 19.1768 27.1496C19.0925 27.2381 19.0314 27.3403 19.024 27.4657C18.8702 27.5079 18.8491 27.4236 18.7616 27.3635C18.6626 27.2961 17.7426 26.3772 17.7078 26.3108C17.6446 26.1875 17.6572 26.1358 17.7605 26.0463L27.3734 16.4481C28.9594 15.1319 30.9121 14.2203 32.9861 14.0317L32.985 14.0328Z" fill="#427449"/>
<path d="M12.623 21.066C12.7484 21.0586 12.8506 20.9975 12.9391 20.9131C16.2292 17.7823 19.829 14.2583 22.9114 10.9388C24.0401 9.72374 25.0559 8.42543 26.056 7.105C25.8495 9.22212 24.9221 11.2307 23.5405 12.8283L13.9856 22.3832C13.8633 22.4812 13.8138 22.3948 13.7211 22.3305C13.5862 22.2378 12.818 21.4653 12.7252 21.3294C12.6652 21.2409 12.5808 21.2209 12.623 21.067V21.066Z" fill="#427449"/>
<path d="M11.566 22.2534L10.4052 23.4146L16.6612 29.6684L17.822 28.5072L11.566 22.2534Z" fill="#427449"/>
<path d="M11.6774 26.8797L8.52234 30.0347L10.0536 31.566L13.2087 28.411L11.6774 26.8797Z" fill="#427449"/>
<path d="M9.31623 24.5288L10.5155 25.825L7.42673 28.9337C5.96087 27.0253 8.19813 25.7881 9.31623 24.5288Z" fill="#427449"/>
</g>
<defs>
<filter id="filter0_g_2004_152" x="-0.5" y="-0.5" width="41" height="41" filterUnits="userSpaceOnUse" color-interpolation-filters="sRGB">
<feFlood flood-opacity="0" result="BackgroundImageFix"/>
<feBlend mode="normal" in="SourceGraphic" in2="BackgroundImageFix" result="shape"/>
<feTurbulence type="fractalNoise" baseFrequency="0.99900001287460327 0.99900001287460327" numOctaves="3" seed="3145" />
<feDisplacementMap in="shape" scale="1" xChannelSelector="R" yChannelSelector="G" result="displacedImage" width="100%" height="100%" />
<feMerge result="effect1_texture_2004_152">
<feMergeNode in="displacedImage"/>
</feMerge>
</filter>
</defs>
</svg>
