<svg width="40" height="40" viewBox="0 0 40 40" fill="none" xmlns="http://www.w3.org/2000/svg">
<g filter="url(#filter0_g_2004_149)">
<path d="M5.59998 15.6041C5.96436 14.8269 6.2953 13.9979 7.15207 13.6473C8.46201 13.1111 9.18964 13.8491 10.3255 14.3403C10.5976 13.3117 11.3241 12.4365 12.4876 12.8205C14.276 13.4109 15.1328 18.2148 16.0415 19.7323L19.3221 21.575V17.9577C18.3143 16.4136 16.7149 15.1441 15.7682 13.5735C14.5101 11.4864 14.8791 9.95155 17.5924 10.3206C17.303 8.16652 18.1355 6.61327 20.534 6.87503C21.1198 6.93845 21.7748 7.3628 22.0919 7.84942C22.153 7.94282 22.4367 8.61163 22.4367 8.65545V10.3206C25.7 9.95732 25.3068 12.0018 23.915 14.0324C22.9625 15.4208 21.6549 16.5624 20.707 17.9588V21.5762L23.9876 19.7335C24.8847 18.1595 25.6793 13.6888 27.364 12.8736C28.5228 12.312 29.4592 13.2725 29.7036 14.3403C30.8395 13.8491 31.5671 13.1099 32.877 13.6473C33.735 13.9979 34.0647 14.8269 34.4291 15.6041V16.5232C34.0509 17.4561 33.2714 18.3036 32.2382 18.4766V18.6461C33.0062 19.474 33.4305 20.8612 32.2036 21.4851C30.4301 22.3856 26.7666 21.0054 24.8121 20.89L20.7658 23.1859L20.7105 32.3186C20.6678 33.1189 19.8468 33.3633 19.3844 32.7153L19.2656 23.1859L15.2193 20.89C13.2544 20.9938 9.60937 22.3903 7.8278 21.4851C6.58589 20.8543 6.99871 19.474 7.7909 18.6484C6.83266 18.1076 5.98858 17.6152 5.60228 16.5243V15.6053L5.59998 15.6041Z" fill="#427449"/>
</g>
<defs>
<filter id="filter0_g_2004_149" x="-0.5" y="-0.5" width="41" height="41" filterUnits="userSpaceOnUse" color-interpolation-filters="sRGB">
<feFlood flood-opacity="0" result="BackgroundImageFix"/>
<feBlend mode="normal" in="SourceGraphic" in2="BackgroundImageFix" result="shape"/>
<feTurbulence type="fractalNoise" baseFrequency="0.99900001287460327 0.99900001287460327" numOctaves="3" seed="3145" />
<feDisplacementMap in="shape" scale="1" xChannelSelector="R" yChannelSelector="G" result="displacedImage" width="100%" height="100%" />
<feMerge result="effect1_texture_2004_149">
<feMergeNode in="displacedImage"/>
</feMerge>
</filter>
</defs>
</svg>
