<svg width="40" height="40" viewBox="0 0 40 40" fill="none" xmlns="http://www.w3.org/2000/svg">
<g filter="url(#filter0_g_2004_143)">
<path d="M34.4937 9.38082C34.6714 15.6663 33.5366 22.7731 27.5282 26.0389C24.1686 27.8649 20.1555 28.3281 16.3761 28.1952L17.9909 25.4205C20.7082 21.3836 24.5156 18.3766 28.8547 16.2162C29.2395 15.9783 29.01 15.3976 28.5986 15.4018C28.1872 15.406 25.8281 16.8039 25.3076 17.1285C22.5986 18.8174 20.059 21.0646 18.1308 23.6098C17.1849 24.858 16.4853 26.2572 15.5422 27.4997C15.4932 23.5035 15.9913 19.2218 18.0762 15.7502C21.4288 10.1658 28.4783 9.11217 34.4951 9.38222L34.4937 9.38082Z" fill="#427449"/>
<path d="M14.7012 27.6369L12.191 25.7577C10.6602 24.2171 9.14759 22.4471 8.36261 20.3874C6.47222 15.427 9.1196 10.6807 12.1308 6.86219C14.6984 8.42515 17.1345 10.7787 18.4568 13.4932C17.0506 15.4284 16.0585 17.3426 15.4372 19.6639C14.7656 22.1742 14.441 25.0595 14.6998 27.6369H14.7012Z" fill="#427449"/>
<path d="M15.6779 28.8948C13.7483 31.5422 10.2824 33.3234 6.96196 33.08C6.5156 33.0478 5.03519 32.9023 5.63267 32.1579C5.93211 31.7857 7.23342 32.253 7.79592 32.2432C9.40506 32.2166 11.4913 31.3295 12.7954 30.4004C13.2418 30.0828 14.5417 28.7493 14.7068 28.6793C15.0049 28.5534 15.3687 28.9018 15.6779 28.8948Z" fill="#427449"/>
</g>
<defs>
<filter id="filter0_g_2004_143" x="-0.5" y="-0.5" width="41" height="41" filterUnits="userSpaceOnUse" color-interpolation-filters="sRGB">
<feFlood flood-opacity="0" result="BackgroundImageFix"/>
<feBlend mode="normal" in="SourceGraphic" in2="BackgroundImageFix" result="shape"/>
<feTurbulence type="fractalNoise" baseFrequency="0.99900001287460327 0.99900001287460327" numOctaves="3" seed="3145" />
<feDisplacementMap in="shape" scale="1" xChannelSelector="R" yChannelSelector="G" result="displacedImage" width="100%" height="100%" />
<feMerge result="effect1_texture_2004_143">
<feMergeNode in="displacedImage"/>
</feMerge>
</filter>
</defs>
</svg>
