<svg width="40" height="40" viewBox="0 0 40 40" fill="none" xmlns="http://www.w3.org/2000/svg">
<g filter="url(#filter0_g_2004_136)">
<path d="M19.7388 28.0889C16.2199 27.8906 13.6409 24.1867 12.3874 21.2267C11.9367 20.1619 11.1676 18.2546 13.1277 18.632C11.9656 15.9003 12.4162 14.2503 15.6527 15.6383C15.4772 14.6048 15.1395 11.8948 15.5229 11.0223C15.9952 9.94905 17.1381 10.8011 17.6933 11.3299C17.8507 10.5812 18.0178 9.83008 18.293 9.11261C20.2051 4.13118 21.9981 8.61627 22.5029 11.3299C25.7634 8.5021 24.6313 13.8897 24.6661 15.6395C27.8641 14.1637 28.1778 16.0578 27.0697 18.632C28.8135 18.2522 28.3965 19.841 27.9687 20.9046C26.7428 23.9523 24.0592 27.8666 20.4586 28.0889V25.5159L22.5978 22.8635C22.2806 21.5451 21.1485 23.4007 20.7339 23.8658C20.663 23.9451 20.7411 24.0965 20.4598 24.0184C20.0392 22.1388 21.8299 21.3517 22.6003 19.9095C22.2205 18.8135 21.2374 20.3986 20.8168 20.8505C20.7014 20.9743 20.7086 21.3348 20.4586 21.0873C20.4959 20.5753 20.3457 20.0249 20.5944 19.5466C20.8432 19.0682 22.6291 17.3485 22.6038 17.0396C22.5942 16.917 22.4644 16.7548 22.3851 16.6514C21.9609 16.3798 21.0235 17.7968 20.7339 18.12C20.6618 18.2006 20.7423 18.3484 20.4586 18.2739V14.3837C20.4586 14.1457 19.7376 14.1457 19.7376 14.3837V18.2739C19.4539 18.3496 19.5345 18.2006 19.4624 18.12C19.1775 17.8028 18.2509 16.369 17.8111 16.6514C17.7318 16.7548 17.602 16.9158 17.5924 17.0396C17.5671 17.3485 19.3614 19.0839 19.6018 19.5466C19.8421 20.0093 19.7003 20.5753 19.7376 21.0873L19.4984 21.1461C19.3121 20.8024 18.4805 19.6631 18.1704 19.5261C17.9 19.4072 17.6236 19.6499 17.596 19.9095C18.3663 21.3529 20.157 22.14 19.7364 24.0184C19.4551 24.0965 19.5333 23.9451 19.4624 23.8658C19.0477 23.4007 17.9156 21.5451 17.5984 22.8635L19.7376 25.5159V28.0889H19.7388Z" fill="#427449"/>
<path d="M13.0075 12.6483C12.808 12.0474 14.0146 10.5079 14.5193 11.2085C14.5734 11.2842 14.4352 12.7384 14.446 13.0713C14.458 13.4787 14.6503 13.8909 14.5722 14.3236C12.0749 13.9426 10.9981 15.6035 11.9367 17.8364C10.0114 18.9096 11.4608 21.4935 12.2251 22.944C13.225 24.8405 14.8763 27.0578 16.7739 28.1093L18.2954 28.8052C15.4832 29.358 12.6073 28.1586 10.2542 26.702C9.23263 26.0699 7.08623 24.8104 9.04155 23.8394C6.56465 22.3443 6.07672 20.4046 9.52227 20.0669C8.91657 19.2016 6.96125 17.1502 6.88193 16.1635C6.79059 15.0182 8.1342 15.0951 8.92137 15.279C8.56925 14.4762 8.21712 13.5616 8.09454 12.6915C7.4011 7.77381 11.2649 11.0619 13.0063 12.6459L13.0075 12.6483Z" fill="#427449"/>
<path d="M31.2757 15.2802C35.5746 14.588 31.7829 18.7233 30.6748 20.0104C34.1084 20.5056 33.6553 22.289 31.1556 23.8406C32.5629 24.4547 31.8538 25.3536 30.9525 26.0326C28.5381 27.8497 24.9579 29.3928 21.9017 28.8064L23.8619 27.8281C25.6117 26.6155 26.9252 24.8849 27.9311 23.0233C28.4563 22.0499 29.3348 20.3782 29.2327 19.2918C29.1486 18.3916 28.3446 17.9458 28.3157 17.7403C28.2821 17.4963 28.6282 16.6755 28.6342 16.2945C28.6618 14.5916 27.067 14.1241 25.6261 14.326C25.5636 13.9378 25.7379 13.5724 25.7523 13.1939C25.7655 12.8418 25.6201 11.2914 25.679 11.2109C26.203 10.4826 27.3375 12.0798 27.2497 12.6495C27.972 11.9116 28.7952 11.1701 29.7122 10.6725C30.2674 10.3721 31.2649 9.80122 31.8214 10.2531C32.6722 10.9429 31.8274 14.38 31.2769 15.2826L31.2757 15.2802Z" fill="#427449"/>
<path d="M20.4597 29.0467V32.8167C20.4597 32.8384 20.2061 33.0943 20.1424 33.1064C20.0187 33.1436 19.7386 32.848 19.7386 32.8167V29.0467H20.4597Z" fill="#427449"/>
</g>
<defs>
<filter id="filter0_g_2004_136" x="-0.5" y="-0.5" width="41" height="41" filterUnits="userSpaceOnUse" color-interpolation-filters="sRGB">
<feFlood flood-opacity="0" result="BackgroundImageFix"/>
<feBlend mode="normal" in="SourceGraphic" in2="BackgroundImageFix" result="shape"/>
<feTurbulence type="fractalNoise" baseFrequency="0.99900001287460327 0.99900001287460327" numOctaves="3" seed="3145" />
<feDisplacementMap in="shape" scale="1" xChannelSelector="R" yChannelSelector="G" result="displacedImage" width="100%" height="100%" />
<feMerge result="effect1_texture_2004_136">
<feMergeNode in="displacedImage"/>
</feMerge>
</filter>
</defs>
</svg>
