<svg width="40" height="40" viewBox="0 0 40 40" fill="none" xmlns="http://www.w3.org/2000/svg">
<g filter="url(#filter0_g_2004_139)">
<path d="M35.8429 18.3707V18.6229C33.8418 22.0117 29.7876 23.554 26.1492 24.5577C25.992 23.3601 25.5421 21.9521 24.309 21.4642C24.0175 21.3489 22.6412 21.2614 22.9162 20.8977C25.3672 19.7267 27.9019 19.0778 30.619 18.8497L30.7191 17.9842C30.42 17.5634 27.324 18.1616 26.7169 18.3073C25.3393 18.6356 24.0099 19.1742 22.7299 19.7635L22.024 18.3048C22.024 18.0602 22.4917 17.846 22.7046 17.7193C26.8867 15.2265 31.9991 15.2987 35.8429 18.3719V18.3707Z" fill="#427449"/>
<path d="M4.16 19.1285C6.31317 16.6015 9.8832 15.8424 13.0768 16.2428L13.2669 16.4317L13.5369 18.2439C12.1694 18.2984 10.8058 17.9879 9.43457 18.1349C8.45874 18.2401 7.77565 18.7825 8.92638 19.3452C9.81603 19.2312 10.8096 19.2033 11.7056 19.2489C12.1162 19.2704 13.4583 19.3706 13.7409 19.4935C14.206 19.6975 14.4645 20.7747 14.808 21.2082C14.8118 21.2918 13.5407 21.6593 13.3252 21.7556C12.7499 22.0142 11.5244 22.9368 11.0859 22.9102C10.565 22.8772 9.44597 22.4793 8.9099 22.2854C7.07736 21.6264 5.50716 20.6455 4.16 19.254V19.1272L4.16 19.1285Z" fill="#427449"/>
<path d="M18.8609 22.4109C17.9269 23.1168 16.8496 23.6288 15.9042 24.3245C14.7865 25.147 13.2834 26.503 12.5484 27.6715C12.2125 28.2038 11.7512 28.7829 12.6181 29.082C13.0768 29.1428 13.874 27.7361 14.2326 27.3306C15.5557 25.839 17.3616 24.6147 19.1118 23.6718C18.8875 24.6223 19.0941 25.6197 19.5085 26.4967C20.0015 27.5384 20.5173 27.309 19.9812 28.6397C18.3121 32.775 12.0009 32.9967 8.21289 33.1387C8.4258 27.233 11.954 20.7697 18.8583 22.4109H18.8609Z" fill="#427449"/>
<path d="M23.783 15.9526L21.204 17.3391L19.9316 16.3493C19.9899 15.4989 20.0381 14.6283 20.1446 13.7804C20.251 12.9326 20.5932 11.8351 20.6236 11.0975C20.6477 10.5298 20.0774 10.194 19.6718 10.5323C19.2663 10.8707 18.8912 14.9514 18.8595 15.7207L15.4301 14.6295C15.7673 12.01 17.3058 9.45257 19.3778 7.84309C19.5907 7.67707 20.6857 6.92682 20.8543 6.90147C21.2775 6.83557 22.0734 7.95208 22.3117 8.30819C23.816 10.5678 24.1949 13.3001 23.7843 15.9539L23.783 15.9526Z" fill="#427449"/>
<path d="M21.7592 21.3844L21.1585 21.5162C20.7694 20.5606 18.3489 18.0564 17.4022 18.0057C16.9434 17.9804 16.7077 18.5012 16.8914 18.8751C16.9624 19.0208 18.5352 20.022 18.8621 20.3249C19.2487 20.6835 19.5376 21.1246 19.8747 21.5238C18.6771 21.2247 17.4326 20.9852 16.202 21.0878C14.8485 19.671 14.4354 17.6052 14.2985 15.7182C17.4643 16.0173 21.8568 17.5875 21.7605 21.3831L21.7592 21.3844Z" fill="#427449"/>
<path d="M24.6893 29.7309C22.7743 28.7183 19.0801 25.9125 20.4387 23.4133C20.5122 23.2777 20.6098 23.0014 20.8163 23.0471C21.5362 23.208 22.4562 25.8453 22.8516 26.1989C23.2724 26.5765 23.8642 26.2382 23.8034 25.6425C23.7172 24.7947 22.3701 23.1751 21.9024 22.4121C26.1479 21.4439 25.1493 27.252 24.6893 29.7321V29.7309Z" fill="#427449"/>
<path d="M31.4074 30.2365C29.5609 30.2302 27.627 29.8563 26.1467 28.7221L26.2114 25.6919C27.5902 25.9809 28.4228 27.4902 29.3366 28.4585C29.86 28.7639 30.4112 28.006 29.9918 27.5422L27.9843 25.2522L30.0678 24.4221C30.154 24.4272 30.7889 25.7008 30.87 25.9112C31.0246 26.3154 31.4074 27.5346 31.4074 27.9009V30.2365Z" fill="#427449"/>
</g>
<defs>
<filter id="filter0_g_2004_139" x="-0.5" y="-0.5" width="41" height="41" filterUnits="userSpaceOnUse" color-interpolation-filters="sRGB">
<feFlood flood-opacity="0" result="BackgroundImageFix"/>
<feBlend mode="normal" in="SourceGraphic" in2="BackgroundImageFix" result="shape"/>
<feTurbulence type="fractalNoise" baseFrequency="0.99900001287460327 0.99900001287460327" numOctaves="3" seed="3145" />
<feDisplacementMap in="shape" scale="1" xChannelSelector="R" yChannelSelector="G" result="displacedImage" width="100%" height="100%" />
<feMerge result="effect1_texture_2004_139">
<feMergeNode in="displacedImage"/>
</feMerge>
</filter>
</defs>
</svg>
