<svg width="40" height="40" viewBox="0 0 40 40" fill="none" xmlns="http://www.w3.org/2000/svg">
<g filter="url(#filter0_g_2004_159)">
<path d="M33.017 24.535C32.5908 25.0739 31.8319 25.4391 31.2004 25.7065C29.2921 26.5137 27.8239 26.539 25.9219 25.7065C25.6388 25.5823 25.2894 25.1612 24.9484 25.317C22.7707 27.2147 20.9688 28.1515 20.6477 31.2975C20.5867 31.8953 20.8624 33.4709 19.672 33.1099C18.9553 32.892 19.2331 31.8458 19.1774 31.2975C18.8563 28.1504 17.0534 27.2137 14.8767 25.317C14.5357 25.1612 14.1863 25.5823 13.9031 25.7065C12.0012 26.5379 10.5319 26.5137 8.62471 25.7065C5.64922 24.4466 6.7849 23.5425 9.00994 22.332C8.68892 21.5195 7.25432 19.226 7.9132 18.4588C8.48788 17.7893 11.0845 18.6703 11.8402 18.9798C12.0612 18.1977 12.879 15.779 13.9905 16.5695C14.7767 17.1284 15.8535 18.9861 16.0882 19.9228C16.4566 21.3942 16.1934 22.7046 15.7661 24.1161L19.1795 27.0526V19.2945C19.3605 19.3723 19.3489 19.5681 19.6026 19.6534C19.9468 19.7691 20.1162 19.7407 20.4151 19.5407C20.5541 19.4481 20.493 19.2776 20.6467 19.2945V27.0526L24.0927 24.054C23.3264 22.1279 23.3591 20.2754 24.3663 18.4535C24.6242 17.9883 25.6683 16.4568 26.1725 16.3769C27.0197 16.2442 27.8375 18.284 27.986 18.9798C28.7417 18.6703 31.3383 17.7893 31.9129 18.4588C32.5718 19.226 31.1372 21.5195 30.8162 22.332C31.6582 22.6657 32.4445 23.3088 33.0181 24.0108V24.535H33.017Z" fill="#427449"/>
<path d="M20.2278 6.92305C21.2666 8.01978 21.9803 9.43438 22.3255 10.9069C25.4799 9.99853 27.1903 9.23861 25.7883 13.374C24.7852 16.3337 22.7223 17.1452 20.6478 19.1881V14.5233C20.6478 14.3707 20.0889 14.0708 19.8773 14.0823C19.6984 14.0918 19.1795 14.3928 19.1795 14.5233V19.1881C17.105 17.1452 15.042 16.3326 14.0389 13.374C13.7758 12.5962 12.9443 10.2196 14.3063 10.1659C15.3272 10.1259 16.5092 10.7174 17.5018 10.9069C17.8459 9.43438 18.5606 8.01873 19.5994 6.92305H20.2289H20.2278Z" fill="#427449"/>
</g>
<defs>
<filter id="filter0_g_2004_159" x="-0.5" y="-0.5" width="41" height="41" filterUnits="userSpaceOnUse" color-interpolation-filters="sRGB">
<feFlood flood-opacity="0" result="BackgroundImageFix"/>
<feBlend mode="normal" in="SourceGraphic" in2="BackgroundImageFix" result="shape"/>
<feTurbulence type="fractalNoise" baseFrequency="0.99900001287460327 0.99900001287460327" numOctaves="3" seed="3145" />
<feDisplacementMap in="shape" scale="1" xChannelSelector="R" yChannelSelector="G" result="displacedImage" width="100%" height="100%" />
<feMerge result="effect1_texture_2004_159">
<feMergeNode in="displacedImage"/>
</feMerge>
</filter>
</defs>
</svg>
