<svg width="40" height="40" viewBox="0 0 40 40" fill="none" xmlns="http://www.w3.org/2000/svg">
<g filter="url(#filter0_g_2004_151)">
<path d="M20.3147 6.92195C20.6578 7.11244 21.2619 7.60182 21.2619 8.0228V11.2201L22.5238 9.06997C23.6194 8.08173 25.2296 9.05524 24.5255 10.4865C25.0275 9.95086 25.7526 9.72669 26.3157 10.3276C27.1776 11.2454 26.0189 12.241 25.4685 12.9482C24.5497 14.129 22.7921 16.5349 21.7881 17.4579C21.5829 17.6473 21.2619 17.6905 21.2619 17.7199V19.8164L22.1123 17.7273L22.9458 17.9304L22.3659 19.7112C23.0163 19.1934 24.416 16.8412 25.0549 16.6244C25.6032 16.4391 26.2378 16.6338 26.5093 17.1558C26.8524 17.8168 26.4536 18.2114 26.0978 18.7103C24.957 20.3079 23.2573 22.3075 21.947 23.7999C21.806 23.9609 21.2619 24.3303 21.2619 24.3756V26.3152L22.1049 24.2187L22.9458 24.5345L22.2607 26.4194C22.9679 25.7921 24.3708 23.3863 25.1728 23.1347C26.2557 22.7958 26.9682 23.9388 26.3588 24.9449C25.2348 26.7993 22.9858 28.6653 21.7892 30.5607C21.7197 30.7312 21.3156 30.7807 21.2787 30.8386C21.0988 31.1206 21.4776 32.6614 21.1072 33.0266C20.9146 33.216 18.6308 33.2371 18.6308 32.8666V30.9796C18.6308 30.9354 18.0867 30.5649 17.9457 30.4039C16.6185 28.8926 14.9652 26.9298 13.7938 25.3143C13.677 25.1533 13.3991 24.8555 13.3434 24.7155C12.8214 23.422 14.2432 22.498 15.2146 23.4799L17.5257 26.3141L16.9448 24.685L17.0522 24.4808L17.6331 24.2324C17.8815 24.2503 18.2982 26.1247 18.6308 26.3141V24.3229C18.6308 24.2903 18.2477 24.1756 18.0635 23.9967C16.9732 22.9421 15.4114 20.8152 14.4242 19.5501C14.1801 19.2376 13.4812 18.4735 13.3613 18.1978C12.915 17.1748 13.7517 16.2108 14.8157 16.6444C15.5124 16.9285 16.8848 19.2155 17.5268 19.8143L16.9395 17.9915L17.7878 17.7189L18.6319 19.8143V17.8747C18.6319 17.8305 18.0878 17.46 17.9467 17.299C16.6196 15.7877 14.9662 13.8249 13.7949 12.2094C13.4865 11.7842 13.2497 11.6411 13.255 11.0601C13.2665 9.91087 14.4884 9.65092 15.263 10.3792C14.9378 9.39412 15.3956 8.63742 16.4765 8.6953C17.6657 8.75845 17.8941 10.5118 18.6319 11.218V7.81126C18.6319 7.59761 19.3444 7.00825 19.5791 6.91984H20.3158L20.3147 6.92195Z" fill="#427449"/>
</g>
<defs>
<filter id="filter0_g_2004_151" x="-0.5" y="-0.5" width="41" height="41" filterUnits="userSpaceOnUse" color-interpolation-filters="sRGB">
<feFlood flood-opacity="0" result="BackgroundImageFix"/>
<feBlend mode="normal" in="SourceGraphic" in2="BackgroundImageFix" result="shape"/>
<feTurbulence type="fractalNoise" baseFrequency="0.99900001287460327 0.99900001287460327" numOctaves="3" seed="3145" />
<feDisplacementMap in="shape" scale="1" xChannelSelector="R" yChannelSelector="G" result="displacedImage" width="100%" height="100%" />
<feMerge result="effect1_texture_2004_151">
<feMergeNode in="displacedImage"/>
</feMerge>
</filter>
</defs>
</svg>
