<svg width="40" height="40" viewBox="0 0 40 40" fill="none" xmlns="http://www.w3.org/2000/svg">
<g filter="url(#filter0_g_2004_147)">
<path d="M27.0604 6.92297C27.9404 7.92416 29.0206 8.93801 28.8172 10.4124C28.7582 10.8413 28.5242 11.1438 28.4262 11.5411C28.8235 11.4431 29.126 11.2091 29.5549 11.1501C31.0293 10.9467 32.0432 12.027 33.0444 12.9069V13.4318C31.5911 14.7776 30.2726 15.8968 28.2871 14.6733C28.0795 14.5457 27.3355 13.8418 27.2332 13.8597L25.4869 15.6355C26.4765 15.5522 27.4356 16.1719 28.1607 16.7947C28.5495 17.1288 29.263 17.6747 28.8141 18.2312C28.6244 18.4652 27.6316 19.2651 27.3439 19.4358C25.4068 20.5898 24.1148 19.8489 22.6003 18.4746L20.5537 20.5181C21.5559 20.5445 22.3759 20.9903 23.122 21.6226C23.5467 21.982 24.2781 22.5437 23.9177 23.1212C23.1357 23.7652 22.4876 24.4934 21.4769 24.8001C19.8655 25.2891 18.8285 24.3722 17.665 23.4227L15.6194 25.4514C16.2644 25.4704 16.7038 25.601 17.2634 25.9056C17.7103 26.1491 19.0656 27.1808 19.0898 27.6519C19.1077 28.0081 18.3289 28.6752 18.0243 28.906C16.8377 29.8029 15.7954 30.1876 14.3716 29.5331C13.7498 29.2475 13.3019 28.7206 12.7465 28.3454L8.05667 33.0036C7.30208 33.5263 6.44317 32.6589 6.96379 31.9107L11.622 27.2209C10.2435 25.6643 9.49628 24.3016 10.7462 22.3635C10.859 22.1896 11.8138 21.043 11.9118 20.984C12.4883 20.6351 13.0068 21.3138 13.3619 21.7227C14.0396 22.5026 14.4106 23.1455 14.4633 24.192C14.4696 24.3269 14.419 24.4038 14.5676 24.2963C15.2315 23.8136 15.8913 22.8514 16.5436 22.3024C15.5941 21.1389 14.6772 20.1029 15.1662 18.4905C15.4729 17.4798 16.2011 16.8327 16.845 16.0496C17.4226 15.6892 17.9843 16.4217 18.3437 16.8453C18.976 17.5915 19.4218 18.4114 19.4482 19.4137L21.4916 17.367C20.1248 15.8547 19.3649 14.55 20.5305 12.6235C20.7076 12.3305 21.4959 11.3472 21.7351 11.1533C22.2915 10.7043 22.8375 11.4189 23.1715 11.8067C23.7944 12.5318 24.413 13.4908 24.3308 14.4804L26.1066 12.7341C26.1245 12.6319 25.4205 11.8878 25.293 11.6802C24.0695 9.6947 25.1876 8.37523 26.5345 6.92297H27.0593H27.0604Z" fill="#427449"/>
</g>
<defs>
<filter id="filter0_g_2004_147" x="-0.5" y="-0.5" width="41" height="41" filterUnits="userSpaceOnUse" color-interpolation-filters="sRGB">
<feFlood flood-opacity="0" result="BackgroundImageFix"/>
<feBlend mode="normal" in="SourceGraphic" in2="BackgroundImageFix" result="shape"/>
<feTurbulence type="fractalNoise" baseFrequency="0.99900001287460327 0.99900001287460327" numOctaves="3" seed="3145" />
<feDisplacementMap in="shape" scale="1" xChannelSelector="R" yChannelSelector="G" result="displacedImage" width="100%" height="100%" />
<feMerge result="effect1_texture_2004_147">
<feMergeNode in="displacedImage"/>
</feMerge>
</filter>
</defs>
</svg>
