<svg width="40" height="40" viewBox="0 0 40 40" fill="none" xmlns="http://www.w3.org/2000/svg">
<g filter="url(#filter0_g_2004_155)">
<path d="M6.8984 24.6436C7.44 19.5961 12.5558 18.4594 16.0572 16.018C17.2863 15.1605 18.3936 14.1749 19.4485 13.1149C20.4802 13.5683 21.491 13.8359 22.633 13.7289C22.6277 14.4625 21.7629 17.5221 22.5511 17.8569C22.7946 17.9609 23.1357 17.9514 23.395 17.901C24.3753 17.7142 25.7167 16.7559 26.7222 16.4568C26.9521 17.689 27.8369 18.599 28.6871 19.446C26.4966 23.5731 24.0038 28.0192 20.2116 30.8793C18.7988 31.9447 16.8675 32.9712 15.0811 33.1454H13.2978C10.6801 32.6678 8.5809 31.02 7.5439 28.565C7.23531 27.8355 7.06634 27.0924 6.89945 26.323C6.94039 25.7825 6.84278 25.1726 6.89945 24.6436H6.8984Z" fill="#7553C4"/>
<path d="M31.6522 6.9054H33.1206V7.95499C32.7595 8.61624 32.1906 8.38848 31.627 8.50708C30.8398 8.67187 30.1187 9.119 29.5593 9.68788C30.633 10.8477 31.0686 12.315 30.9175 13.8852C30.8744 14.3303 30.6698 14.8068 30.6162 15.2634C30.4798 16.4169 30.4116 17.6208 30.6026 18.7669C29.6968 18.3439 28.7595 17.4822 28.3501 16.5617C27.9775 15.722 28.0961 14.3901 26.824 14.7239C25.9329 14.9579 24.8172 15.7577 23.8925 16.039C23.7371 15.8238 24.4225 13.2513 24.2892 12.6509C24.1034 11.8123 22.8534 12.2731 22.2635 12.2689C21.1499 12.2594 19.8305 11.7157 19.0664 10.897C19.8683 10.6777 20.6492 10.389 21.3965 10.0259C22.676 9.40345 23.7319 8.30241 25.2045 8.16807C26.3087 8.06835 27.3814 8.23 28.3512 8.7674C28.9936 8.11035 29.5929 7.57505 30.4714 7.24548L31.6543 6.90645L31.6522 6.9054Z" fill="#2F4C33"/>
</g>
<defs>
<filter id="filter0_g_2004_155" x="-0.5" y="-0.5" width="41" height="41" filterUnits="userSpaceOnUse" color-interpolation-filters="sRGB">
<feFlood flood-opacity="0" result="BackgroundImageFix"/>
<feBlend mode="normal" in="SourceGraphic" in2="BackgroundImageFix" result="shape"/>
<feTurbulence type="fractalNoise" baseFrequency="0.99900001287460327 0.99900001287460327" numOctaves="3" seed="3145" />
<feDisplacementMap in="shape" scale="1" xChannelSelector="R" yChannelSelector="G" result="displacedImage" width="100%" height="100%" />
<feMerge result="effect1_texture_2004_155">
<feMergeNode in="displacedImage"/>
</feMerge>
</filter>
</defs>
</svg>
