<svg width="40" height="40" viewBox="0 0 40 40" fill="none" xmlns="http://www.w3.org/2000/svg">
<g filter="url(#filter0_g_2004_156)">
<path d="M34.5228 19.9793C34.5228 20.2057 34.5001 20.4329 34.4371 20.6504C33.3888 24.2674 29.2068 26.1009 25.8888 24.6651C25.37 24.4407 25.5756 23.7908 26.1408 23.7908C26.393 23.7908 27.5349 23.4183 27.8473 23.3003C30.728 22.2171 33.0505 19.4402 33.0324 16.2866C33.0312 16.0762 33.1546 15.9034 33.2838 16.0694C33.3907 16.2055 33.4897 16.3781 33.5881 16.5465C33.7063 16.749 33.8153 16.9576 33.8987 17.1767L34.3265 18.3003C34.4563 18.6413 34.5228 19.003 34.5228 19.3678V19.9793Z" fill="#427449"/>
<path d="M5.6173 18.8166C5.61768 18.8162 5.61791 18.8157 5.61798 18.8152C5.71207 18.0769 6.38972 16.665 6.85581 16.0706C6.98632 15.9054 7.10924 16.0771 7.10875 16.2876C7.10122 19.4606 9.38745 22.208 12.2923 23.3014C12.6046 23.4195 13.7465 23.792 13.9987 23.792C14.565 23.792 14.7711 24.4424 14.2513 24.6671C10.9793 26.0814 6.84641 24.3086 5.74092 20.7802C5.64679 20.4798 5.63473 20.161 5.62355 19.8463C5.61112 19.4967 5.57651 19.1353 5.61663 18.8179C5.61669 18.8174 5.61693 18.8169 5.6173 18.8166Z" fill="#427449"/>
<path d="M24.6553 8.67541C25.0302 9.05026 25.4363 9.62526 25.6422 10.117C31.4049 10.663 33.6933 18.0825 28.3575 21.1495C25.6607 22.6998 22.3449 22.4418 20.0287 20.3281C16.9362 23.3801 10.9352 22.4858 9.26225 18.3509C7.66799 14.4104 10.4423 10.5381 14.4986 10.117C16.2907 6.4159 21.8139 5.83397 24.6542 8.67541H24.6553Z" fill="#427449"/>
<path d="M22.847 28.3017L24.5408 25.9971L26.3143 26.623C24.9977 27.8216 24.1208 29.4124 23.4509 31.0472C23.1802 31.7078 23.1316 32.9457 22.331 33.051C21.6519 33.1401 18.4356 33.1597 17.8189 33.0429C17.1225 32.9098 16.9188 31.348 16.6585 30.7336C16.0292 29.2458 15.1094 27.7453 13.9455 26.6242L15.6751 25.8722L17.2949 28.0704L17.0056 24.9408C17.7194 24.6412 18.0457 23.6948 18.5721 23.2725C18.7063 23.1638 20.0125 22.5031 20.1213 22.5124C20.5181 22.8086 21.2169 22.9891 21.5709 23.2725C22.0973 23.6948 22.4236 24.6412 23.1374 24.9408L22.8482 28.3006L22.847 28.3017Z" fill="#427449"/>
</g>
<defs>
<filter id="filter0_g_2004_156" x="-0.5" y="-0.5" width="41" height="41" filterUnits="userSpaceOnUse" color-interpolation-filters="sRGB">
<feFlood flood-opacity="0" result="BackgroundImageFix"/>
<feBlend mode="normal" in="SourceGraphic" in2="BackgroundImageFix" result="shape"/>
<feTurbulence type="fractalNoise" baseFrequency="0.99900001287460327 0.99900001287460327" numOctaves="3" seed="3145" />
<feDisplacementMap in="shape" scale="1" xChannelSelector="R" yChannelSelector="G" result="displacedImage" width="100%" height="100%" />
<feMerge result="effect1_texture_2004_156">
<feMergeNode in="displacedImage"/>
</feMerge>
</filter>
</defs>
</svg>
