<svg width="40" height="40" viewBox="0 0 40 40" fill="none" xmlns="http://www.w3.org/2000/svg">
<g filter="url(#filter0_g_2004_158)">
<path d="M25.0136 23.8543C25.0581 24.0394 24.9836 24.0466 24.8862 24.1451C24.48 24.5574 23.4849 25.2027 22.9657 25.5825C20.0105 27.7422 16.8581 29.635 13.6409 31.3752C12.8789 31.5591 11.9319 29.8165 11.248 30.159L11.0233 30.427C10.8815 30.9979 11.9235 31.4654 12.2467 31.7742C12.3465 31.8692 12.3573 31.8548 12.3237 32.023C10.9007 32.4653 9.15568 33.4255 7.62096 33.0806C6.33021 32.791 7.12582 30.1891 7.41425 29.3189C8.4358 26.2339 10.3815 23.4132 11.9667 20.6082L12.2119 20.6815C12.4282 21.2151 13.624 23.0659 14.1721 23.0166C15.2958 22.9157 13.6505 21.298 13.3969 20.911C13.2118 20.6298 12.653 19.8006 12.7299 19.523C12.8236 19.1864 14.0747 17.5135 14.38 17.0845C15.3438 15.7276 17.0276 13.2423 18.5022 12.5704C23.6099 10.2461 29.9531 16.8621 27.2298 21.8136C27.0723 22.0996 26.3332 23.0839 26.0844 23.1957C25.6362 23.3964 24.0858 22.346 23.6556 22.0299C23.1616 21.667 21.9262 20.3125 21.6582 20.1864C21.1678 19.9568 20.7556 20.4087 21.0561 20.9147C21.181 21.125 22.1906 22.0708 22.4418 22.2871C23.2001 22.9361 24.0606 23.5346 25.0112 23.8543H25.0136ZM16.0012 24.1091C15.8654 24.1427 15.7488 24.2906 15.6948 24.4191C15.5818 24.8193 16.5252 25.8577 16.9939 25.5981C17.7042 25.2424 16.4651 23.9937 16.0012 24.1091Z" fill="#C9722A"/>
<path d="M28.0073 9.19095C28.8931 8.02278 29.5685 6.93034 31.2354 7.5709C33.3914 8.39895 32.6235 11.1691 30.7595 11.8962C33.6871 11.7821 33.8385 16.0906 30.9385 16.0509C30.6249 16.0461 27.9256 15.5894 27.7706 15.4969C27.6155 15.4043 27.2466 14.6544 27.0459 14.4224C26.6685 13.9862 26.1048 13.4165 25.6746 13.0344C25.4234 12.812 24.5617 12.3289 24.4788 12.1919C24.3754 12.02 23.9175 9.21018 23.926 8.8917C23.9933 6.08186 28.2933 6.34145 28.0073 9.19095Z" fill="#C9722A"/>
</g>
<defs>
<filter id="filter0_g_2004_158" x="-0.5" y="-0.5" width="41" height="41" filterUnits="userSpaceOnUse" color-interpolation-filters="sRGB">
<feFlood flood-opacity="0" result="BackgroundImageFix"/>
<feBlend mode="normal" in="SourceGraphic" in2="BackgroundImageFix" result="shape"/>
<feTurbulence type="fractalNoise" baseFrequency="0.99900001287460327 0.99900001287460327" numOctaves="3" seed="3145" />
<feDisplacementMap in="shape" scale="1" xChannelSelector="R" yChannelSelector="G" result="displacedImage" width="100%" height="100%" />
<feMerge result="effect1_texture_2004_158">
<feMergeNode in="displacedImage"/>
</feMerge>
</filter>
</defs>
</svg>
