<svg width="40" height="40" viewBox="0 0 40 40" fill="none" xmlns="http://www.w3.org/2000/svg">
<g filter="url(#filter0_g_2004_157)">
<path d="M6.88 20.9695C7.25049 19.8863 8.61912 20.2264 9.54378 20.3523C15.7949 21.2046 20.8444 26.5962 21.049 32.9344C18.3894 32.437 16.4562 30.6181 15.2922 28.2492C15.0812 27.8189 14.8829 26.5888 14.1692 27.0506C13.5394 27.4579 14.3434 28.9178 14.6299 29.4363C15.5021 31.0148 16.77 32.1158 18.2163 33.1444H16.2221C15.6018 32.989 14.9626 33.0142 14.3287 32.8862C10.8914 32.1893 7.90017 29.2001 7.15918 25.7817C7.01539 25.1184 7.03324 24.4561 6.88 23.8043V20.9705V20.9695Z" fill="#79AF81"/>
<path d="M33.1189 20.9695V23.8033C32.9636 24.4236 32.9888 25.0627 32.8607 25.6967C32.1638 29.134 29.1747 32.1252 25.7563 32.8662C25.0929 33.01 24.4307 32.9922 23.7789 33.1454H22.2046L22.0051 30.8458C24.8967 30.3053 27.6339 28.0655 28.7307 25.3451C28.9217 24.8707 29.3206 24.1517 28.7485 23.8169C28.0044 23.3814 27.7609 24.8812 27.5101 25.385C26.4133 27.5859 24.1441 29.2841 21.7406 29.791L20.6523 27.0233C22.5583 23.649 25.9389 21.2056 29.7593 20.4982C30.7616 20.3124 32.6917 19.7751 33.1199 20.9726L33.1189 20.9695Z" fill="#79AF81"/>
<path d="M19.8945 6.90539C20.9377 7.07122 21.9317 7.3693 22.6779 8.16277C23.2825 8.8051 23.4819 10.0016 24.4664 10.1527C24.8305 10.2084 25.243 10.1202 25.6125 10.1611C27.9278 10.4162 28.5943 12.1983 29.2345 14.1473C27.7483 14.4538 27.3463 13.1303 26.2128 12.6045C25.3186 12.1899 24.9177 12.2833 24.036 12.2413C23.337 12.2078 23.04 11.5833 22.5677 11.2117C21.2579 10.18 19.6184 9.98164 18.1207 10.7489C17.4385 11.0984 16.6618 12.1878 16.0384 12.2371C15.1368 12.3085 14.7328 12.1647 13.784 12.6045C12.599 13.1545 11.9997 14.7792 10.8158 14.7813C10.5555 14.7813 10.6468 14.6448 10.6825 14.437C10.9711 12.7661 11.5704 10.8161 13.383 10.3154C14.1114 10.1139 14.9406 10.2797 15.5262 10.0446C16.2599 9.75074 16.4614 8.73898 17.004 8.16382C17.6369 7.49105 18.867 6.92533 19.7874 6.90644H19.8924L19.8945 6.90539Z" fill="#79AF81"/>
<path d="M31.6349 19.1706L29.2209 19.4456C28.2144 18.5219 27.0872 18.0266 25.7133 17.9216C25.4299 17.8996 25.1854 18.058 24.9303 17.9888C24.5472 17.8859 24.2596 17.0725 23.9847 16.7209C21.9695 14.1358 18.189 14.076 16.113 16.6107C15.8401 16.9445 15.4675 17.7631 15.2093 17.9142C14.8535 18.121 14.6499 17.8933 14.2847 17.9216C12.9108 18.0255 11.7836 18.523 10.777 19.4456L8.18358 19.0877C8.10381 17.4283 9.12398 16.2014 10.7372 15.854C11.0163 15.7941 11.3071 15.8456 11.6093 15.7815C12.8016 15.5265 13.2267 14.0571 14.3319 13.5712C15.1799 13.1986 15.8968 13.4368 16.6986 13.2091C17.7199 12.9194 18.0893 11.6589 19.4474 11.4448C21.9202 11.0554 22.0745 13.1251 23.7254 13.3088C24.5598 13.4022 25.0447 13.207 25.8833 13.6698C26.5099 14.0162 26.8636 14.7603 27.5574 15.0395C28.1766 15.2882 28.6415 15.1413 29.2618 15.2242C31.1426 15.4772 32.2793 17.4052 31.6359 19.1716L31.6349 19.1706Z" fill="#79AF81"/>
<path d="M27.8712 19.7111C27.9709 19.837 26.6799 20.2589 26.5414 20.3209C24.5934 21.1993 22.848 22.4189 21.4153 24.0111L19.9491 25.9024C18.5784 23.6826 16.5443 21.7965 14.1944 20.6347C13.6192 20.3502 12.9423 20.1771 12.386 19.9241C12.2821 19.8769 12.1404 19.8548 12.1289 19.71C12.6736 19.5001 13.1889 19.1863 13.783 19.1065C14.8073 18.969 15.5704 19.3878 16.3271 18.397C16.5359 18.1241 16.6147 17.7799 16.8067 17.5122C18.3842 15.3071 21.6179 15.3082 23.1954 17.5122C23.3875 17.7799 23.4662 18.1241 23.675 18.397C24.4318 19.3878 25.1916 18.969 26.2192 19.1065C26.8132 19.1863 27.3285 19.5001 27.8733 19.71L27.8712 19.7111Z" fill="#79AF81"/>
</g>
<defs>
<filter id="filter0_g_2004_157" x="-0.5" y="-0.5" width="41" height="41" filterUnits="userSpaceOnUse" color-interpolation-filters="sRGB">
<feFlood flood-opacity="0" result="BackgroundImageFix"/>
<feBlend mode="normal" in="SourceGraphic" in2="BackgroundImageFix" result="shape"/>
<feTurbulence type="fractalNoise" baseFrequency="0.99900001287460327 0.99900001287460327" numOctaves="3" seed="3145" />
<feDisplacementMap in="shape" scale="1" xChannelSelector="R" yChannelSelector="G" result="displacedImage" width="100%" height="100%" />
<feMerge result="effect1_texture_2004_157">
<feMergeNode in="displacedImage"/>
</feMerge>
</filter>
</defs>
</svg>
