<svg width="40" height="40" viewBox="0 0 40 40" fill="none" xmlns="http://www.w3.org/2000/svg">
<g filter="url(#filter0_g_2004_153)">
<path fill-rule="evenodd" clip-rule="evenodd" d="M32.4626 6.87988C32.5204 7.02473 32.7247 7.13406 32.7624 7.27051C32.8828 7.70625 31.7321 8.95755 31.4099 9.34375C30.9912 9.8464 30.5006 10.3243 30.0662 10.8154C31.6289 12.8317 30.9752 14.4743 29.7136 16.3594C26.6016 21.011 21.9712 25.7405 17.6082 29.2334C15.6779 30.7784 13.5108 32.6373 11.0505 33.1201H9.58178C6.74583 32.4715 7.01428 29.6765 8.23804 27.6309C9.25718 25.9263 12.394 24.1068 14.0398 22.7266C16.4182 20.7302 18.814 18.3354 20.8103 15.957C22.0583 14.4698 23.1491 12.6552 24.3845 11.2393C25.6388 9.80347 27.4589 9.40122 29.2117 10.1895L32.0427 6.87988H32.4626Z" fill="#375E3D"/>
</g>
<defs>
<filter id="filter0_g_2004_153" x="-0.5" y="-0.5" width="41" height="41" filterUnits="userSpaceOnUse" color-interpolation-filters="sRGB">
<feFlood flood-opacity="0" result="BackgroundImageFix"/>
<feBlend mode="normal" in="SourceGraphic" in2="BackgroundImageFix" result="shape"/>
<feTurbulence type="fractalNoise" baseFrequency="0.99900001287460327 0.99900001287460327" numOctaves="3" seed="3145" />
<feDisplacementMap in="shape" scale="1" xChannelSelector="R" yChannelSelector="G" result="displacedImage" width="100%" height="100%" />
<feMerge result="effect1_texture_2004_153">
<feMergeNode in="displacedImage"/>
</feMerge>
</filter>
</defs>
</svg>
