<svg width="40" height="40" viewBox="0 0 40 40" fill="none" xmlns="http://www.w3.org/2000/svg">
<g filter="url(#filter0_g_2004_144)">
<path d="M24.6401 10.1146L25.059 12.7751C24.7705 13.4619 22.7788 15.613 22.8343 16.1815C22.8512 16.3457 22.949 16.464 23.0806 16.5533L23.6455 16.4507C24.2587 15.7421 25.7905 12.9392 26.5594 12.693C27.5686 12.3695 28.4618 13.2845 28.1914 14.3274C28.0599 14.8356 27.3622 15.8206 27.3042 16.2165C27.2282 16.732 27.8366 16.948 28.2301 16.4085C28.6562 15.8254 29.0207 14.2707 29.2416 13.9943C29.2996 13.9218 30.7312 13.2929 30.9352 13.2205C31.0426 13.1819 31.0897 13.0431 31.1971 13.2386C31.3046 13.4342 31.3685 14.1234 31.3794 14.3781C31.4953 17.111 28.7359 21.5085 27.0954 23.6921C25.2015 26.2125 19.8986 31.9149 16.9726 32.8057C11.5008 34.4727 6.59639 29.0794 9.23028 23.8611C10.4458 21.4517 12.4544 21.0799 14.5319 19.7847C16.3063 18.679 18.2015 17.0229 19.5884 15.4633C21.2325 13.6152 22.273 11.0538 24.6401 10.1158V10.1146Z" fill="#56915F"/>
<path d="M25.8436 11.9192L25.5056 9.36622C25.6082 9.15498 25.7555 8.9727 25.9015 8.79164C26.2455 8.36312 27.5178 6.99065 27.9741 6.89649C28.7587 6.73474 30.0708 7.48434 30.6901 7.97201C31.6075 8.69386 31.2804 9.13445 31.2538 10.0555C31.2405 10.513 31.3407 11.941 31.0112 12.2174L29.1426 13.0008L28.9688 12.9441C28.2855 11.7527 27.0941 11.4497 25.8424 11.9168L25.8436 11.9192Z" fill="#2F4C33"/>
</g>
<defs>
<filter id="filter0_g_2004_144" x="-0.5" y="-0.5" width="41" height="41" filterUnits="userSpaceOnUse" color-interpolation-filters="sRGB">
<feFlood flood-opacity="0" result="BackgroundImageFix"/>
<feBlend mode="normal" in="SourceGraphic" in2="BackgroundImageFix" result="shape"/>
<feTurbulence type="fractalNoise" baseFrequency="0.99900001287460327 0.99900001287460327" numOctaves="3" seed="3145" />
<feDisplacementMap in="shape" scale="1" xChannelSelector="R" yChannelSelector="G" result="displacedImage" width="100%" height="100%" />
<feMerge result="effect1_texture_2004_144">
<feMergeNode in="displacedImage"/>
</feMerge>
</filter>
</defs>
</svg>
