<svg width="40" height="40" viewBox="0 0 40 40" fill="none" xmlns="http://www.w3.org/2000/svg">
<g filter="url(#filter0_g_2004_142)">
<path fill-rule="evenodd" clip-rule="evenodd" d="M21.5103 6.88281C22.0821 7.40128 21.4909 8.39969 21.4049 9.08496C23.3453 8.83309 25.1183 9.9413 25.2925 11.9668C25.5108 14.5095 24.9604 17.6662 25.315 20.124C25.4924 21.354 26.6961 22.144 27.2271 23.248C28.7435 26.3975 27.6859 29.6306 24.6246 31.2373C24.2352 31.4409 23.6999 31.55 23.3609 31.7578C23.0221 31.9655 22.7965 32.3358 22.3834 32.5625C21.8429 32.8595 21.2445 32.9261 20.6705 33.1055C20.2654 33.0729 19.8053 33.1506 19.4107 33.1055C17.9658 32.9396 17.7297 32.376 16.7203 31.7568C16.4118 31.568 15.927 31.4858 15.5943 31.3096C12.4889 29.6577 11.2879 26.6214 12.8306 23.3281C13.3607 22.1959 14.593 21.3287 14.7672 20.124C15.1228 17.6662 14.5724 14.5095 14.7896 11.9668C14.8704 11.0223 15.3044 10.2354 16.0621 9.67285C17.0166 9.30192 18.4468 8.9419 18.9898 9.08496C18.7371 8.71122 18.4138 7.40041 18.9898 6.87988H21.5084L21.5103 6.88281ZM25.398 28.2334C25.3725 27.9137 25.0182 27.7951 24.734 27.8789H24.733C24.2848 28.0122 23.5798 29.0956 24.4215 29.21C24.705 29.2482 25.42 28.5093 25.398 28.2334ZM24.2584 26.9883C24.5008 26.43 24.5374 24.5916 23.6832 24.833V24.832C23.105 25.2214 23.6778 25.9062 23.4459 26.5957C23.1812 27.3813 21.8361 27.474 21.6656 27.752C21.4421 28.1161 21.7072 28.5304 22.1636 28.4707C22.894 28.3752 23.958 27.6777 24.2584 26.9883ZM17.2857 13.5156C17.1115 13.3353 16.7775 13.4153 16.6275 13.5947C16.2634 16.1302 17.2102 19.8001 15.8629 22.0596C15.4946 22.6776 14.9248 23.0985 14.5396 23.7783C14.1545 24.4583 13.8048 25.4493 13.9537 26.2354C14.0198 26.5816 14.5309 26.6974 14.6978 26.4277C14.8426 26.1937 14.9266 25.0233 15.1617 24.5049C15.8407 23.0095 17.1319 22.5057 17.3912 20.4395C17.579 18.9439 17.5536 15.5978 17.4224 14.0635C17.4078 13.8966 17.4052 13.6393 17.2867 13.5166L17.2857 13.5156ZM23.5035 13.7314C23.4181 13.2796 22.7466 13.1865 22.6646 13.9395C22.5093 15.3688 22.5136 19 22.692 20.418C22.9522 22.4915 24.2519 22.9914 24.9205 24.4834C25.1104 24.9094 25.3041 26.3291 25.4185 26.4512H25.4175C25.4816 26.5183 25.6473 26.5662 25.7418 26.5547C26.5922 26.4514 25.9159 24.4738 25.6588 23.9551C25.2967 23.2236 24.6615 22.7573 24.2564 22.1045C22.8974 19.9163 23.747 16.2302 23.5035 13.7314Z" fill="#E99D47"/>
</g>
<defs>
<filter id="filter0_g_2004_142" x="-0.5" y="-0.5" width="41" height="41" filterUnits="userSpaceOnUse" color-interpolation-filters="sRGB">
<feFlood flood-opacity="0" result="BackgroundImageFix"/>
<feBlend mode="normal" in="SourceGraphic" in2="BackgroundImageFix" result="shape"/>
<feTurbulence type="fractalNoise" baseFrequency="0.99900001287460327 0.99900001287460327" numOctaves="3" seed="3145" />
<feDisplacementMap in="shape" scale="1" xChannelSelector="R" yChannelSelector="G" result="displacedImage" width="100%" height="100%" />
<feMerge result="effect1_texture_2004_142">
<feMergeNode in="displacedImage"/>
</feMerge>
</filter>
</defs>
</svg>
