<svg width="40" height="40" viewBox="0 0 40 40" fill="none" xmlns="http://www.w3.org/2000/svg">
<g filter="url(#filter0_g_2004_145)">
<path d="M12.6305 33.1198H10.3215C8.38027 32.6488 7.01026 31.1439 6.97338 29.0899C6.94176 27.3584 7.06822 25.0726 7.17361 23.3063C7.52349 17.4585 12.0498 9.82643 18.9062 11.9921C21.0086 12.656 25.0133 16.7555 26.5403 18.5281C29.5702 22.0448 29.0127 26.4626 25.5908 29.4429C21.9866 32.5824 17.5351 33.1915 12.8845 33.0102L12.6305 33.1198ZM18.5089 15.5288L17.2432 16.7956L18.3561 17.9064L19.6218 16.6396L18.5089 15.5288ZM13.2586 18.3195L14.4136 17.0085L13.404 16.0189L12.1141 17.2329C12.0898 17.3742 13.1226 18.4164 13.2596 18.3205L13.2586 18.3195ZM23.6496 20.5241C23.4789 20.405 22.4935 21.558 22.2943 21.7445L23.2987 22.8247L24.5939 21.6223L23.6496 20.5241ZM18.2992 20.7771L16.9776 22.0986L18.0336 23.1546L19.3551 21.833L18.2992 20.7771ZM12.5736 21.4621L11.3079 22.7288L12.4208 23.8396L13.6864 22.5728L12.5736 21.4621ZM23.0742 25.6638L21.7548 26.9832L22.8645 28.0929L24.1839 26.7735L23.0742 25.6638ZM17.2506 28.8159C17.4213 28.935 18.4067 27.782 18.6058 27.5955L17.6015 26.5153L16.3063 27.7178L17.2506 28.8159ZM10.6366 28.2932L11.7389 29.444L13.0489 28.134L11.9634 27.1445C11.721 27.1866 11.0392 28.2795 10.6366 28.2932Z" fill="#F04D4D"/>
<path d="M26.4867 12.5454C26.4867 12.5459 26.4872 12.5462 26.4876 12.546L26.7726 12.4049C26.7919 12.3953 26.8096 12.3827 26.8248 12.3674L28.0323 11.1586C28.4178 10.7727 29.0473 10.7865 29.4154 11.189C29.6154 11.4077 29.6414 11.683 29.4312 11.8919C28.9465 12.3738 28.0308 13.1743 27.8493 13.438C27.7491 13.5832 27.8737 13.6906 28.0501 13.6939C30.2598 13.7357 31.4666 15.9039 33.0006 17.215C33.2345 17.4574 32.5221 18.0391 32.3092 18.213C31.7073 18.7052 30.9307 19.0868 30.1461 19.1947C29.6851 19.2581 29.2484 19.0316 28.9201 18.7018L21.5034 11.2501C21.1431 10.8881 20.9131 10.398 20.9946 9.89373C21.0874 9.31953 21.2966 8.79403 21.5933 8.314C22.1583 7.39989 23.4576 7.48838 24.235 8.23042C25.4781 9.41718 26.6609 10.6736 26.4867 12.5454Z" fill="#F04D4D"/>
</g>
<defs>
<filter id="filter0_g_2004_145" x="-0.5" y="-0.5" width="41" height="41" filterUnits="userSpaceOnUse" color-interpolation-filters="sRGB">
<feFlood flood-opacity="0" result="BackgroundImageFix"/>
<feBlend mode="normal" in="SourceGraphic" in2="BackgroundImageFix" result="shape"/>
<feTurbulence type="fractalNoise" baseFrequency="0.99900001287460327 0.99900001287460327" numOctaves="3" seed="3145" />
<feDisplacementMap in="shape" scale="1" xChannelSelector="R" yChannelSelector="G" result="displacedImage" width="100%" height="100%" />
<feMerge result="effect1_texture_2004_145">
<feMergeNode in="displacedImage"/>
</feMerge>
</filter>
</defs>
</svg>
