<svg width="40" height="40" viewBox="0 0 40 40" fill="none" xmlns="http://www.w3.org/2000/svg">
<g filter="url(#filter0_g_2004_137)">
<path d="M16.242 33.1179C15.649 32.568 15.8555 31.8612 15.4194 31.1565C14.4271 29.5533 11.7663 30.5498 10.1821 29.0288C7.64876 26.5955 9.45842 21.9702 13.0598 22.3336C13.5781 23.1131 13.794 24.3055 13.5096 25.203C13.3695 25.6443 12.886 26.0731 13.3485 26.6092C14.1216 27.5056 14.9527 26.0172 15.1645 25.3831C16.4559 21.5131 11.5083 19.6571 11.187 16.1726C11.0511 14.6937 11.3387 13.3359 11.7126 11.9254C12.2235 12.0434 12.648 12.3678 13.1631 12.5258C14.0648 12.8018 16.8983 13.2695 16.5338 11.6863C16.3484 10.8816 15.3688 11.3166 14.8179 11.304C13.9868 11.285 13.0198 10.8489 12.3362 10.3991C15.5015 3.81566 24.3455 7.20009 21.7479 14.5272C21.3877 15.5448 21.4277 15.7481 20.2174 15.5711C19.3874 15.45 18.7574 14.4703 18.0812 15.0718C17.1142 15.9303 18.8291 16.8056 19.5274 16.9931C19.9772 17.1143 20.6977 17.0827 21.0169 17.1891C21.2981 17.2817 21.3361 18.0054 22.1819 17.9043C23.1057 17.7937 24.3423 15.7333 25.3083 15.135C28.3419 13.2558 31.8464 16.24 30.5856 19.5528C30.2211 20.5103 29.3342 21.1128 28.6716 21.8459C27.8553 21.7469 26.823 19.8593 26.034 20.8948C25.3662 21.7711 26.9136 22.5949 27.5108 22.9951L25.4652 25.2588C24.947 25.5748 24.0137 25.0313 23.6134 24.6752C23.1173 24.2349 22.895 23.2616 22.085 23.5629C21.9449 23.6145 21.729 23.7546 21.6679 23.8884C21.1802 24.9639 23.328 26.6945 24.3518 26.7209C23.8062 27.9765 23.2026 29.2658 23.0888 30.6562C23.0193 31.5136 23.4006 32.6186 22.5601 33.12H16.2399L16.242 33.1179Z" fill="#A18750"/>
</g>
<defs>
<filter id="filter0_g_2004_137" x="-0.5" y="-0.5" width="41" height="41" filterUnits="userSpaceOnUse" color-interpolation-filters="sRGB">
<feFlood flood-opacity="0" result="BackgroundImageFix"/>
<feBlend mode="normal" in="SourceGraphic" in2="BackgroundImageFix" result="shape"/>
<feTurbulence type="fractalNoise" baseFrequency="0.99900001287460327 0.99900001287460327" numOctaves="3" seed="3145" />
<feDisplacementMap in="shape" scale="1" xChannelSelector="R" yChannelSelector="G" result="displacedImage" width="100%" height="100%" />
<feMerge result="effect1_texture_2004_137">
<feMergeNode in="displacedImage"/>
</feMerge>
</filter>
</defs>
</svg>
