<svg width="40" height="40" viewBox="0 0 40 40" fill="none" xmlns="http://www.w3.org/2000/svg">
<g filter="url(#filter0_g_2004_146)">
<path d="M21.027 30.9976C21.1065 32.0042 23.2369 31.9335 23.1675 32.6929L22.9102 33.0776C22.0361 33.3198 21.2704 32.703 20.5868 32.2565C20.5565 32.8594 20.2828 33.4635 19.632 32.9628L19.4541 32.2565C18.7717 32.703 18.0048 33.3198 17.1307 33.0776L16.8734 32.6929L16.992 32.3082C17.6845 31.9726 18.7616 31.8591 19.0139 30.9976C16.3764 30.8059 13.329 28.8206 12.9973 26.0015C12.4348 21.2071 17.2115 19.4185 18.0767 15.2347C18.4299 13.5293 18.1045 10.4832 17.3452 8.8977C17.0122 8.2027 15.9955 7.4623 17.0727 7.0284C18.6746 7.44717 20.0406 8.75391 20.8756 10.1477C22.1067 12.2037 21.4306 14.2798 22.3855 16.5793C23.7919 19.966 27.4914 21.5653 27.0549 25.8892C26.7648 28.7701 23.7326 30.8072 21.027 30.9989V30.9976ZM17.9922 21.052C17.9128 20.9246 17.4385 20.8855 17.2606 20.9675C17.1244 21.0293 16.1734 22.2805 16.0245 22.5076C14.772 24.4374 14.4693 26.3849 16.5127 27.8998C16.8785 28.171 18.382 29.1069 18.6229 28.3917C18.8638 27.6765 17.8346 27.5088 17.3439 27.1922C15.4103 25.9447 16.0107 24.4109 17.0815 22.8103C17.359 22.3966 18.3429 21.6057 17.9947 21.052H17.9922Z" fill="#DABB0A"/>
<path d="M22.0007 6.93382C22.4308 6.87076 22.9455 6.88715 22.9127 7.46232C22.8925 7.82306 22.4901 8.09173 22.3388 8.41211C22.1344 8.84475 22.1041 9.3001 21.843 9.67724L20.4039 7.73856C20.4543 7.44593 21.7005 6.97671 21.9995 6.93256L22.0007 6.93382Z" fill="#DABB0A"/>
</g>
<defs>
<filter id="filter0_g_2004_146" x="-0.5" y="-0.5" width="41" height="41" filterUnits="userSpaceOnUse" color-interpolation-filters="sRGB">
<feFlood flood-opacity="0" result="BackgroundImageFix"/>
<feBlend mode="normal" in="SourceGraphic" in2="BackgroundImageFix" result="shape"/>
<feTurbulence type="fractalNoise" baseFrequency="0.99900001287460327 0.99900001287460327" numOctaves="3" seed="3145" />
<feDisplacementMap in="shape" scale="1" xChannelSelector="R" yChannelSelector="G" result="displacedImage" width="100%" height="100%" />
<feMerge result="effect1_texture_2004_146">
<feMergeNode in="displacedImage"/>
</feMerge>
</filter>
</defs>
</svg>
