<svg width="40" height="40" viewBox="0 0 40 40" fill="none" xmlns="http://www.w3.org/2000/svg">
<g filter="url(#filter0_g_2004_140)">
<path d="M22.3027 20.6981C22.1297 20.7041 21.9902 20.8123 21.8761 20.9337C20.5721 22.3181 17.9595 25.0979 17.1975 26.7107C16.42 28.3559 16.676 29.7848 14.8913 30.8941C10.9567 33.3385 6.62787 28.9087 9.15401 25.0366C10.1527 23.5067 11.197 23.6365 12.6873 23.0416C14.8673 22.1691 16.2277 20.3917 18.0688 19.0397L18.3657 19.0373L22.3039 20.6993L22.3027 20.6981Z" fill="#A7BFAB"/>
<path d="M25.1872 6.88C25.5309 9.01077 25.1115 11.2906 24.5875 13.3697L30.0809 7.97844C30.2743 7.90393 30.3849 7.98204 30.5423 8.07578C30.6265 8.12626 31.8751 9.37371 31.9244 9.45784C32.0374 9.65012 32.1107 9.78352 31.9785 10.0022L27.8227 14.1424C25.3314 14.6544 22.9819 15.4848 20.8944 16.9486C20.576 17.1721 19.2336 18.4075 19.1182 18.4148C19.0173 18.422 18.9367 18.3006 19.0569 18.1167C19.3345 17.6937 19.8549 17.237 20.189 16.725C21.5975 14.569 22.3113 11.4143 22.5409 8.86175C22.5817 8.40147 22.3222 6.88 22.9627 6.88H25.186H25.1872Z" fill="#427449"/>
<path d="M33.119 17.0351C33.107 17.0952 32.934 17.362 32.8787 17.3956C29.5353 17.5206 26.0466 17.9725 23.1971 19.8605L20.2624 18.7176C22.2958 16.7118 25.156 15.6278 27.9297 15.0906C29.1628 14.8514 31.6433 14.4765 32.8186 14.6916C32.9532 14.7156 33.0433 14.7529 33.119 14.8719C33.0289 15.5064 33.2416 16.4486 33.119 17.0351Z" fill="#427449"/>
<path d="M10.3849 32.0166C10.6529 32.442 10.3212 33.5128 9.61212 32.9696C9.29606 32.7184 9.49555 31.9036 9.44508 31.5166C9.57847 31.65 10.3572 31.9709 10.3849 32.0166Z" fill="#427449"/>
<path d="M7.98241 29.613C8.02808 29.6418 8.34896 30.4194 8.48235 30.5528C7.98121 30.5252 7.39114 30.691 6.97892 30.316C6.55229 29.601 7.62187 29.3859 7.98241 29.613Z" fill="#427449"/>
<path d="M8.66263 30.6778L9.3212 31.3364L8.66383 31.8363C8.45953 31.8363 8.16268 31.5371 8.16388 31.3364L8.66383 30.679L8.66263 30.6778Z" fill="#427449"/>
</g>
<defs>
<filter id="filter0_g_2004_140" x="-0.5" y="-0.5" width="41" height="41" filterUnits="userSpaceOnUse" color-interpolation-filters="sRGB">
<feFlood flood-opacity="0" result="BackgroundImageFix"/>
<feBlend mode="normal" in="SourceGraphic" in2="BackgroundImageFix" result="shape"/>
<feTurbulence type="fractalNoise" baseFrequency="0.99900001287460327 0.99900001287460327" numOctaves="3" seed="3145" />
<feDisplacementMap in="shape" scale="1" xChannelSelector="R" yChannelSelector="G" result="displacedImage" width="100%" height="100%" />
<feMerge result="effect1_texture_2004_140">
<feMergeNode in="displacedImage"/>
</feMerge>
</filter>
</defs>
</svg>
