<svg width="40" height="40" viewBox="0 0 40 40" fill="none" xmlns="http://www.w3.org/2000/svg">
<g filter="url(#filter0_g_2004_154)">
<path d="M23.5999 33.1126H22.2302C21.5548 32.9524 20.7624 32.591 20.0712 32.5805C19.3041 32.5689 18.5529 32.9609 17.8048 33.1126H16.435C12.6797 32.061 10.4375 27.6272 9.48924 24.1311C8.11316 19.0588 9.033 12.1552 15.7491 12.6493C17.0156 12.742 18.1367 13.3089 19.2546 13.4607C21.0216 13.7009 22.6801 12.7473 24.4903 12.643C30.5541 12.2932 31.8101 18.3075 30.7986 23.1238C30.0052 26.9023 27.6165 31.9757 23.5999 33.1126Z" fill="#B1C82F"/>
<path d="M22.2302 33.1126H17.8048C18.5529 32.9608 19.3041 32.5678 20.0712 32.5805C20.7624 32.591 21.5548 32.9535 22.2302 33.1126Z" fill="#B1C82F"/>
<path d="M17.9112 11.8085C15.9893 11.9012 13.9894 11.1299 13.2982 9.21329C13.1433 8.78339 12.7925 7.62647 13.352 7.42522C14.3698 7.05749 17.5329 7.34515 18.2346 8.28607C18.4707 8.60217 18.0808 9.36081 18.026 9.77279C17.9407 10.4197 17.9175 11.1541 17.9101 11.8095L17.9112 11.8085Z" fill="#B1C82F"/>
<path d="M20.6212 6.89945C21.2471 6.77301 21.7454 7.10491 22.0405 7.64123C22.6326 8.71597 21.4683 9.24491 21.3071 10.2069C21.1849 10.9318 21.3861 11.7147 21.2334 12.4428C20.4684 12.8263 19.5728 12.8284 18.8015 12.4428C18.6687 11.0857 18.7383 9.58945 19.3294 8.34296C19.5591 7.85828 20.0712 7.01219 20.6212 6.9005V6.89945Z" fill="#B1C82F"/>
</g>
<defs>
<filter id="filter0_g_2004_154" x="-0.5" y="-0.5" width="41" height="41" filterUnits="userSpaceOnUse" color-interpolation-filters="sRGB">
<feFlood flood-opacity="0" result="BackgroundImageFix"/>
<feBlend mode="normal" in="SourceGraphic" in2="BackgroundImageFix" result="shape"/>
<feTurbulence type="fractalNoise" baseFrequency="0.99900001287460327 0.99900001287460327" numOctaves="3" seed="3145" />
<feDisplacementMap in="shape" scale="1" xChannelSelector="R" yChannelSelector="G" result="displacedImage" width="100%" height="100%" />
<feMerge result="effect1_texture_2004_154">
<feMergeNode in="displacedImage"/>
</feMerge>
</filter>
</defs>
</svg>
