<svg width="40" height="40" viewBox="0 0 40 40" fill="none" xmlns="http://www.w3.org/2000/svg">
<g filter="url(#filter0_g_2004_141)">
<path d="M35.9 15.8954C35.9498 16.3144 35.9498 17.2585 35.9 17.6762C35.8502 18.094 35.5001 19.1415 35.3238 19.5823C34.7144 21.1063 33.4127 22.7109 32.0777 23.6562C31.4236 18.8899 25.7616 19.0138 22.1322 18.2524C19.1633 17.6302 16.3068 16.3514 13.2152 16.2748C15.9158 12.8983 20.8279 13.2816 24.7102 12.5483C27.5131 12.0181 32.5095 9.8962 34.602 12.6709C35.1284 13.3697 35.7965 15.0407 35.8987 15.8941L35.9 15.8954ZM23.9527 14.2729C23.6295 14.6 24.1711 16.7232 24.3653 17.169C24.7051 17.9458 25.5496 17.6481 25.5419 17.0004C25.5355 16.5073 24.8546 13.3608 23.9527 14.2729ZM32.5235 16.446C32.3766 16.446 31.9142 16.7973 31.7621 16.9148C31.5909 17.0477 30.3671 18.1719 30.307 18.2626C29.9557 18.7992 30.3735 19.4124 31.0531 19.1339C31.2664 19.0457 32.9477 17.4756 33.0332 17.2904C33.2159 16.9008 32.8838 16.4421 32.5222 16.4447L32.5235 16.446Z" fill="#C7A933"/>
<path d="M4.04147 12.8409C4.32252 10.2233 6.79453 7.01033 9.58078 6.85575C12.7643 6.67946 16.1472 10.0674 17.9344 12.3937C15.8125 12.7476 13.9805 13.6981 12.5152 15.2566C12.2482 15.5415 11.9633 16.1407 11.6874 16.3387C11.3118 16.607 10.1825 16.7756 9.60249 17.0554C8.22533 17.7222 7.03597 19.1096 6.71787 20.6017C6.43043 20.6503 6.31801 20.3667 6.18004 20.1865C5.26407 18.9882 4.19605 16.3617 4.04275 14.8772C3.99037 14.3637 3.98782 13.3532 4.04275 12.8409H4.04147ZM11.5213 10.3881C11.9403 9.88984 11.5788 9.25746 10.8902 9.43248C10.5811 9.51168 7.61724 11.2887 8.8411 11.8074C9.034 11.8649 9.21285 11.8253 9.39809 11.7665C9.52584 11.7256 11.4396 10.4852 11.5213 10.3881ZM6.36655 13.7632C6.11488 14.1439 6.20176 14.4505 6.54541 14.7303C6.71404 14.867 8.48083 15.9657 8.59709 15.995C9.33549 16.1828 9.68681 15.4955 9.1311 14.9462C9.01229 14.8287 7.12412 13.6572 7.00148 13.6265C6.77536 13.5703 6.55307 13.6342 6.36528 13.762L6.36655 13.7632Z" fill="#C7A933"/>
<path d="M12.5536 17.4603C15.4957 17.2393 18.5553 18.6331 21.371 19.268C25.9853 20.3092 32.5147 19.7994 30.7645 26.7363C29.6071 31.3251 23.774 33.2465 19.5186 33.0791C13.9141 32.8581 6.32823 28.8097 7.38601 22.2254C7.84847 19.3446 9.6421 17.6788 12.5536 17.4603ZM12.04 22.6687C11.9186 22.5435 11.5699 22.4822 11.3961 22.5295L11.1125 22.7658C10.9554 23.0839 11.5277 25.5993 11.7462 25.8229C12.0873 26.1704 12.6877 25.9136 12.7171 25.3757C12.7299 25.133 12.1422 22.7735 12.04 22.6687ZM22.1145 23.6779C21.4923 23.4774 19.4611 22.6483 18.9501 22.9561C18.5796 23.1797 18.7291 23.7661 19.0842 23.9692C19.1953 24.0331 21.4361 24.6629 21.5651 24.6616C21.7517 24.6603 21.9458 24.5556 22.0749 24.4214L22.1145 23.6779ZM21.9778 28.1275C21.7517 28.1582 19.7127 29.4944 19.5799 29.6912C19.2618 30.1626 19.7268 30.7643 20.2276 30.6033C20.3796 30.5548 22.3457 29.2415 22.4466 29.1201C22.5693 28.9745 22.6791 28.7803 22.628 28.5823C22.4811 28.3357 22.2857 28.0853 21.9765 28.1275H21.9778Z" fill="#C7A933"/>
</g>
<defs>
<filter id="filter0_g_2004_141" x="-0.5" y="-0.5" width="41" height="41" filterUnits="userSpaceOnUse" color-interpolation-filters="sRGB">
<feFlood flood-opacity="0" result="BackgroundImageFix"/>
<feBlend mode="normal" in="SourceGraphic" in2="BackgroundImageFix" result="shape"/>
<feTurbulence type="fractalNoise" baseFrequency="0.99900001287460327 0.99900001287460327" numOctaves="3" seed="3145" />
<feDisplacementMap in="shape" scale="1" xChannelSelector="R" yChannelSelector="G" result="displacedImage" width="100%" height="100%" />
<feMerge result="effect1_texture_2004_141">
<feMergeNode in="displacedImage"/>
</feMerge>
</filter>
</defs>
</svg>
