<svg width="40" height="40" viewBox="0 0 40 40" fill="none" xmlns="http://www.w3.org/2000/svg">
<g filter="url(#filter0_g_2004_150)">
<path d="M34.1712 16.3516V17.4928C33.8699 18.5838 33.2068 19.1795 32.295 19.7741C32.1604 20.7305 32.1432 21.6971 31.9755 22.6488C31.1378 27.4122 27.2144 31.3837 22.4635 32.2133C23.3776 29.786 23.5876 27.5629 25.6452 25.7655C26.0081 25.4482 26.4931 25.2086 26.8377 24.9084C28.7926 23.2 28.8896 20.3082 27.236 18.3499C30.0628 15.8221 28.6112 11.2721 24.981 10.5155C24.5142 8.69525 27.1721 8.58455 28.3396 9.02734C29.2263 9.36286 30.1781 10.3865 30.3709 11.3246C30.5204 12.0504 30.1781 13.3502 30.5318 13.7885C30.8468 14.1788 31.7803 14.043 32.3509 14.2438C33.3426 14.5942 33.8242 15.4227 34.1723 16.3528L34.1712 16.3516Z" fill="#56915F"/>
<path d="M19.4804 6.90925C21.4798 6.64563 23.3605 8.19654 23.3822 10.2473C23.3879 10.8305 22.9109 11.8941 23.7953 12.1052C24.2986 12.225 24.7699 12.1508 25.3382 12.3814C27.1539 13.1186 27.6126 15.7434 26.2181 17.098C25.8278 17.4769 25.0723 17.6412 25.0712 18.3487C25.0712 18.9445 25.7433 19.1773 26.0971 19.6075C26.9736 20.6711 26.961 22.0988 26.1473 23.1886C25.6931 23.7969 25.0118 24.0902 24.4561 24.5718C22.0527 26.6522 21.5848 29.7449 20.6695 32.639C20.3283 33.2792 19.6002 33.2815 19.2556 32.639C18.3335 29.7517 17.8713 26.6499 15.469 24.5718C14.7181 23.9213 13.8565 23.6326 13.4274 22.6271C12.9903 21.6012 13.1113 20.476 13.8268 19.6075C14.2103 19.1419 14.9167 18.9365 14.8459 18.2449C14.7832 17.6321 13.8953 17.3433 13.5016 16.8458C12.365 15.4079 12.8705 13.0786 14.5857 12.3814C15.1541 12.1508 15.6265 12.225 16.1287 12.1052C17.0131 11.8941 16.5349 10.8316 16.5418 10.2473C16.5589 8.61765 17.869 7.12152 19.4781 6.90925H19.4804ZM20.7585 14.7539V9.21906C20.7585 9.05359 20.1526 8.7272 19.9232 8.73975C19.7292 8.75002 19.1666 9.07755 19.1666 9.21906V14.7539C18.637 14.3363 17.8701 13.2122 17.1672 14.0589C16.3284 15.0689 18.6713 16.4852 19.1666 17.2075V20.0035C18.6108 19.8951 18.3825 19.0552 17.7549 19.0917C17.198 19.1236 16.9492 19.5288 16.9971 20.0617C17.053 20.6837 18.8093 21.8283 19.1163 22.5073C19.3902 23.8848 18.9223 25.8282 19.17 27.1326C19.3206 27.9303 20.5896 27.9714 20.7323 27.2285C20.9959 25.8499 20.5497 23.9441 20.8099 22.5073C21.0747 21.8819 22.8264 20.678 22.9188 20.1701C23.0216 19.6052 22.7648 19.1259 22.1714 19.0917C21.5437 19.0552 21.3154 19.8951 20.7597 20.0035V17.2075C21.2561 16.4852 23.5979 15.0678 22.7591 14.0589C22.0561 13.2122 21.2892 14.3363 20.7597 14.7539H20.7585Z" fill="#56915F"/>
<path d="M14.9452 10.5155C11.307 11.2801 9.8611 15.8119 12.6902 18.3499C11.0388 20.3219 11.1198 23.1875 13.0884 24.9084C13.4319 25.2086 13.9181 25.4482 14.281 25.7655C16.3374 27.5629 16.5474 29.786 17.4627 32.2133C13.0211 31.4601 9.16039 27.7934 8.10477 23.4066C7.82403 22.2414 7.75899 21.0466 7.66655 19.8529C7.25229 19.3827 6.64974 19.1647 6.27428 18.6261C5.2529 17.1608 5.80067 14.9411 7.49423 14.2735C8.26454 13.9699 9.58149 14.3237 9.59975 13.2145C9.61801 12.1052 9.25626 11.6339 9.9387 10.4505C10.7558 9.03421 12.4197 8.49556 13.9637 8.96346C14.8402 9.22822 15.1198 9.55803 14.9452 10.5132V10.5155Z" fill="#56915F"/>
</g>
<defs>
<filter id="filter0_g_2004_150" x="-0.5" y="-0.5" width="41" height="41" filterUnits="userSpaceOnUse" color-interpolation-filters="sRGB">
<feFlood flood-opacity="0" result="BackgroundImageFix"/>
<feBlend mode="normal" in="SourceGraphic" in2="BackgroundImageFix" result="shape"/>
<feTurbulence type="fractalNoise" baseFrequency="0.99900001287460327 0.99900001287460327" numOctaves="3" seed="3145" />
<feDisplacementMap in="shape" scale="1" xChannelSelector="R" yChannelSelector="G" result="displacedImage" width="100%" height="100%" />
<feMerge result="effect1_texture_2004_150">
<feMergeNode in="displacedImage"/>
</feMerge>
</filter>
</defs>
</svg>
