<svg width="40" height="40" viewBox="0 0 40 40" fill="none" xmlns="http://www.w3.org/2000/svg">
<g filter="url(#filter0_g_2004_148)">
<path d="M22.1156 15.6685L22.467 12.987C22.4761 12.6241 22.1783 12.4872 21.8896 12.3605L20.5192 21.5235L21.7162 22.4033C22.2228 21.4174 23.1437 20.4166 24.2688 20.1701C25.2593 19.9533 25.144 21.1309 25.0584 21.8772C24.9854 22.5196 24.4034 23.3527 24.4046 23.7155C24.4046 24.2324 25.1725 25.4066 24.9432 26.0947C24.7138 26.7828 22.7123 25.8003 22.289 25.8174C21.8657 25.8345 21.3693 26.2624 20.8957 26.3697C20.4222 26.477 18.6489 26.6253 18.7242 25.9133C18.8326 24.8966 19.8733 23.7224 20.7497 23.2591C20.1084 22.5425 19.3461 23.4268 18.9524 23.9631C18.3054 24.8452 17.4336 26.6767 19.0483 27.027C18.5599 28.1007 18.3294 29.7565 17.7463 30.7412C16.9761 32.0421 15.1001 31.3289 15.1868 29.8911C16.0586 27.472 16.838 25.0175 17.4542 22.5185C16.3861 22.7536 16.5025 24.0533 16.1784 24.8886C16.0141 25.0552 14.0355 25.5344 13.7856 25.4694C12.9526 25.2492 14.0503 23.2636 14.0514 22.8038C14.0526 22.3439 13.5345 22.0895 13.5893 21.6068C14.5684 21.528 15.4367 21.0066 16.312 20.6973C16.3576 20.8902 16.571 21.544 16.8186 21.4858C16.8779 21.4721 17.752 20.7932 17.7897 20.7452C18.0613 20.4052 18.1617 18.9697 18.3283 18.4334C18.5234 17.8058 18.9696 17.2387 19.0312 16.5369C19.1578 16.3486 19.9498 16.7035 20.3001 16.077C20.7565 15.2612 20.0821 12.9219 19.3336 12.3525C19.0985 12.1734 18.2644 12.3468 18.4766 12.5887C18.528 12.6469 18.868 12.7816 19.0905 13.0577C19.4648 13.5244 20.3001 15.6822 19.531 15.8842C19.2982 15.9447 18.2267 15.6845 17.9437 15.5784C17.404 15.3775 16.6509 14.6096 16.3462 14.5491C15.9137 14.4624 14.2009 14.8937 13.8654 14.4236C13.4467 13.8359 14.7703 12.4723 14.8377 11.9531C14.8947 11.5115 14.598 11.0323 14.6037 10.4777C14.6083 10.0566 14.8742 8.52185 15.3523 8.47621C15.8304 8.43057 16.9601 9.53514 17.2077 9.92768C17.5261 10.4332 17.4816 11.0186 17.8513 11.4476L19.2526 10.747C19.4716 9.55568 18.8942 6.82162 20.8022 6.88096C22.7101 6.94029 21.9467 9.6116 22.0208 10.8006L23.098 11.6656C23.3057 11.6975 23.6469 10.9239 23.8215 10.7105C24.3646 10.0452 25.4533 9.39707 26.3273 9.44271C26.6468 10.2438 26.5989 11.1623 26.325 11.968C26.2109 12.3034 25.8663 12.7005 25.8583 12.9847C25.8446 13.4525 26.7028 15.1219 26.3855 15.5635C26.0272 16.0622 24.1615 15.1025 23.761 15.1117C23.3137 15.1219 22.685 15.8511 22.1156 15.6697V15.6685Z" fill="#375E3D"/>
<path d="M19.9556 27.0795C20.4075 27.1 20.889 27.0361 21.3226 26.9106C21.6592 26.8136 22.1784 26.4404 22.3062 26.4188C22.563 26.3731 23.8764 27.1673 24.8474 26.9117C26.3468 26.5158 25.0688 24.4298 25.0825 23.7121C25.0871 23.4599 25.4294 23.0126 25.5184 22.6805C25.628 22.2754 25.5401 21.3957 25.9224 21.3717C26.2305 21.3523 27.2049 21.5794 27.5461 21.6855C31.3734 22.8814 32.8009 27.7755 30.2962 30.901C26.7599 35.3136 19.7011 32.6811 19.9556 27.0806V27.0795Z" fill="#C45353"/>
<path d="M14.161 9.50889C13.991 9.96304 14.0184 10.5598 14.0412 11.0528C14.0549 11.3403 14.2398 11.7192 14.2295 11.847C14.217 11.9908 13.7229 12.5579 13.611 12.7793C12.7176 14.5662 13.1215 15.2623 15.1253 15.3273C15.3318 15.3342 15.5669 15.2098 15.8076 15.2041C16.6486 15.1835 17.4097 16.2927 18.3546 16.3657C17.4657 21.479 10.6008 22.7353 7.81885 18.3273C4.96041 13.7983 9.07519 8.24113 14.1599 9.50889H14.161Z" fill="#C45353"/>
<path d="M25.6394 20.8046C25.6234 18.7791 23.8273 19.5003 22.7216 20.2226L22.5698 20.185C22.3165 19.7525 21.7551 19.0815 21.7151 18.584C21.6706 18.0237 22.0563 17.1553 22.0198 16.5437L22.1122 16.4079C22.6429 16.4467 23.3766 15.81 23.7725 15.7849C24.2917 15.7518 25.1966 16.3714 26.2658 16.2425C27.8702 16.0485 26.5032 13.7104 26.55 12.9949C26.5842 12.47 27.4012 11.5058 27.1148 10.7618C33.4022 10.7173 35.3158 19.3451 29.5316 21.9285C29.2509 21.9673 28.8926 21.5691 28.5914 21.4333C27.6671 21.0157 26.6629 20.7258 25.6382 20.8034L25.6394 20.8046Z" fill="#C45353"/>
<path d="M12.8944 21.6182C12.9218 21.9959 13.3417 22.4945 13.3623 22.8083C13.4079 23.5021 12.5532 24.585 12.9697 25.5949C13.3862 26.6047 15.0271 25.8037 15.6981 25.7124C15.883 25.6873 15.883 25.6987 15.8624 25.8767C15.6445 27.7093 13.5928 29.9801 15.2964 31.5879C10.1775 34.1725 4.85201 28.5241 7.6648 23.4667C8.01284 22.8414 9.50767 21.1069 10.23 21.1446C10.4981 21.1583 11.2524 21.5257 11.7317 21.5885C12.1185 21.6387 12.511 21.5645 12.8956 21.6182H12.8944Z" fill="#C45353"/>
</g>
<defs>
<filter id="filter0_g_2004_148" x="-0.5" y="-0.5" width="41" height="41" filterUnits="userSpaceOnUse" color-interpolation-filters="sRGB">
<feFlood flood-opacity="0" result="BackgroundImageFix"/>
<feBlend mode="normal" in="SourceGraphic" in2="BackgroundImageFix" result="shape"/>
<feTurbulence type="fractalNoise" baseFrequency="0.99900001287460327 0.99900001287460327" numOctaves="3" seed="3145" />
<feDisplacementMap in="shape" scale="1" xChannelSelector="R" yChannelSelector="G" result="displacedImage" width="100%" height="100%" />
<feMerge result="effect1_texture_2004_148">
<feMergeNode in="displacedImage"/>
</feMerge>
</filter>
</defs>
</svg>
