<svg width="40" height="40" viewBox="0 0 40 40" fill="none" xmlns="http://www.w3.org/2000/svg">
<g filter="url(#filter0_g_2004_160)">
<path d="M11.3226 13.8153C12.1112 15.3622 13.6446 14.3114 14.9811 14.6455L14.6413 16.7797C14.5052 17.7168 14.8933 18.6033 15.9317 18.6371C16.7519 18.6641 17.6822 17.5154 18.364 17.0148C18.8365 16.6683 19.3563 16.3274 19.8884 16.0754C20.137 16.054 21.2294 16.8168 21.4915 17.0114C22.1249 17.4817 23.0553 18.6146 23.8068 18.6359C24.9251 18.6674 25.3166 17.7708 25.2119 16.7785L24.8722 14.6444C26.2143 14.3238 27.7241 15.3385 28.5352 13.8074C32.4086 16.6863 33.2299 22.7692 31.0091 26.9205C26.6306 35.1061 13.3228 35.1286 8.88128 26.9937C6.61326 22.839 7.41427 16.7335 11.3214 13.8141L11.3226 13.8153Z" fill="#C45353"/>
<path d="M21.3892 11.2311C23.1948 11.3988 25.0027 11.7655 26.6407 12.5564C27.0457 12.7521 27.7331 12.976 27.6735 13.5048C27.5284 14.065 25.9196 13.678 25.3841 13.6972C25.1253 13.7062 23.8023 13.8862 23.6887 14.0268C23.8901 14.866 24.2512 15.6772 24.3131 16.5547C24.3558 17.1644 24.4908 17.979 23.6448 17.6685C23.3051 17.5436 22.4017 16.5929 21.9899 16.2914C21.5782 15.9899 20.416 15.208 19.966 15.1844C19.4879 15.1597 18.2223 16.0304 17.7993 16.3387C17.3369 16.6762 16.2546 17.8946 15.7236 17.7168C15.4187 17.4941 15.5234 16.8179 15.5537 16.4546C15.6246 15.6164 15.9363 14.8143 16.2141 14.0324C15.0182 13.6612 13.7222 13.8052 12.487 13.8603C11.632 13.4361 12.2136 13.0885 12.7626 12.778C14.5232 11.7801 16.7136 11.4393 18.6948 11.1794C18.8084 10.2434 19.6814 7.10909 20.6816 6.88409C21.0033 6.81209 23.2578 6.81209 23.3647 6.96396C23.6966 7.43309 22.8933 7.93822 22.6447 8.28022C22.0237 9.13411 21.4938 10.1657 21.3881 11.23L21.3892 11.2311Z" fill="#375E3D"/>
</g>
<defs>
<filter id="filter0_g_2004_160" x="-0.5" y="-0.5" width="41" height="41" filterUnits="userSpaceOnUse" color-interpolation-filters="sRGB">
<feFlood flood-opacity="0" result="BackgroundImageFix"/>
<feBlend mode="normal" in="SourceGraphic" in2="BackgroundImageFix" result="shape"/>
<feTurbulence type="fractalNoise" baseFrequency="0.99900001287460327 0.99900001287460327" numOctaves="3" seed="3145" />
<feDisplacementMap in="shape" scale="1" xChannelSelector="R" yChannelSelector="G" result="displacedImage" width="100%" height="100%" />
<feMerge result="effect1_texture_2004_160">
<feMergeNode in="displacedImage"/>
</feMerge>
</filter>
</defs>
</svg>
