<svg width="48" height="50" viewBox="0 0 48 50" fill="none" xmlns="http://www.w3.org/2000/svg">
<g filter="url(#filter0_g_4039_187)">
<g clip-path="url(#clip0_4039_187)">
<path d="M43.5839 38.1566C42.858 39.8336 41.9988 41.3772 41.0033 42.7964C39.6463 44.7312 38.5352 46.0704 37.6789 46.8141C36.3516 48.0348 34.9294 48.66 33.4065 48.6955C32.3132 48.6955 30.9947 48.3844 29.4599 47.7533C27.9201 47.1252 26.5051 46.8141 25.2112 46.8141C23.8542 46.8141 22.3988 47.1252 20.8421 47.7533C19.2831 48.3844 18.0271 48.7133 17.0668 48.7459C15.6064 48.8081 14.1508 48.1652 12.6978 46.8141C11.7704 46.0052 10.6105 44.6186 9.22087 42.6542C7.72995 40.5565 6.50422 38.124 5.54395 35.3507C4.51554 32.3553 4 29.4546 4 26.6464C4 23.4296 4.69509 20.6552 6.08734 18.3302C7.18153 16.4627 8.63718 14.9896 10.4591 13.9081C12.2809 12.8267 14.2495 12.2756 16.3694 12.2403C17.5293 12.2403 19.0505 12.5991 20.9408 13.3043C22.8258 14.0118 24.0361 14.3706 24.5667 14.3706C24.9635 14.3706 26.308 13.9511 28.5874 13.1147C30.7428 12.339 32.562 12.0178 34.0524 12.1443C38.0908 12.4702 41.1247 14.0622 43.1425 16.9303C39.5307 19.1186 37.7441 22.1837 37.7797 26.1158C37.8123 29.1785 38.9233 31.7271 41.107 33.7508C42.0966 34.69 43.2017 35.4159 44.4313 35.9315C44.1646 36.7048 43.8832 37.4455 43.5839 38.1566ZM34.322 1.71027C34.322 4.11082 33.445 6.35221 31.6969 8.42681C29.5873 10.8931 27.0357 12.3183 24.2687 12.0934C24.2334 11.8054 24.213 11.5023 24.213 11.1838C24.213 8.87924 25.2162 6.41295 26.9978 4.39641C27.8872 3.37541 29.0185 2.52646 30.3903 1.84923C31.7591 1.18211 33.0539 0.813178 34.2716 0.75C34.3072 1.07092 34.322 1.39185 34.322 1.71024V1.71027Z" fill="#2F4C33"/>
</g>
</g>
<defs>
<filter id="filter0_g_4039_187" x="-0.75" y="-0.000549316" width="49.5" height="49.5" filterUnits="userSpaceOnUse" color-interpolation-filters="sRGB">
<feFlood flood-opacity="0" result="BackgroundImageFix"/>
<feBlend mode="normal" in="SourceGraphic" in2="BackgroundImageFix" result="shape"/>
<feTurbulence type="fractalNoise" baseFrequency="0.99900001287460327 0.99900001287460327" numOctaves="3" seed="3145" />
<feDisplacementMap in="shape" scale="1.5" xChannelSelector="R" yChannelSelector="G" result="displacedImage" width="100%" height="100%" />
<feMerge result="effect1_texture_4039_187">
<feMergeNode in="displacedImage"/>
</feMerge>
</filter>
<clipPath id="clip0_4039_187">
<rect width="48" height="48" fill="white" transform="translate(0 0.749451)"/>
</clipPath>
</defs>
</svg>
