<svg width="50" height="50" viewBox="0 0 50 50" fill="none" xmlns="http://www.w3.org/2000/svg">
<g filter="url(#filter0_g_4039_188)">
<g clip-path="url(#clip0_4039_188)">
<path d="M24.75 0.75C11.4953 0.75 0.75 11.4953 0.75 24.75C0.75 36.005 8.49912 45.4495 18.9526 48.0434V32.0844H14.0038V24.75H18.9526V21.5897C18.9526 13.421 22.6495 9.6348 30.6694 9.6348C32.19 9.6348 34.8137 9.93336 35.887 10.231V16.879C35.3206 16.8194 34.3366 16.7897 33.1145 16.7897C29.1794 16.7897 27.6588 18.2806 27.6588 22.1561V24.75H35.4982L34.1513 32.0844H27.6588V48.5743C39.5426 47.1391 48.751 37.0207 48.751 24.75C48.75 11.4953 38.0047 0.75 24.75 0.75Z" fill="#2F4C33"/>
</g>
</g>
<defs>
<filter id="filter0_g_4039_188" x="0" y="0" width="49.5" height="49.5" filterUnits="userSpaceOnUse" color-interpolation-filters="sRGB">
<feFlood flood-opacity="0" result="BackgroundImageFix"/>
<feBlend mode="normal" in="SourceGraphic" in2="BackgroundImageFix" result="shape"/>
<feTurbulence type="fractalNoise" baseFrequency="0.99900001287460327 0.99900001287460327" numOctaves="3" seed="3145" />
<feDisplacementMap in="shape" scale="1.5" xChannelSelector="R" yChannelSelector="G" result="displacedImage" width="100%" height="100%" />
<feMerge result="effect1_texture_4039_188">
<feMergeNode in="displacedImage"/>
</feMerge>
</filter>
<clipPath id="clip0_4039_188">
<rect width="48" height="48" fill="white" transform="translate(0.75 0.75)"/>
</clipPath>
</defs>
</svg>
