<svg width="40" height="42" viewBox="0 0 40 42" fill="none" xmlns="http://www.w3.org/2000/svg">
<g filter="url(#filter0_g_2004_476)">
<path d="M17.2007 8.98127C17.9844 9.093 18.7642 9.25932 19.4543 9.69354C20.1068 10.1049 20.5915 10.6826 20.8671 11.3987C21.0919 11.9827 21.2453 12.6023 21.2466 13.2523L21.2596 20.0017L22.3136 18.986C22.7022 18.6115 23.3091 18.633 23.6601 18.9885C24.011 19.344 24.0266 19.9255 23.6497 20.295L21.2544 22.64L21.2518 24.5749L19.3543 24.5724V15.8386C17.1929 15.9186 15.1316 15.2584 14.487 13.0505C14.179 11.9967 14.1673 10.8959 14.3713 9.81162C14.5247 8.99398 15.467 9.1057 15.8699 8.98H17.1994L17.2007 8.98127Z" fill="#427449"/>
<path d="M12.9872 9.11133C12.6917 9.5462 12.1378 9.55217 11.774 9.25164L8.46596 6.51808C8.04982 6.17476 8.07193 5.63243 8.44886 5.2712L12.8434 1.0579C12.952 0.95441 13.146 0.957395 13.2536 1.04696L16.3455 3.60439C16.4651 3.70291 16.5294 3.88999 16.4339 4.03129L12.9872 9.11332V9.11133Z" fill="#427449"/>
<path d="M17.2446 7.26736C17.1512 7.18039 17.0221 7.1394 16.9168 7.16539L15.04 7.62425L16.1021 6.00974L16.722 6.02974C16.872 6.05373 17.027 5.98175 17.1045 5.84979C17.499 5.18399 17.3599 5.14101 18.1239 5.14001C18.2222 5.14001 18.3544 5.28596 18.3633 5.38093L18.558 7.4733C18.5779 7.68623 18.4458 7.83819 18.2193 7.85318C18.109 7.86118 17.8735 7.86818 17.7613 7.83719L17.2436 7.26536L17.2446 7.26736Z" fill="#427449"/>
<path d="M10.3422 1.37658C9.23929 1.73561 8.45537 2.88791 8.65035 4.07332L8.03742 4.66C7.62946 3.62503 7.87044 2.47974 8.60636 1.64735C9.44627 0.697626 10.8271 0.101916 12 0.812957L11.4161 1.37457C11.0531 1.25924 10.6981 1.26124 10.3432 1.37658H10.3422Z" fill="#427449"/>
<path d="M27.7021 7.36529C27.8822 7.5116 27.8717 7.73344 27.7523 7.87879C27.6329 8.02414 27.3785 8.07673 27.1952 7.94286L26.2633 7.26202C26.0947 7.13866 26.0308 6.95793 26.1208 6.79059C26.2025 6.63759 26.4664 6.50754 26.6675 6.62612C27.0287 6.83936 27.3638 7.09181 27.7021 7.36625V7.36529Z" fill="#2C5E91"/>
<path d="M23.2718 5.93806L22.0913 5.83212C21.8828 5.81326 21.7497 5.63639 21.7606 5.47658C21.7735 5.28625 21.9463 5.12734 22.1836 5.1408C22.5877 5.16325 22.971 5.19916 23.3701 5.25572C23.5597 5.28266 23.6848 5.46761 23.6799 5.60587C23.6739 5.78543 23.521 5.9605 23.2728 5.93806H23.2718Z" fill="#2C5E91"/>
<path d="M20.9455 5.89404L19.8078 6.09322C19.5833 6.13541 19.3978 5.97449 19.3658 5.78807C19.3317 5.59183 19.4509 5.3897 19.6745 5.3426C20.0604 5.26116 20.4403 5.19542 20.8362 5.14342C21.0628 5.11398 21.2482 5.2798 21.2753 5.46133C21.3054 5.66247 21.1911 5.84988 20.9445 5.89305L20.9455 5.89404Z" fill="#2C5E91"/>
<path d="M25.6554 5.9408C25.8916 6.04761 25.9687 6.28637 25.8906 6.48848C25.8126 6.69059 25.5836 6.80159 25.3671 6.7042C25.0081 6.54503 24.6564 6.39633 24.2859 6.25915C24.0663 6.17747 23.956 5.97536 24.0164 5.76173C24.0694 5.57428 24.2838 5.4015 24.5086 5.47899C24.8936 5.61198 25.2672 5.76487 25.6554 5.9408Z" fill="#2C5E91"/>
<path d="M29.211 9.20149C29.3505 9.39415 29.2582 9.61861 29.1138 9.71401C28.9194 9.84307 28.7063 9.77106 28.5728 9.59991L27.9237 8.76754C27.7872 8.59265 27.8255 8.38035 27.9816 8.26157C28.1466 8.13531 28.3852 8.15495 28.5286 8.32517C28.7652 8.60574 28.9872 8.89006 29.211 9.20149Z" fill="#2C5E91"/>
<path d="M23.4478 9.46827C23.6817 9.82409 24.3321 10.8039 23.7894 11.0246C23.5586 11.1184 23.3391 11.0196 23.2488 10.8029C23.1154 10.4843 22.9595 10.186 22.781 9.88961C22.664 9.69608 22.7174 9.46223 22.9236 9.34631C23.0682 9.26567 23.3257 9.28079 23.4488 9.46827H23.4478Z" fill="#2C5E91"/>
<path d="M22.7216 8.58595C22.9284 8.7534 22.9146 9.01275 22.7841 9.16081C22.6218 9.34664 22.3662 9.33745 22.1806 9.18633C21.9122 8.96885 21.6312 8.77995 21.332 8.60433C21.1305 8.48588 21.0626 8.26533 21.1719 8.06623C21.2578 7.91001 21.5071 7.79258 21.7128 7.90388C22.0671 8.09482 22.3959 8.32149 22.7216 8.58493V8.58595Z" fill="#2C5E91"/>
<path d="M20.4748 8.17063L19.8061 8.0117C19.5785 7.9573 19.4879 7.70236 19.53 7.52849C19.6519 7.02287 20.3044 7.26181 20.7099 7.38875C20.9137 7.45275 20.9903 7.69702 20.9493 7.86236C20.9083 8.0277 20.7218 8.22824 20.4748 8.16957V8.17063Z" fill="#2C5E91"/>
<path d="M24.3192 12.2634C24.3341 12.5047 24.1364 12.6571 23.9437 12.6599C23.7241 12.6637 23.5553 12.5132 23.5443 12.2813L23.5205 11.7759C23.5106 11.563 23.6487 11.4115 23.8543 11.3831C24.0341 11.3585 24.2705 11.4806 24.2844 11.7002L24.3192 12.2634Z" fill="#2C5E91"/>
<path d="M33.6197 36.9487H7.01424C6.50737 36.9322 6.06289 36.5831 6.06289 36.0778L6.05899 32.6167H34.5516L34.5542 36.0168C34.5542 36.5221 34.1838 36.9043 33.621 36.9487H33.6197Z" fill="#3B3025"/>
<path d="M34.5511 30.7618H6.05719L6.04938 27.4227C6.04808 26.8742 6.42889 26.4539 7.01374 26.4311H33.5906C34.1508 26.4527 34.5251 26.8361 34.555 27.3592L34.5498 30.7618H34.5511Z" fill="#3B3025"/>
<path d="M11.2431 24.5764L11.2275 22.8345C10.3048 22.8662 9.43399 22.7875 8.5879 22.465C6.2511 21.575 5.882 19.051 6.23161 16.8977C6.30179 16.4635 6.6293 16.1575 7.07249 16.0927C9.30922 15.7626 11.9346 16.1346 12.7871 18.4949C13.0029 19.0904 13.1302 19.7137 13.1315 20.3651L13.1419 24.5714L11.2431 24.5764Z" fill="#427449"/>
<path d="M29.3732 22.8381L29.3602 24.575H27.464L27.4705 20.4919C27.4731 18.5849 28.2581 16.862 30.2271 16.2614C31.2902 15.9377 32.3807 15.9351 33.4815 16.0811C33.9754 16.1459 34.3159 16.4671 34.3873 16.9508C34.5433 17.9983 34.5394 19.0356 34.2392 20.0538C33.5997 22.2198 31.5996 22.927 29.3719 22.8394L29.3732 22.8381Z" fill="#427449"/>
<path d="M30.7306 40.66H26.2012C25.1706 40.4759 24.9665 39.7268 25.0692 38.8038H32.0068C32.0198 39.0564 32.0289 39.2976 32.0068 39.5427C31.9523 40.1762 31.4116 40.66 30.7293 40.66H30.7306Z" fill="#3B3025"/>
<path d="M14.3197 40.6458L9.72413 40.6559C9.11459 40.6572 8.60122 40.1773 8.52584 39.6085C8.48945 39.3368 8.50114 39.0803 8.52064 38.8061H15.4479C15.4726 39.0778 15.4842 39.3381 15.4401 39.6352C15.366 40.124 14.9098 40.6458 14.3197 40.6471V40.6458Z" fill="#3B3025"/>
</g>
<defs>
<filter id="filter0_g_2004_476" x="-0.5" y="0" width="41" height="41.16" filterUnits="userSpaceOnUse" color-interpolation-filters="sRGB">
<feFlood flood-opacity="0" result="BackgroundImageFix"/>
<feBlend mode="normal" in="SourceGraphic" in2="BackgroundImageFix" result="shape"/>
<feTurbulence type="fractalNoise" baseFrequency="0.99900001287460327 0.99900001287460327" numOctaves="3" seed="3145" />
<feDisplacementMap in="shape" scale="1" xChannelSelector="R" yChannelSelector="G" result="displacedImage" width="100%" height="100%" />
<feMerge result="effect1_texture_2004_476">
<feMergeNode in="displacedImage"/>
</feMerge>
</filter>
</defs>
</svg>
