<svg width="40" height="41" viewBox="0 0 40 41" fill="none" xmlns="http://www.w3.org/2000/svg">
<g filter="url(#filter0_g_2004_483)">
<path d="M9.44 27.84V13.6847C9.44 13.1961 9.69072 12.8 10 12.8C10.3093 12.8 10.56 13.1961 10.56 13.6847V27.84H9.44Z" fill="#3B3025"/>
<path d="M19.68 27.84V11.1247C19.68 10.5477 19.9665 10.08 20.32 10.08C20.6735 10.08 20.96 10.5477 20.96 11.1247V27.84H19.68Z" fill="#3B3025"/>
<path d="M29.92 27.84V14.7388C29.92 14.2866 30.1707 13.92 30.48 13.92C30.7893 13.92 31.04 14.2866 31.04 14.7388V27.84H29.92Z" fill="#3B3025"/>
<path d="M32.9725 36.2201H7.03803C6.54395 36.2036 6.11068 35.8552 6.11068 35.351L6.10687 31.8975H33.8808L33.8834 35.2902C33.8834 35.7944 33.5223 36.1758 32.9737 36.2201H32.9725Z" fill="#3B3025"/>
<path d="M33.8808 30.0466H6.10557L6.09796 26.7147C6.0967 26.1674 6.4679 25.748 7.038 25.7252H32.9446C33.4906 25.7468 33.8555 26.1294 33.8846 26.6513L33.8795 30.0466H33.8808Z" fill="#3B3025"/>
<path d="M30.1563 39.9233H25.7412C24.7365 39.7396 24.5376 38.9921 24.6377 38.0711H31.4004C31.413 38.3232 31.4219 38.5639 31.4004 38.8084C31.3471 39.4406 30.8201 39.9233 30.155 39.9233H30.1563Z" fill="#3B3025"/>
<path d="M14.1593 39.9093L9.67956 39.9194C9.08539 39.9207 8.58498 39.4418 8.5115 38.8742C8.47602 38.6031 8.48742 38.3472 8.50642 38.0735H15.2589C15.283 38.3447 15.2944 38.6044 15.2513 38.9008C15.1791 39.3886 14.7344 39.9093 14.1593 39.9105V39.9093Z" fill="#3B3025"/>
<path d="M18.8345 21.2901C17.2215 21.4726 15.8011 20.379 15.52 18.6123C17.4354 19.1241 18.141 17.9506 19.0407 20.2486C19.1598 19.996 19.363 19.7629 19.5692 19.6049C19.6623 18.8617 19.6562 18.0516 20.1465 17.4356C20.7086 16.7299 21.596 16.3518 22.4788 16.3289C23.1738 16.311 23.7466 16.1676 24.4798 15.84C24.5057 18.2831 22.6316 20.1215 20.3619 20.2731C20.1205 20.7425 20.006 21.2852 20.009 21.8572V23.7327C20.009 24.0571 19.7461 24.32 19.4218 24.32C19.0974 24.32 18.8345 24.0571 18.8345 23.7327V21.2901Z" fill="#427449"/>
<path d="M29.2071 21.5118C27.6901 21.6786 26.4154 20.6753 26.2244 19.2324C26.7891 19.3578 27.2431 19.4542 27.7414 19.3729C28.6645 19.2241 29.1047 19.8897 29.405 20.6326C29.5144 20.4134 29.7026 20.2219 29.8881 20.0799C29.9517 19.4487 29.9739 18.7597 30.4099 18.2525C30.9247 17.653 31.7178 17.3471 32.5178 17.3236C33.1476 17.3057 33.6777 17.1844 34.3324 16.9033C34.3476 19.0091 32.6133 20.5457 30.587 20.6505C30.3919 21.0749 30.2756 21.5022 30.2798 21.9693L30.2897 23.3313C30.2918 23.6288 30.0513 23.8712 29.7538 23.8712C29.459 23.8712 29.2195 23.6331 29.2178 23.3384L29.2071 21.5104V21.5118Z" fill="#427449"/>
<path d="M8.81677 22.0899C7.36681 22.2309 6.01569 21.288 5.82751 19.7575C7.40037 20.3248 8.12311 19.0854 9.01062 21.1814C9.11861 20.9606 9.30829 20.7664 9.49244 20.6239C9.55751 19.9979 9.57412 19.3188 9.98533 18.8088C10.517 18.1478 11.3505 17.8376 12.1896 17.8251C12.7932 17.8167 13.3027 17.6574 13.9355 17.4101C13.9507 19.5423 12.2283 21.0864 10.1736 21.2107C9.83997 21.9422 9.88626 22.6255 9.8851 23.3595C9.88465 23.647 9.64737 23.8712 9.35988 23.8712C9.05993 23.8712 8.81677 23.628 8.81677 23.3281V22.0899Z" fill="#427449"/>
</g>
<defs>
<filter id="filter0_g_2004_483" x="-0.5" y="-0.5" width="41" height="41" filterUnits="userSpaceOnUse" color-interpolation-filters="sRGB">
<feFlood flood-opacity="0" result="BackgroundImageFix"/>
<feBlend mode="normal" in="SourceGraphic" in2="BackgroundImageFix" result="shape"/>
<feTurbulence type="fractalNoise" baseFrequency="0.99900001287460327 0.99900001287460327" numOctaves="3" seed="3145" />
<feDisplacementMap in="shape" scale="1" xChannelSelector="R" yChannelSelector="G" result="displacedImage" width="100%" height="100%" />
<feMerge result="effect1_texture_2004_483">
<feMergeNode in="displacedImage"/>
</feMerge>
</filter>
</defs>
</svg>
