<svg width="40" height="41" viewBox="0 0 40 41" fill="none" xmlns="http://www.w3.org/2000/svg">
<g filter="url(#filter0_g_2004_474)">
<path d="M11.04 27.84V12.7812C11.04 12.2614 11.2907 11.84 11.6 11.84C11.9093 11.84 12.16 12.2614 12.16 12.7812V27.84H11.04Z" fill="#3B3025"/>
<path d="M19.68 27.84V9.61882C19.68 8.98986 19.9307 8.48 20.24 8.48C20.5493 8.48 20.8 8.98986 20.8 9.61882V27.84H19.68Z" fill="#3B3025"/>
<path d="M28 27.84V11.8777C28 11.3267 28.2149 10.88 28.48 10.88C28.7451 10.88 28.96 11.3267 28.96 11.8777V27.84H28Z" fill="#3B3025"/>
<path d="M33.6197 36.2887H7.01424C6.50737 36.2722 6.06289 35.9231 6.06289 35.4178L6.05899 31.9567H34.5516L34.5542 35.3568C34.5542 35.8621 34.1838 36.2443 33.621 36.2887H33.6197Z" fill="#3B3025"/>
<path d="M34.5511 30.1018H6.05719L6.04938 26.7627C6.04808 26.2142 6.42889 25.7939 7.01374 25.7711H33.5906C34.1508 25.7927 34.5251 26.1761 34.555 26.6992L34.5498 30.1018H34.5511Z" fill="#3B3025"/>
<path d="M30.7306 40H26.2012C25.1706 39.8159 24.9665 39.0668 25.0692 38.1438H32.0068C32.0198 38.3964 32.0289 38.6376 32.0068 38.8827C31.9523 39.5162 31.4116 40 30.7293 40H30.7306Z" fill="#3B3025"/>
<path d="M14.3197 39.9858L9.72413 39.9959C9.11459 39.9972 8.60122 39.5173 8.52584 38.9485C8.48945 38.6768 8.50114 38.4203 8.52064 38.1461H15.4479C15.4726 38.4178 15.4842 38.6781 15.4401 38.9751C15.366 39.464 14.9098 39.9858 14.3197 39.9871V39.9858Z" fill="#3B3025"/>
<path d="M9.92269 23.1109H11.6376C11.7758 23.1109 11.8878 23.223 11.8876 23.3612L11.887 23.8446C11.8868 23.9826 11.775 24.0943 11.637 24.0943H8.20565C8.06758 24.0943 7.95565 23.9824 7.95565 23.8443V21.3954C7.95565 21.2573 8.06758 21.1454 8.20565 21.1454H9.67117C9.80924 21.1454 9.92117 21.0335 9.92117 20.8954V20.412C9.92117 20.2739 9.80924 20.162 9.67117 20.162H8.20704C8.06745 20.162 7.95331 20.0472 7.97221 19.9089C8.07869 19.1298 8.61764 18.4954 9.41308 18.2709C9.51746 16.9982 9.14423 15.7723 8.27556 14.7981C8.18416 14.6956 8.18388 14.5387 8.28081 14.4414L8.62199 14.099C8.72019 14.0005 8.88042 14.0007 8.97377 14.1038C9.25782 14.4177 9.48317 14.7344 9.68808 15.0865C9.79075 15.2629 10.0527 15.2635 10.1549 15.0868C10.3655 14.7228 10.5958 14.3933 10.8859 14.0918C10.9798 13.9941 11.1351 13.9985 11.2297 14.0955L11.5664 14.4403C11.6616 14.5378 11.6606 14.6932 11.5698 14.7948C10.7089 15.7586 10.3306 16.9585 10.4255 18.2633C11.2752 18.5066 11.8842 19.2467 11.8854 20.157L11.8887 21.8758C11.889 22.014 11.777 22.1263 11.6387 22.1263H10.1724C10.0344 22.1263 9.92243 22.2382 9.92243 22.3763V23.1094L9.92224 23.1098C9.92184 23.1102 9.92213 23.1109 9.92269 23.1109Z" fill="#C9722A"/>
<path d="M20.1509 23.1111H21.8673C22.0055 23.1111 22.1175 23.2232 22.1173 23.3614L22.1167 23.8448C22.1165 23.9827 22.0046 24.0945 21.8667 24.0945H18.4353C18.2973 24.0945 18.1853 23.9825 18.1853 23.8445V21.3956C18.1853 21.2575 18.2973 21.1456 18.4353 21.1456H19.9009C20.0389 21.1456 20.1509 21.0336 20.1509 20.8956V20.4122C20.1509 20.2741 20.0389 20.1622 19.9009 20.1622H18.4367C18.2971 20.1622 18.183 20.0474 18.2019 19.9091C18.3008 19.1853 18.773 18.5864 19.4774 18.3259C19.5754 18.2897 19.649 18.2031 19.6541 18.0988C19.7121 16.8885 19.3344 15.7294 18.5053 14.7995C18.4139 14.697 18.4136 14.5401 18.5105 14.4428L18.8517 14.1004C18.9499 14.0019 19.1101 14.0021 19.2035 14.1052C19.4875 14.4191 19.7129 14.7358 19.9178 15.0879C20.0204 15.2643 20.2824 15.2649 20.3846 15.0882C20.5952 14.7242 20.8255 14.3948 21.1156 14.0932C21.2095 13.9955 21.3648 13.9999 21.4594 14.0969L21.7961 14.4417C21.8913 14.5392 21.8903 14.6946 21.7995 14.7963C20.977 15.717 20.595 16.8532 20.6453 18.0906C20.6495 18.1952 20.7226 18.2826 20.8206 18.3197C21.5828 18.6079 22.1139 19.3084 22.1151 20.1584L22.1184 21.8772C22.1187 22.0155 22.0067 22.1277 21.8684 22.1277H20.4021C20.264 22.1277 20.1521 22.2396 20.1521 22.3777V23.1098C20.1521 23.1105 20.1516 23.1111 20.1509 23.1111Z" fill="#C9722A"/>
<path d="M30.3463 23.1098C30.3459 23.1102 30.3462 23.1109 30.3468 23.1109H32.0617C32.1999 23.1109 32.3119 23.223 32.3117 23.3612L32.3111 23.8446C32.3109 23.9826 32.199 24.0943 32.0611 24.0943H28.6297C28.4916 24.0943 28.3797 23.9824 28.3797 23.8443V21.3954C28.3797 21.2573 28.4916 21.1454 28.6297 21.1454H30.0952C30.2333 21.1454 30.3452 21.0335 30.3452 20.8954V20.412C30.3452 20.2739 30.2333 20.162 30.0952 20.162H28.6311C28.4915 20.162 28.3774 20.0472 28.3963 19.9089C28.4952 19.185 28.9676 18.5859 29.6721 18.3246C29.77 18.2883 29.8434 18.2018 29.8484 18.0976C29.9066 16.8872 29.5288 15.728 28.6996 14.7981C28.6082 14.6956 28.6079 14.5387 28.7049 14.4414L29.0461 14.099C29.1443 14.0005 29.3045 14.0007 29.3978 14.1038C29.6819 14.4177 29.9072 14.7344 30.1121 15.0865C30.2148 15.2629 30.4768 15.2635 30.5789 15.0868C30.7895 14.7224 31.0199 14.3925 31.31 14.0914C31.4039 13.9939 31.559 13.9984 31.6536 14.0952L31.9905 14.4403C32.0857 14.5378 32.0847 14.6932 31.9939 14.7949C31.1714 15.7156 30.7894 16.8518 30.8397 18.0891C30.8439 18.1938 30.917 18.2812 31.015 18.3183C31.7772 18.6064 32.3083 19.3069 32.3095 20.157L32.3128 21.8758C32.3131 22.014 32.2011 22.1263 32.0628 22.1263H30.5965C30.4584 22.1263 30.3465 22.2382 30.3465 22.3763V23.1094C30.3465 23.1096 30.3464 23.1097 30.3463 23.1098Z" fill="#C9722A"/>
<path d="M28.6996 14.7981C29.506 15.7025 29.8854 16.8237 29.8522 17.9979C29.848 18.1447 29.9636 18.2699 30.1105 18.2688L30.5827 18.2653C30.7271 18.2642 30.84 18.1412 30.8367 17.9968C30.8087 16.7953 31.1919 15.6926 31.9938 14.7949C32.0846 14.6932 32.0857 14.5378 31.9905 14.4403L31.6535 14.0952C31.5589 13.9984 31.4038 13.9939 31.3099 14.0914C31.0198 14.3925 30.7895 14.7224 30.5789 15.0868C30.4767 15.2635 30.2148 15.2629 30.1121 15.0865C29.9072 14.7344 29.6818 14.4177 29.3978 14.1038C29.3044 14.0007 29.1442 14.0005 29.046 14.099L28.7048 14.4414C28.6079 14.5387 28.6082 14.6956 28.6996 14.7981Z" fill="#427449"/>
<path d="M18.8516 14.1004L18.5104 14.4428C18.4135 14.5401 18.4138 14.697 18.5052 14.7995C19.3721 15.7718 19.7456 16.9947 19.6433 18.2647H20.3863C20.5315 18.2647 20.6455 18.1414 20.6422 17.9962C20.6147 16.7955 20.9979 15.6935 21.7995 14.7963C21.8903 14.6946 21.8913 14.5392 21.7961 14.4417L21.4594 14.0969C21.3647 13.9999 21.2094 13.9955 21.1155 14.0932C20.8255 14.3948 20.5951 14.7242 20.3846 15.0882C20.2823 15.2649 20.0204 15.2643 19.9177 15.0879C19.7128 14.7358 19.4875 14.4191 19.2034 14.1052C19.1101 14.0021 18.9498 14.0019 18.8516 14.1004Z" fill="#427449"/>
<path d="M8.62193 14.099L8.28076 14.4414C8.18382 14.5387 8.18411 14.6956 8.27551 14.7981C9.08189 15.7025 9.46133 16.8237 9.42811 17.9979C9.42395 18.1447 9.53953 18.2699 9.6864 18.2688L10.1586 18.2653C10.3031 18.2642 10.4159 18.1412 10.4126 17.9968C10.3846 16.7953 10.7678 15.6926 11.5698 14.7949C11.6606 14.6932 11.6616 14.5378 11.5664 14.4403L11.2297 14.0955C11.135 13.9985 10.9797 13.9941 10.8858 14.0918C10.5958 14.3933 10.3654 14.7228 10.1549 15.0868C10.0527 15.2635 9.79069 15.2629 9.68802 15.0865C9.48312 14.7344 9.25776 14.4177 8.97372 14.1038C8.88036 14.0007 8.72013 14.0005 8.62193 14.099Z" fill="#427449"/>
</g>
<defs>
<filter id="filter0_g_2004_474" x="-0.5" y="-0.5" width="41" height="41" filterUnits="userSpaceOnUse" color-interpolation-filters="sRGB">
<feFlood flood-opacity="0" result="BackgroundImageFix"/>
<feBlend mode="normal" in="SourceGraphic" in2="BackgroundImageFix" result="shape"/>
<feTurbulence type="fractalNoise" baseFrequency="0.99900001287460327 0.99900001287460327" numOctaves="3" seed="3145" />
<feDisplacementMap in="shape" scale="1" xChannelSelector="R" yChannelSelector="G" result="displacedImage" width="100%" height="100%" />
<feMerge result="effect1_texture_2004_474">
<feMergeNode in="displacedImage"/>
</feMerge>
</filter>
</defs>
</svg>
