<svg width="40" height="40" viewBox="0 0 40 40" fill="none" xmlns="http://www.w3.org/2000/svg">
<g filter="url(#filter0_g_2004_493)">
<path d="M33.1358 28.4772L33.1467 32.4246C33.1479 32.907 32.8278 33.12 32.3718 33.12L7.54902 33.1176C7.18929 33.1176 6.93663 32.812 6.93302 32.4872L6.88009 28.5C6.87648 28.2666 6.98235 28.0452 7.16884 27.9165C8.30097 27.1309 9.59914 26.7122 10.9851 26.6857C11.9356 26.7567 12.7922 27.013 13.626 27.4509C14.6607 27.9947 15.7916 28.2546 16.9598 28.2028C17.7154 28.1692 18.3109 27.8575 18.9438 27.4822C20.2131 26.7302 21.729 26.5425 23.1812 26.7988C24.021 26.9468 24.7669 27.1802 25.5898 27.3919C27.7134 27.9394 29.8802 28.038 32.0362 27.629C32.5595 27.5303 33.1358 27.8732 33.1382 28.476L33.1358 28.4772ZM10.8997 29.4589C11.2185 29.4577 11.4014 29.2171 11.3822 28.9488C11.3665 28.737 11.174 28.5277 10.9166 28.5265H10.226C9.92519 28.5241 9.71946 28.7406 9.73028 29.0041C9.74111 29.2676 9.9288 29.4637 10.2188 29.4625L10.8997 29.4589ZM24.0583 29.8872C24.347 29.8102 24.4818 29.5852 24.4529 29.3554C24.4216 29.1076 24.2147 28.95 23.9404 28.95H20.4248C20.1457 28.9476 19.934 29.0956 19.8991 29.3578C19.8678 29.5924 20.023 29.8126 20.2901 29.8884H24.0583V29.8872ZM32.0277 29.4733C31.899 29.4264 31.6548 29.4312 31.5429 29.4806C31.3095 29.584 31.2361 29.8319 31.2938 30.0424C31.348 30.2397 31.5621 30.3829 31.7955 30.3805C32.041 30.3769 32.2491 30.2469 32.3045 30.0436C32.3598 29.8403 32.3045 29.5756 32.0277 29.4745V29.4733ZM15.729 31.1385C16.007 31.1385 16.1766 30.8605 16.1646 30.6416C16.1525 30.4334 15.9841 30.2024 15.7266 30.2024H11.168C10.9009 30.2469 10.7445 30.4563 10.759 30.6969C10.771 30.9135 10.9611 31.1397 11.2246 31.1397H15.7303L15.729 31.1385ZM20.0471 31.6137C20.3358 31.6101 20.4886 31.3334 20.4754 31.1192C20.4621 30.9051 20.2696 30.6873 20.0146 30.6861L19.3083 30.6825C19.0088 30.6813 18.8054 30.9075 18.8199 31.1721C18.8331 31.414 19.0256 31.6257 19.3071 31.6221L20.0483 31.6137H20.0471ZM29.423 31.6197C29.7358 31.6197 29.9078 31.3562 29.8946 31.1204C29.8838 30.9183 29.7069 30.6837 29.4495 30.6837L24.8223 30.6813C24.5215 30.6813 24.3133 30.9026 24.3218 31.1625C24.3302 31.4224 24.5371 31.6221 24.8235 31.6221L29.423 31.6197Z" fill="#61422C"/>
<path d="M20.7135 25.8483L19.3095 26.2393V12.5021C19.7775 12.6489 20.2335 12.6477 20.7123 12.5081V25.8483H20.7135Z" fill="#252323"/>
<path d="M22.4518 8.74243L17.572 8.74363L17.5684 6.88H22.4506L22.4518 8.74243Z" fill="#252323"/>
<path d="M21.4175 10.3666C21.4103 11.1943 20.668 11.7381 19.9232 11.6972C19.1785 11.6563 18.5685 11.003 18.5902 10.2102L18.6046 9.68081H21.4247L21.4187 10.3666H21.4175Z" fill="#252323"/>
<path d="M18.3782 26.6894C17.998 27.0227 17.5024 27.1935 16.9766 27.2477V25.1434L18.3686 25.1482L18.3782 26.6894Z" fill="#252323"/>
<path d="M23.0426 25.8074L21.6638 25.7412L21.6482 25.1456L23.0318 25.1493L23.0426 25.8074Z" fill="#252323"/>
</g>
<defs>
<filter id="filter0_g_2004_493" x="-0.5" y="-0.5" width="41" height="41" filterUnits="userSpaceOnUse" color-interpolation-filters="sRGB">
<feFlood flood-opacity="0" result="BackgroundImageFix"/>
<feBlend mode="normal" in="SourceGraphic" in2="BackgroundImageFix" result="shape"/>
<feTurbulence type="fractalNoise" baseFrequency="0.99900001287460327 0.99900001287460327" numOctaves="3" seed="3145" />
<feDisplacementMap in="shape" scale="1" xChannelSelector="R" yChannelSelector="G" result="displacedImage" width="100%" height="100%" />
<feMerge result="effect1_texture_2004_493">
<feMergeNode in="displacedImage"/>
</feMerge>
</filter>
</defs>
</svg>
