<svg width="40" height="40" viewBox="0 0 40 40" fill="none" xmlns="http://www.w3.org/2000/svg">
<g filter="url(#filter0_g_2004_475)">
<path d="M15.6988 33.1189H14.0598C13.9641 33.1042 13.8117 33.0758 13.696 33.0674C11.8741 32.9276 10.1384 32.5134 8.40482 31.9583C7.8203 31.7712 7.37244 31.296 7.36298 30.6578C7.3388 29.1282 7.4618 27.6385 7.73409 26.134C8.0663 24.3016 8.68026 22.4597 9.7957 20.9658C10.6683 19.7957 11.8552 18.9925 13.2608 18.5836C15.8039 17.8445 18.7286 18.2251 21.2896 18.8926C21.4452 19.6832 21.3317 20.4696 20.9879 21.2045C20.9196 21.3517 20.9406 21.5525 21.0236 21.6755C21.0899 21.7743 21.2644 21.8742 21.4032 21.8773C22.2253 21.8952 22.999 22.034 23.7802 22.3378C23.6235 24.965 23.0747 27.9139 21.5514 30.1038C20.8596 31.0983 19.9734 31.8553 18.8758 32.3599C17.8519 32.8309 16.7837 32.9917 15.6998 33.12L15.6988 33.1189ZM11.0909 22.3725C12.2862 20.5537 14.1765 20.0449 16.2633 20.0459C16.5609 20.0459 16.7753 19.8273 16.7669 19.5655C16.7585 19.3037 16.5472 19.1071 16.2644 19.1082C13.8117 19.1176 11.6534 19.7736 10.2709 21.912C8.71075 24.3269 8.30179 27.7247 8.29969 30.5548C8.29969 30.8628 8.51836 31.0741 8.79906 31.0584C9.05032 31.0447 9.23746 30.8418 9.23851 30.5537C9.24376 27.9244 9.62223 24.6076 11.0909 22.3725ZM14.905 32.1822C16.5419 32.1707 18.0737 31.8952 19.4004 30.9848C19.6359 30.8229 19.7011 30.5401 19.5497 30.313C19.4194 30.1196 19.1334 30.0354 18.9137 30.1858C17.6921 31.0258 16.3537 31.2276 14.8903 31.2476C14.6128 31.2508 14.4183 31.46 14.4172 31.7102C14.4162 31.9604 14.6012 32.1843 14.905 32.1822Z" fill="#3B3025"/>
<path d="M23.5372 9.1786C25.8805 10.4559 28.0967 12.3956 29.1858 14.884C27.1421 15.0155 24.6516 14.6822 23.1671 13.1998C21.6511 11.6807 21.2905 9.01249 21.443 6.97085C21.9749 6.8468 22.8507 6.87518 23.3627 6.90882C25.7323 7.06862 27.9085 7.8508 28.8978 10.191C29.3435 11.2465 29.5675 12.362 29.5738 13.5636C28.1892 11.317 26.2937 9.53394 23.9682 8.35017C23.7212 8.22506 23.4625 8.33019 23.35 8.52784C23.2197 8.75702 23.2817 9.02405 23.5372 9.1786Z" fill="#427449"/>
<path d="M22.097 20.9689C22.2484 20.3875 22.3157 19.8703 22.2841 19.2899C23.7581 17.6951 25.9879 17.2052 27.8834 18.4247C28.4238 18.7716 28.9841 19.0618 29.6286 19.1449C29.966 19.188 30.3613 19.0975 30.5138 18.7843C30.7188 18.3616 30.6683 17.8717 30.5222 17.4344C30.3256 16.8435 30.0901 16.279 29.8409 15.7302C30.0533 15.602 30.2036 15.4716 30.3645 15.296C31.4 15.849 32.2211 16.7721 32.5375 17.9043C32.9812 19.4949 32.0855 21.0614 30.518 21.5156C29.7926 21.7258 29.0598 21.6806 28.3302 21.4514C27.6584 21.2412 27.0981 20.8637 26.5325 20.4558C25.1794 19.4813 23.8296 20.0984 22.6573 21.0277C22.507 21.0372 22.2799 21.0057 22.0981 20.9689H22.097Z" fill="#252323"/>
</g>
<defs>
<filter id="filter0_g_2004_475" x="-0.5" y="-0.5" width="41" height="41" filterUnits="userSpaceOnUse" color-interpolation-filters="sRGB">
<feFlood flood-opacity="0" result="BackgroundImageFix"/>
<feBlend mode="normal" in="SourceGraphic" in2="BackgroundImageFix" result="shape"/>
<feTurbulence type="fractalNoise" baseFrequency="0.99900001287460327 0.99900001287460327" numOctaves="3" seed="3145" />
<feDisplacementMap in="shape" scale="1" xChannelSelector="R" yChannelSelector="G" result="displacedImage" width="100%" height="100%" />
<feMerge result="effect1_texture_2004_475">
<feMergeNode in="displacedImage"/>
</feMerge>
</filter>
</defs>
</svg>
