<svg width="40" height="41" viewBox="0 0 40 41" fill="none" xmlns="http://www.w3.org/2000/svg">
<g filter="url(#filter0_g_2004_486)">
<path fill-rule="evenodd" clip-rule="evenodd" d="M24.3809 8.87894C25.0657 8.4047 25.9733 8.40484 26.6582 8.87894L38.3389 16.9678C38.8781 17.3414 39.2001 17.9554 39.2002 18.6114V37.8028C39.2002 38.9073 38.3047 39.8027 37.2002 39.8028H29.5771V26.9766C29.577 25.8722 28.6815 24.9768 27.5771 24.9766H23.4629C22.3585 24.9767 21.463 25.8722 21.4629 26.9766V39.8028H13.8398C12.7353 39.8027 11.8398 38.9073 11.8398 37.8028V18.6114C11.8399 17.9554 12.162 17.3414 12.7012 16.9678L24.3809 8.87894Z" fill="#2F4C33"/>
<path d="M27.7043 36.238H1.8954C1.40371 36.2216 0.972536 35.8749 0.972536 35.3731L0.96875 31.9363H28.6083L28.6108 35.3126C28.6108 35.8144 28.2515 36.1939 27.7056 36.238H27.7043Z" fill="#3B3025"/>
<path d="M28.6084 30.0944H0.967567L0.959995 26.7786C0.958734 26.234 1.32814 25.8166 1.89548 25.7939H27.6767C28.2201 25.8154 28.5832 26.1961 28.6122 26.7156L28.6071 30.0944H28.6084Z" fill="#3B3025"/>
<path d="M24.9021 39.9234H20.5083C19.5085 39.7406 19.3106 38.9968 19.4102 38.0802H26.1401C26.1527 38.3311 26.1616 38.5706 26.1401 38.814C26.0872 39.4431 25.5627 39.9234 24.9008 39.9234H24.9021Z" fill="#3B3025"/>
<path d="M8.98243 39.9094L4.5244 39.9194C3.93311 39.9207 3.43511 39.4441 3.36199 38.8793C3.32669 38.6095 3.33803 38.3548 3.35694 38.0825H10.0768C10.1007 38.3523 10.1121 38.6108 10.0692 38.9058C9.99734 39.3912 9.55482 39.9094 8.98243 39.9106V39.9094Z" fill="#3B3025"/>
<path d="M4.76238 22.9509H6.47732C6.61551 22.9509 6.72749 23.063 6.72732 23.2012L6.7267 23.6846C6.72652 23.8226 6.61464 23.9343 6.4767 23.9343H3.04534C2.90727 23.9343 2.79534 23.8224 2.79534 23.6843V21.2354C2.79534 21.0973 2.90727 20.9854 3.04534 20.9854H4.51086C4.64893 20.9854 4.76086 20.8735 4.76086 20.7354V20.252C4.76086 20.1139 4.64893 20.002 4.51086 20.002H3.04673C2.90714 20.002 2.793 19.8872 2.8119 19.7489C2.91839 18.9699 3.45733 18.3354 4.25277 18.1109C4.35715 16.8382 3.98393 15.6123 3.11525 14.6381C3.02385 14.5356 3.02357 14.3787 3.1205 14.2814L3.46168 13.939C3.55988 13.8405 3.72011 13.8407 3.81346 13.9438C4.09751 14.2577 4.32286 14.5744 4.52777 14.9265C4.63044 15.1029 4.8924 15.1035 4.99461 14.9268C5.20518 14.5628 5.43552 14.2334 5.72555 13.9318C5.81947 13.8341 5.97475 13.8385 6.06941 13.9355L6.40612 14.2803C6.50134 14.3778 6.50031 14.5332 6.40952 14.6349C5.54857 15.5986 5.17026 16.7985 5.26516 18.1033C6.11491 18.3466 6.72385 19.0867 6.72511 19.997L6.72842 21.7158C6.72868 21.854 6.61668 21.9663 6.47842 21.9663H5.01212C4.87405 21.9663 4.76212 22.0782 4.76212 22.2163V22.9494L4.76193 22.9498C4.76154 22.9502 4.76182 22.9509 4.76238 22.9509Z" fill="#C9722A"/>
<path d="M14.9905 22.9511H16.707C16.8452 22.9511 16.9572 23.0632 16.957 23.2014L16.9564 23.6848C16.9562 23.8227 16.8443 23.9345 16.7064 23.9345H13.275C13.1369 23.9345 13.025 23.8225 13.025 23.6845V21.2355C13.025 21.0975 13.1369 20.9855 13.275 20.9855H14.7405C14.8786 20.9855 14.9905 20.8736 14.9905 20.7355V20.2522C14.9905 20.1141 14.8786 20.0022 14.7405 20.0022H13.2764C13.1368 20.0022 13.0227 19.8874 13.0416 19.7491C13.1405 19.0253 13.6127 18.4264 14.3171 18.1659C14.4151 18.1297 14.4887 18.0431 14.4937 17.9388C14.5518 16.7285 14.174 15.5694 13.3449 14.6395C13.2535 14.537 13.2532 14.3801 13.3502 14.2828L13.6914 13.9404C13.7896 13.8419 13.9498 13.8421 14.0431 13.9452C14.3272 14.2591 14.5525 14.5758 14.7574 14.9279C14.8601 15.1043 15.1221 15.1049 15.2243 14.9282C15.4349 14.5642 15.6652 14.2348 15.9552 13.9332C16.0492 13.8355 16.2044 13.8399 16.2991 13.9369L16.6358 14.2817C16.731 14.3792 16.73 14.5346 16.6392 14.6363C15.8167 15.557 15.4347 16.6932 15.485 17.9306C15.4892 18.0352 15.5623 18.1226 15.6603 18.1597C16.4225 18.4478 16.9536 19.1484 16.9548 19.9984L16.9581 21.7172C16.9584 21.8555 16.8464 21.9677 16.7081 21.9677H15.2418C15.1037 21.9677 14.9918 22.0796 14.9918 22.2177V22.9498C14.9918 22.9505 14.9912 22.9511 14.9905 22.9511Z" fill="#C9722A"/>
<path d="M25.186 22.9498C25.1856 22.9502 25.1859 22.9509 25.1864 22.9509H26.9014C27.0396 22.9509 27.1515 23.063 27.1514 23.2012L27.1508 23.6846C27.1506 23.8226 27.0387 23.9343 26.9008 23.9343H23.4694C23.3313 23.9343 23.2194 23.8224 23.2194 23.6843V21.2354C23.2194 21.0973 23.3313 20.9854 23.4694 20.9854H24.9349C25.073 20.9854 25.1849 20.8735 25.1849 20.7354V20.252C25.1849 20.1139 25.073 20.002 24.9349 20.002H23.4708C23.3312 20.002 23.2171 19.8872 23.236 19.7489C23.3349 19.025 23.8072 18.426 24.5118 18.1646C24.6097 18.1283 24.6831 18.0419 24.6881 17.9376C24.7462 16.7272 24.3685 15.568 23.5393 14.6381C23.4479 14.5356 23.4476 14.3787 23.5446 14.2814L23.8857 13.939C23.9839 13.8405 24.1442 13.8407 24.2375 13.9438C24.5216 14.2577 24.7469 14.5744 24.9518 14.9265C25.0545 15.1029 25.3164 15.1035 25.4186 14.9268C25.6292 14.5624 25.8596 14.2325 26.1497 13.9314C26.2436 13.8339 26.3987 13.8384 26.4932 13.9352L26.8302 14.2803C26.9254 14.3778 26.9244 14.5332 26.8336 14.6349C26.0111 15.5556 25.6291 16.6918 25.6793 17.9292C25.6836 18.0338 25.7567 18.1212 25.8547 18.1583C26.6169 18.4464 27.148 19.1469 27.1492 19.997L27.1525 21.7158C27.1527 21.854 27.0407 21.9663 26.9025 21.9663H25.4362C25.2981 21.9663 25.1862 22.0782 25.1862 22.2163V22.9494C25.1862 22.9496 25.1861 22.9497 25.186 22.9498Z" fill="#C9722A"/>
<path d="M23.5393 14.6381C24.3457 15.5425 24.7251 16.6637 24.6919 17.8379C24.6877 17.9847 24.8033 18.1099 24.9502 18.1088L25.4223 18.1053C25.5668 18.1042 25.6797 17.9812 25.6763 17.8368C25.6484 16.6353 26.0315 15.5326 26.8335 14.6349C26.9243 14.5332 26.9254 14.3778 26.8301 14.2803L26.4932 13.9352C26.3986 13.8384 26.2435 13.8339 26.1496 13.9314C25.8595 14.2325 25.6292 14.5624 25.4186 14.9268C25.3164 15.1035 25.0545 15.1029 24.9518 14.9265C24.7469 14.5744 24.5215 14.2577 24.2375 13.9438C24.1441 13.8407 23.9839 13.8405 23.8857 13.939L23.5445 14.2814C23.4476 14.3787 23.4479 14.5356 23.5393 14.6381Z" fill="#427449"/>
<path d="M13.6913 13.9404L13.3501 14.2828C13.2532 14.3801 13.2535 14.537 13.3449 14.6395C14.2118 15.6118 14.5853 16.8347 14.483 18.1047H15.226C15.3712 18.1047 15.4852 17.9814 15.4819 17.8362C15.4544 16.6355 15.8376 15.5335 16.6392 14.6363C16.73 14.5346 16.731 14.3792 16.6358 14.2817L16.299 13.9369C16.2044 13.8399 16.0491 13.8355 15.9552 13.9332C15.6652 14.2348 15.4348 14.5642 15.2242 14.9282C15.122 15.1049 14.8601 15.1043 14.7574 14.9279C14.5525 14.5758 14.3271 14.2591 14.0431 13.9452C13.9497 13.8421 13.7895 13.8419 13.6913 13.9404Z" fill="#427449"/>
<path d="M3.46163 13.939L3.12045 14.2814C3.02351 14.3787 3.0238 14.5356 3.1152 14.6381C3.92158 15.5425 4.30102 16.6637 4.2678 17.8379C4.26364 17.9847 4.37923 18.1099 4.52609 18.1088L4.99828 18.1053C5.14274 18.1042 5.25563 17.9812 5.25227 17.8368C5.22428 16.6353 5.60747 15.5326 6.40946 14.6349C6.50026 14.5332 6.50128 14.3778 6.40607 14.2803L6.06936 13.9355C5.9747 13.8385 5.81942 13.8341 5.7255 13.9318C5.43546 14.2334 5.20512 14.5628 4.99455 14.9268C4.89235 15.1035 4.63038 15.1029 4.52771 14.9265C4.32281 14.5744 4.09745 14.2577 3.81341 13.9438C3.72006 13.8407 3.55982 13.8405 3.46163 13.939Z" fill="#427449"/>
</g>
<defs>
<filter id="filter0_g_2004_486" x="-0.5" y="-0.5" width="41" height="41" filterUnits="userSpaceOnUse" color-interpolation-filters="sRGB">
<feFlood flood-opacity="0" result="BackgroundImageFix"/>
<feBlend mode="normal" in="SourceGraphic" in2="BackgroundImageFix" result="shape"/>
<feTurbulence type="fractalNoise" baseFrequency="0.99900001287460327 0.99900001287460327" numOctaves="3" seed="3145" />
<feDisplacementMap in="shape" scale="1" xChannelSelector="R" yChannelSelector="G" result="displacedImage" width="100%" height="100%" />
<feMerge result="effect1_texture_2004_486">
<feMergeNode in="displacedImage"/>
</feMerge>
</filter>
</defs>
</svg>
