<svg width="41" height="41" viewBox="0 0 41 41" fill="none" xmlns="http://www.w3.org/2000/svg">
<g filter="url(#filter0_g_2004_485)">
<path fill-rule="evenodd" clip-rule="evenodd" d="M24.8813 9.03904C25.5662 8.56493 26.4738 8.5648 27.1586 9.03904L38.8383 17.1269C39.3778 17.5005 39.6996 18.1153 39.6996 18.7715V37.9629C39.6996 39.0674 38.8042 39.9629 37.6996 39.9629H30.0766V27.1367C30.0765 26.0322 29.1811 25.1367 28.0766 25.1367H23.9633C22.8588 25.1367 21.9634 26.0322 21.9633 27.1367V39.9629H14.3403C13.2357 39.9629 12.3403 39.0674 12.3403 37.9629V18.7715C12.3403 18.1153 12.6622 17.5005 13.2016 17.1269L24.8813 9.03904Z" fill="#2F4C33"/>
<path d="M27.6449 36.3522H1.71052C1.21643 36.3357 0.783162 35.9873 0.783162 35.4831L0.779358 32.0295H28.5533L28.5558 35.4223C28.5558 35.9265 28.1948 36.3078 27.6462 36.3522H27.6449Z" fill="#3B3025"/>
<path d="M28.5533 30.1787H0.778059L0.77045 26.8467C0.769183 26.2995 1.14039 25.8801 1.71049 25.8573H27.617C28.1631 25.8788 28.5279 26.2614 28.5571 26.7834L28.552 30.1787H28.5533Z" fill="#3B3025"/>
<path d="M24.8287 40.0553H20.4136C19.409 39.8716 19.2101 39.1242 19.3102 38.2031H26.0728C26.0855 38.4552 26.0943 38.6959 26.0728 38.9404C26.0196 39.5726 25.4926 40.0553 24.8274 40.0553H24.8287Z" fill="#3B3025"/>
<path d="M8.83176 40.0413L4.35205 40.0514C3.75788 40.0527 3.25746 39.5738 3.18398 39.0063C3.14851 38.7351 3.15991 38.4792 3.17891 38.2056H9.93142C9.95549 38.4767 9.96689 38.7364 9.92381 39.0329C9.8516 39.5206 9.40692 40.0413 8.83176 40.0426V40.0413Z" fill="#3B3025"/>
<path d="M13.6344 21.4917C12.1748 21.6444 10.8894 20.7295 10.6351 19.2514C12.3683 19.6796 13.0069 18.6978 13.821 20.6204C13.9288 20.4091 14.1126 20.2141 14.2992 20.0818C14.3835 19.4601 14.378 18.7824 14.8217 18.267C15.3303 17.6766 16.1333 17.3602 16.9322 17.3411C17.5611 17.3261 18.0795 17.2061 18.7429 16.9321C18.7664 18.976 17.0705 20.5141 15.0166 20.6409C14.7982 21.0336 14.6945 21.4876 14.6973 21.9662V23.4952C14.6973 23.7887 14.4593 24.0266 14.1658 24.0266C13.8723 24.0266 13.6344 23.7887 13.6344 23.4952V21.4917Z" fill="#427449"/>
<path d="M23.8796 21.6438C22.3626 21.8106 21.0879 20.8073 20.8969 19.3644C21.4616 19.4898 21.9155 19.5863 22.4138 19.505C23.337 19.3561 23.7771 20.0218 24.0775 20.7646C24.1868 20.5455 24.3751 20.3539 24.5605 20.212C24.6242 19.5808 24.6463 18.8917 25.0823 18.3845C25.5972 17.785 26.3903 17.4791 27.1903 17.4557C27.8201 17.4378 28.3502 17.3165 29.0048 17.0353C29.0201 19.1411 27.2858 20.6778 25.2595 20.7825C25.0643 21.207 24.9481 21.6342 24.9522 22.1014L24.9621 23.4634C24.9643 23.7609 24.7237 24.0032 24.4262 24.0032C24.1314 24.0032 23.892 23.7652 23.8903 23.4704L23.8796 21.6425V21.6438Z" fill="#427449"/>
<path d="M3.48926 22.2219C2.03929 22.363 0.68818 21.42 0.5 19.8896C2.07286 20.4569 2.7956 19.2175 3.6831 21.3134C3.7911 21.0927 3.98078 20.8984 4.16493 20.7559C4.23 20.1299 4.24661 19.4508 4.65782 18.9408C5.18949 18.2799 6.023 17.9697 6.86205 17.9571C7.46571 17.9487 7.97523 17.7894 8.60797 17.5421C8.6232 19.6744 6.90081 21.2184 4.84612 21.3428C4.51245 22.0743 4.55874 22.7576 4.55759 23.4915C4.55713 23.779 4.31986 24.0032 4.03237 24.0032C3.73242 24.0032 3.48926 23.7601 3.48926 23.4601V22.2219Z" fill="#427449"/>
</g>
<defs>
<filter id="filter0_g_2004_485" x="-0.480042" y="-0.5" width="41" height="41.0553" filterUnits="userSpaceOnUse" color-interpolation-filters="sRGB">
<feFlood flood-opacity="0" result="BackgroundImageFix"/>
<feBlend mode="normal" in="SourceGraphic" in2="BackgroundImageFix" result="shape"/>
<feTurbulence type="fractalNoise" baseFrequency="0.99900001287460327 0.99900001287460327" numOctaves="3" seed="3145" />
<feDisplacementMap in="shape" scale="1" xChannelSelector="R" yChannelSelector="G" result="displacedImage" width="100%" height="100%" />
<feMerge result="effect1_texture_2004_485">
<feMergeNode in="displacedImage"/>
</feMerge>
</filter>
</defs>
</svg>
