<svg width="41" height="41" viewBox="0 0 41 41" fill="none" xmlns="http://www.w3.org/2000/svg">
<g filter="url(#filter0_g_2004_489)">
<path fill-rule="evenodd" clip-rule="evenodd" d="M25.2015 9.03905C25.8863 8.56504 26.793 8.5651 27.4778 9.03905L39.1585 17.1269C39.698 17.5005 40.0198 18.1152 40.0198 18.7715V37.9629C40.0197 39.0673 39.1243 39.9629 38.0198 39.9629H30.3968V27.1367C30.3968 26.0321 29.5014 25.1367 28.3968 25.1367H24.2835C23.1789 25.1367 22.2835 26.0321 22.2835 27.1367V39.9629H14.6605C13.556 39.9629 12.6606 39.0673 12.6605 37.9629V18.7715C12.6605 18.1153 12.9823 17.5005 13.5218 17.1269L25.2015 9.03905Z" fill="#2F4C33"/>
<path d="M11.6512 8.32128C12.4349 8.43301 13.2147 8.59933 13.9049 9.03354C14.5573 9.4449 15.0421 10.0226 15.3176 10.7387C15.5424 11.3227 15.6958 11.9423 15.6971 12.5923L15.7101 19.3417L16.7641 18.326C17.1527 17.9515 17.7597 17.973 18.1106 18.3285C18.4615 18.684 18.4771 19.2655 18.1002 19.635L15.7049 21.98L15.7023 23.9149L13.8048 23.9124V15.1786C11.6434 15.2586 9.58216 14.5984 8.93753 12.3905C8.62951 11.3367 8.61781 10.2359 8.82186 9.15162C8.97522 8.33398 9.91748 8.4457 10.3204 8.32001H11.6499L11.6512 8.32128Z" fill="#427449"/>
<path d="M28.0704 36.2887H1.46493C0.958056 36.2722 0.513577 35.9231 0.513577 35.4178L0.509674 31.9567H29.0023L29.0049 35.3568C29.0049 35.8621 28.6344 36.2443 28.0717 36.2887H28.0704Z" fill="#3B3025"/>
<path d="M29.0017 30.1018H0.507809L0.500003 26.7627C0.498704 26.2142 0.879512 25.7939 1.46436 25.7711H28.0412C28.6014 25.7927 28.9757 26.1761 29.0056 26.6992L29.0004 30.1018H29.0017Z" fill="#3B3025"/>
<path d="M5.69358 23.9164L5.67799 22.1745C4.75523 22.2062 3.88444 22.1275 3.03836 21.805C0.701559 20.915 0.332453 18.391 0.682063 16.2377C0.752245 15.8035 1.07976 15.4975 1.52294 15.4327C3.75967 15.1026 6.38501 15.4747 7.23759 17.8349C7.45333 18.4304 7.58069 19.0538 7.58199 19.7051L7.5924 23.9114L5.69358 23.9164Z" fill="#427449"/>
<path d="M23.8239 22.1781L23.8109 23.915H21.9147L21.9212 19.8318C21.9238 17.9249 22.7088 16.202 24.6778 15.6014C25.7409 15.2777 26.8313 15.2751 27.9321 15.4211C28.426 15.4859 28.7665 15.8071 28.838 16.2908C28.994 17.3383 28.9901 18.3756 28.6898 19.3938C28.0504 21.5598 26.0502 22.267 23.8226 22.1794L23.8239 22.1781Z" fill="#427449"/>
<path d="M25.1813 39.9999H20.652C19.6214 39.8158 19.4173 39.0668 19.52 38.1437H26.4576C26.4706 38.3964 26.4797 38.6376 26.4576 38.8827C26.403 39.5162 25.8624 39.9999 25.18 39.9999H25.1813Z" fill="#3B3025"/>
<path d="M8.77034 39.9858L4.17472 39.9959C3.56518 39.9972 3.05181 39.5173 2.97643 38.9485C2.94004 38.6768 2.95173 38.4203 2.97123 38.1461H9.89846C9.92315 38.4178 9.93484 38.6781 9.89065 38.9751C9.81657 39.464 9.36039 39.9858 8.77034 39.9871V39.9858Z" fill="#3B3025"/>
</g>
<defs>
<filter id="filter0_g_2004_489" x="-0.320007" y="-0.5" width="41" height="41" filterUnits="userSpaceOnUse" color-interpolation-filters="sRGB">
<feFlood flood-opacity="0" result="BackgroundImageFix"/>
<feBlend mode="normal" in="SourceGraphic" in2="BackgroundImageFix" result="shape"/>
<feTurbulence type="fractalNoise" baseFrequency="0.99900001287460327 0.99900001287460327" numOctaves="3" seed="3145" />
<feDisplacementMap in="shape" scale="1" xChannelSelector="R" yChannelSelector="G" result="displacedImage" width="100%" height="100%" />
<feMerge result="effect1_texture_2004_489">
<feMergeNode in="displacedImage"/>
</feMerge>
</filter>
</defs>
</svg>
