<svg width="40" height="41" viewBox="0 0 40 41" fill="none" xmlns="http://www.w3.org/2000/svg">
<g filter="url(#filter0_g_2004_491)">
<path d="M17.2007 8.32128C17.9844 8.43301 18.7642 8.59933 19.4543 9.03354C20.1068 9.4449 20.5915 10.0226 20.8671 10.7387C21.0919 11.3227 21.2453 11.9423 21.2466 12.5923L21.2596 19.3417L22.3136 18.326C22.7022 17.9515 23.3091 17.973 23.6601 18.3285C24.011 18.684 24.0266 19.2655 23.6497 19.635L21.2544 21.98L21.2518 23.9149L19.3543 23.9124V15.1786C17.1929 15.2586 15.1316 14.5984 14.487 12.3905C14.179 11.3367 14.1673 10.2359 14.3713 9.15162C14.5247 8.33398 15.467 8.4457 15.8699 8.32001H17.1994L17.2007 8.32128Z" fill="#427449"/>
<path d="M33.6197 36.2887H7.01424C6.50737 36.2722 6.06289 35.9231 6.06289 35.4178L6.05899 31.9567H34.5516L34.5542 35.3568C34.5542 35.8621 34.1838 36.2443 33.621 36.2887H33.6197Z" fill="#3B3025"/>
<path d="M34.5511 30.1018H6.05719L6.04938 26.7627C6.04808 26.2142 6.42889 25.7939 7.01374 25.7711H33.5906C34.1508 25.7927 34.5251 26.1761 34.555 26.6992L34.5498 30.1018H34.5511Z" fill="#3B3025"/>
<path d="M11.2431 23.9164L11.2275 22.1745C10.3048 22.2062 9.43399 22.1275 8.5879 21.805C6.2511 20.915 5.882 18.391 6.23161 16.2377C6.30179 15.8035 6.6293 15.4975 7.07249 15.4327C9.30922 15.1026 11.9346 15.4747 12.7871 17.8349C13.0029 18.4304 13.1302 19.0538 13.1315 19.7051L13.1419 23.9114L11.2431 23.9164Z" fill="#427449"/>
<path d="M29.3732 22.1781L29.3602 23.915H27.464L27.4705 19.8318C27.4731 17.9249 28.2581 16.202 30.2271 15.6014C31.2902 15.2777 32.3807 15.2751 33.4815 15.4211C33.9754 15.4859 34.3159 15.8071 34.3873 16.2908C34.5433 17.3383 34.5394 18.3756 34.2392 19.3938C33.5997 21.5598 31.5996 22.267 29.3719 22.1794L29.3732 22.1781Z" fill="#427449"/>
<path d="M30.7306 39.9999H26.2012C25.1706 39.8158 24.9665 39.0668 25.0692 38.1437H32.0068C32.0198 38.3964 32.0289 38.6376 32.0068 38.8827C31.9523 39.5162 31.4116 39.9999 30.7293 39.9999H30.7306Z" fill="#3B3025"/>
<path d="M14.3197 39.9858L9.72413 39.9959C9.11459 39.9972 8.60122 39.5173 8.52584 38.9485C8.48945 38.6768 8.50114 38.4203 8.52064 38.1461H15.4479C15.4726 38.4178 15.4842 38.6781 15.4401 38.9751C15.366 39.464 14.9098 39.9858 14.3197 39.9871V39.9858Z" fill="#3B3025"/>
<path d="M28.4923 17.12H28.7582C29.1968 17.0296 29.5132 16.7185 29.6 16.2789V15.9909C29.5359 15.772 29.4546 15.5717 29.27 15.4091L26.3377 12.48C25.9609 13.0468 25.5059 13.4915 24.96 13.8576L27.9591 16.8516C28.1173 16.9983 28.2959 17.075 28.4927 17.12H28.4923Z" fill="#252323"/>
<path d="M19.3576 12.5125C20.8711 14.2828 23.536 14.3902 25.1886 12.7945C26.8413 11.1988 26.8138 8.46086 25.0393 6.90957C24.3867 6.33932 23.5595 5.99203 22.6923 5.93029C20.2613 5.75753 18.237 7.77959 18.4104 10.2089C18.4704 11.0509 18.8024 11.8628 19.3576 12.5121V12.5125ZM22.4056 7.86441V7.21778C23.8969 7.21823 25.1131 8.42933 25.1113 9.92022H24.4636C24.4574 8.78018 23.5449 7.87374 22.406 7.86441H22.4056Z" fill="#252323"/>
</g>
<defs>
<filter id="filter0_g_2004_491" x="-0.5" y="-0.5" width="41" height="41" filterUnits="userSpaceOnUse" color-interpolation-filters="sRGB">
<feFlood flood-opacity="0" result="BackgroundImageFix"/>
<feBlend mode="normal" in="SourceGraphic" in2="BackgroundImageFix" result="shape"/>
<feTurbulence type="fractalNoise" baseFrequency="0.99900001287460327 0.99900001287460327" numOctaves="3" seed="3145" />
<feDisplacementMap in="shape" scale="1" xChannelSelector="R" yChannelSelector="G" result="displacedImage" width="100%" height="100%" />
<feMerge result="effect1_texture_2004_491">
<feMergeNode in="displacedImage"/>
</feMerge>
</filter>
</defs>
</svg>
