<svg width="40" height="41" viewBox="0 0 40 41" fill="none" xmlns="http://www.w3.org/2000/svg">
<g filter="url(#filter0_g_2004_479)">
<path d="M32.8646 36.2379H7.05571C6.56402 36.2216 6.13284 35.8749 6.13284 35.3731L6.12906 31.9362H33.7686L33.7711 35.3125C33.7711 35.8143 33.4118 36.1938 32.8659 36.2379H32.8646Z" fill="#3B3025"/>
<path d="M33.7687 30.0943H6.12789L6.12032 26.7785C6.11906 26.2339 6.48847 25.8166 7.05581 25.7939H32.837C33.3804 25.8153 33.7435 26.1961 33.7725 26.7155L33.7675 30.0943H33.7687Z" fill="#3B3025"/>
<path d="M30.0624 39.9234H25.6687C24.6689 39.7406 24.4709 38.9967 24.5705 38.0801H31.3005C31.3131 38.331 31.3219 38.5706 31.3005 38.8139C31.2475 39.443 30.723 39.9234 30.0611 39.9234H30.0624Z" fill="#3B3025"/>
<path d="M14.1428 39.9094L9.68472 39.9194C9.09343 39.9207 8.59543 39.4441 8.52231 38.8793C8.48701 38.6095 8.49835 38.3548 8.51726 38.0825H15.2371C15.2611 38.3523 15.2724 38.6108 15.2295 38.9058C15.1577 39.3912 14.7151 39.9094 14.1428 39.9106V39.9094Z" fill="#3B3025"/>
<path d="M9.92269 22.9509H11.6376C11.7758 22.9509 11.8878 23.063 11.8876 23.2012L11.887 23.6846C11.8868 23.8226 11.775 23.9343 11.637 23.9343H8.20565C8.06758 23.9343 7.95565 23.8224 7.95565 23.6843V21.2354C7.95565 21.0973 8.06758 20.9854 8.20565 20.9854H9.67117C9.80924 20.9854 9.92117 20.8735 9.92117 20.7354V20.252C9.92117 20.1139 9.80924 20.002 9.67117 20.002H8.20704C8.06745 20.002 7.95331 19.8872 7.97221 19.7489C8.07869 18.9699 8.61764 18.3354 9.41308 18.1109C9.51746 16.8382 9.14423 15.6123 8.27556 14.6381C8.18416 14.5356 8.18388 14.3787 8.28081 14.2814L8.62199 13.939C8.72019 13.8405 8.88042 13.8407 8.97377 13.9438C9.25782 14.2577 9.48317 14.5744 9.68808 14.9265C9.79075 15.1029 10.0527 15.1035 10.1549 14.9268C10.3655 14.5628 10.5958 14.2334 10.8859 13.9318C10.9798 13.8341 11.1351 13.8385 11.2297 13.9355L11.5664 14.2803C11.6616 14.3778 11.6606 14.5332 11.5698 14.6349C10.7089 15.5986 10.3306 16.7985 10.4255 18.1033C11.2752 18.3466 11.8842 19.0867 11.8854 19.997L11.8887 21.7158C11.889 21.854 11.777 21.9663 11.6387 21.9663H10.1724C10.0344 21.9663 9.92243 22.0782 9.92243 22.2163V22.9494L9.92224 22.9498C9.92184 22.9502 9.92213 22.9509 9.92269 22.9509Z" fill="#C9722A"/>
<path d="M20.1509 22.9511H21.8673C22.0055 22.9511 22.1175 23.0632 22.1173 23.2014L22.1167 23.6848C22.1165 23.8227 22.0046 23.9345 21.8667 23.9345H18.4353C18.2973 23.9345 18.1853 23.8225 18.1853 23.6845V21.2355C18.1853 21.0975 18.2973 20.9855 18.4353 20.9855H19.9009C20.0389 20.9855 20.1509 20.8736 20.1509 20.7355V20.2522C20.1509 20.1141 20.0389 20.0022 19.9009 20.0022H18.4367C18.2971 20.0022 18.183 19.8874 18.2019 19.7491C18.3008 19.0253 18.773 18.4264 19.4774 18.1659C19.5754 18.1297 19.649 18.0431 19.6541 17.9388C19.7121 16.7285 19.3344 15.5694 18.5053 14.6395C18.4139 14.537 18.4136 14.3801 18.5105 14.2828L18.8517 13.9404C18.9499 13.8419 19.1101 13.8421 19.2035 13.9452C19.4875 14.2591 19.7129 14.5758 19.9178 14.9279C20.0204 15.1043 20.2824 15.1049 20.3846 14.9282C20.5952 14.5642 20.8255 14.2348 21.1156 13.9332C21.2095 13.8355 21.3648 13.8399 21.4594 13.9369L21.7961 14.2817C21.8913 14.3792 21.8903 14.5346 21.7995 14.6363C20.977 15.557 20.595 16.6932 20.6453 17.9306C20.6495 18.0352 20.7226 18.1226 20.8206 18.1597C21.5828 18.4478 22.1139 19.1484 22.1151 19.9984L22.1184 21.7172C22.1187 21.8555 22.0067 21.9677 21.8684 21.9677H20.4021C20.264 21.9677 20.1521 22.0796 20.1521 22.2177V22.9498C20.1521 22.9505 20.1516 22.9511 20.1509 22.9511Z" fill="#C9722A"/>
<path d="M30.3463 22.9498C30.3459 22.9502 30.3462 22.9509 30.3468 22.9509H32.0617C32.1999 22.9509 32.3119 23.063 32.3117 23.2012L32.3111 23.6846C32.3109 23.8226 32.199 23.9343 32.0611 23.9343H28.6297C28.4917 23.9343 28.3797 23.8224 28.3797 23.6843V21.2354C28.3797 21.0973 28.4917 20.9854 28.6297 20.9854H30.0953C30.2333 20.9854 30.3453 20.8735 30.3453 20.7354V20.252C30.3453 20.1139 30.2333 20.002 30.0953 20.002H28.6311C28.4915 20.002 28.3774 19.8872 28.3963 19.7489C28.4952 19.025 28.9676 18.426 29.6721 18.1646C29.77 18.1283 29.8434 18.0419 29.8484 17.9376C29.9066 16.7272 29.5288 15.568 28.6996 14.6381C28.6082 14.5356 28.608 14.3787 28.7049 14.2814L29.0461 13.939C29.1443 13.8405 29.3045 13.8407 29.3979 13.9438C29.6819 14.2577 29.9073 14.5744 30.1122 14.9265C30.2148 15.1029 30.4768 15.1035 30.5789 14.9268C30.7895 14.5624 31.0199 14.2325 31.31 13.9314C31.4039 13.8339 31.559 13.8384 31.6536 13.9352L31.9905 14.2803C32.0857 14.3778 32.0847 14.5332 31.9939 14.6349C31.1714 15.5556 30.7894 16.6918 30.8397 17.9292C30.8439 18.0338 30.917 18.1212 31.015 18.1583C31.7772 18.4464 32.3083 19.1469 32.3095 19.997L32.3128 21.7158C32.3131 21.854 32.2011 21.9663 32.0628 21.9663H30.5965C30.4584 21.9663 30.3465 22.0782 30.3465 22.2163V22.9494C30.3465 22.9496 30.3464 22.9497 30.3463 22.9498Z" fill="#C9722A"/>
<path d="M28.6996 14.6381C29.506 15.5425 29.8854 16.6637 29.8522 17.8379C29.848 17.9847 29.9636 18.1099 30.1105 18.1088L30.5827 18.1053C30.7271 18.1042 30.84 17.9812 30.8367 17.8368C30.8087 16.6353 31.1919 15.5326 31.9938 14.6349C32.0846 14.5332 32.0857 14.3778 31.9905 14.2803L31.6535 13.9352C31.5589 13.8384 31.4038 13.8339 31.3099 13.9314C31.0198 14.2325 30.7895 14.5624 30.5789 14.9268C30.4767 15.1035 30.2148 15.1029 30.1121 14.9265C29.9072 14.5744 29.6818 14.2577 29.3978 13.9438C29.3044 13.8407 29.1442 13.8405 29.046 13.939L28.7048 14.2814C28.6079 14.3787 28.6082 14.5356 28.6996 14.6381Z" fill="#427449"/>
<path d="M18.8516 13.9404L18.5104 14.2828C18.4135 14.3801 18.4138 14.537 18.5052 14.6395C19.3721 15.6118 19.7456 16.8347 19.6433 18.1047H20.3863C20.5315 18.1047 20.6455 17.9814 20.6422 17.8362C20.6147 16.6355 20.9979 15.5335 21.7995 14.6363C21.8903 14.5346 21.8913 14.3792 21.7961 14.2817L21.4594 13.9369C21.3647 13.8399 21.2094 13.8355 21.1155 13.9332C20.8255 14.2348 20.5951 14.5642 20.3846 14.9282C20.2823 15.1049 20.0204 15.1043 19.9177 14.9279C19.7128 14.5758 19.4875 14.2591 19.2034 13.9452C19.1101 13.8421 18.9498 13.8419 18.8516 13.9404Z" fill="#427449"/>
<path d="M8.62193 13.939L8.28076 14.2814C8.18382 14.3787 8.18411 14.5356 8.27551 14.6381C9.08189 15.5425 9.46133 16.6637 9.42811 17.8379C9.42395 17.9847 9.53953 18.1099 9.6864 18.1088L10.1586 18.1053C10.3031 18.1042 10.4159 17.9812 10.4126 17.8368C10.3846 16.6353 10.7678 15.5326 11.5698 14.6349C11.6606 14.5332 11.6616 14.3778 11.5664 14.2803L11.2297 13.9355C11.135 13.8385 10.9797 13.8341 10.8858 13.9318C10.5958 14.2334 10.3654 14.5628 10.1549 14.9268C10.0527 15.1035 9.79069 15.1029 9.68802 14.9265C9.48312 14.5744 9.25776 14.2577 8.97372 13.9438C8.88036 13.8407 8.72013 13.8405 8.62193 13.939Z" fill="#427449"/>
<path d="M27.6397 22.24H27.8414C28.1741 22.1714 28.4141 21.9354 28.48 21.6019V21.3834C28.4314 21.2174 28.3697 21.0654 28.2297 20.9421L26.0052 18.72C25.7193 19.15 25.3741 19.4873 24.96 19.765L27.2352 22.0364C27.3552 22.1477 27.4907 22.2059 27.64 22.24H27.6397Z" fill="#252323"/>
<path d="M20.8686 18.7985C21.9887 20.1084 23.9606 20.188 25.1836 19.0072C26.4066 17.8263 26.3862 15.8002 25.0731 14.6523C24.5902 14.2303 23.9781 13.9733 23.3363 13.9276C21.5374 13.7998 20.0394 15.2961 20.1677 17.0938C20.2121 17.7169 20.4578 18.3177 20.8686 18.7981V18.7985ZM23.1241 15.3589V14.8804C24.2277 14.8807 25.1277 15.7769 25.1264 16.8802H24.6471C24.6425 16.0365 23.9672 15.3658 23.1245 15.3589H23.1241Z" fill="#252323"/>
</g>
<defs>
<filter id="filter0_g_2004_479" x="-0.5" y="-0.5" width="41" height="41" filterUnits="userSpaceOnUse" color-interpolation-filters="sRGB">
<feFlood flood-opacity="0" result="BackgroundImageFix"/>
<feBlend mode="normal" in="SourceGraphic" in2="BackgroundImageFix" result="shape"/>
<feTurbulence type="fractalNoise" baseFrequency="0.99900001287460327 0.99900001287460327" numOctaves="3" seed="3145" />
<feDisplacementMap in="shape" scale="1" xChannelSelector="R" yChannelSelector="G" result="displacedImage" width="100%" height="100%" />
<feMerge result="effect1_texture_2004_479">
<feMergeNode in="displacedImage"/>
</feMerge>
</filter>
</defs>
</svg>
