<svg width="40" height="41" viewBox="0 0 40 41" fill="none" xmlns="http://www.w3.org/2000/svg">
<g filter="url(#filter0_g_2004_488)">
<path d="M32.9725 36.2201H7.03803C6.54395 36.2036 6.11068 35.8552 6.11068 35.351L6.10687 31.8975H33.8808L33.8834 35.2902C33.8834 35.7944 33.5223 36.1757 32.9737 36.2201H32.9725Z" fill="#3B3025"/>
<path d="M33.8808 30.0466H6.10557L6.09796 26.7147C6.0967 26.1674 6.4679 25.748 7.038 25.7252H32.9446C33.4906 25.7468 33.8555 26.1294 33.8846 26.6513L33.8795 30.0466H33.8808Z" fill="#3B3025"/>
<path d="M30.1563 39.9233H25.7412C24.7365 39.7396 24.5376 38.9921 24.6377 38.0711H31.4004C31.413 38.3232 31.4219 38.5639 31.4004 38.8084C31.3471 39.4406 30.8201 39.9233 30.155 39.9233H30.1563Z" fill="#3B3025"/>
<path d="M14.1593 39.9093L9.67956 39.9194C9.08539 39.9207 8.58498 39.4418 8.5115 38.8742C8.47602 38.6031 8.48742 38.3472 8.50642 38.0735H15.2589C15.283 38.3447 15.2944 38.6044 15.2513 38.9008C15.1791 39.3886 14.7344 39.9093 14.1593 39.9105V39.9093Z" fill="#3B3025"/>
<path d="M18.9619 21.3597C17.5024 21.5124 16.2169 20.5974 15.9626 19.1194C17.6959 19.5475 18.3344 18.5658 19.1485 20.4884C19.2563 20.277 19.4402 20.082 19.6268 19.9498C19.7111 19.328 19.7055 18.6503 20.1492 18.1349C20.6579 17.5445 21.4609 17.2281 22.2598 17.209C22.8887 17.194 23.407 17.0741 24.0704 16.8C24.0939 18.8439 22.398 20.382 20.3441 20.5088C20.1257 20.9015 20.0221 21.3556 20.0248 21.8342V23.3631C20.0248 23.6566 19.7869 23.8946 19.4934 23.8946C19.1999 23.8946 18.9619 23.6566 18.9619 23.3631V21.3597Z" fill="#427449"/>
<path d="M29.2071 21.5118C27.6901 21.6786 26.4154 20.6753 26.2244 19.2324C26.7891 19.3578 27.2431 19.4543 27.7414 19.3729C28.6645 19.2241 29.1047 19.8898 29.405 20.6326C29.5144 20.4134 29.7026 20.2219 29.8881 20.0799C29.9517 19.4487 29.9739 18.7597 30.4099 18.2525C30.9247 17.653 31.7178 17.3471 32.5178 17.3237C33.1476 17.3057 33.6777 17.1845 34.3324 16.9033C34.3476 19.0091 32.6133 20.5457 30.587 20.6505C30.3919 21.0749 30.2756 21.5022 30.2798 21.9694L30.2897 23.3314C30.2918 23.6289 30.0513 23.8712 29.7538 23.8712C29.459 23.8712 29.2195 23.6332 29.2178 23.3384L29.2071 21.5104V21.5118Z" fill="#427449"/>
<path d="M8.81677 22.0899C7.36681 22.2309 6.01569 21.288 5.82751 19.7575C7.40037 20.3248 8.12311 19.0854 9.01062 21.1814C9.11861 20.9606 9.30829 20.7664 9.49244 20.6239C9.55751 19.9979 9.57412 19.3188 9.98533 18.8088C10.517 18.1478 11.3505 17.8376 12.1896 17.8251C12.7932 17.8167 13.3027 17.6574 13.9355 17.4101C13.9507 19.5423 12.2283 21.0864 10.1736 21.2107C9.83997 21.9422 9.88626 22.6255 9.8851 23.3595C9.88465 23.647 9.64737 23.8712 9.35988 23.8712C9.05993 23.8712 8.81677 23.628 8.81677 23.3281V22.0899Z" fill="#427449"/>
<path d="M30.7323 23.04H30.9982C31.4368 22.9496 31.7532 22.6385 31.84 22.1988V21.9109C31.7759 21.692 31.6945 21.4917 31.51 21.3291L28.5777 18.4C28.2009 18.9668 27.7459 19.4115 27.2 19.7776L30.1991 22.7716C30.3573 22.9183 30.5359 22.995 30.7327 23.04H30.7323Z" fill="#252323"/>
<path d="M21.5976 18.4325C23.1112 20.2028 25.776 20.3103 27.4287 18.7145C29.0813 17.1188 29.0538 14.3809 27.2793 12.8296C26.6268 12.2593 25.7995 11.912 24.9323 11.8503C22.5013 11.6775 20.477 13.6996 20.6504 16.1289C20.7104 16.971 21.0424 17.7828 21.5976 18.4321V18.4325ZM24.6456 13.7844V13.1378C26.1369 13.1382 27.3531 14.3493 27.3513 15.8402H26.7037C26.6974 14.7002 25.7849 13.7938 24.646 13.7844H24.6456Z" fill="#252323"/>
</g>
<defs>
<filter id="filter0_g_2004_488" x="-0.5" y="-0.5" width="41" height="41" filterUnits="userSpaceOnUse" color-interpolation-filters="sRGB">
<feFlood flood-opacity="0" result="BackgroundImageFix"/>
<feBlend mode="normal" in="SourceGraphic" in2="BackgroundImageFix" result="shape"/>
<feTurbulence type="fractalNoise" baseFrequency="0.99900001287460327 0.99900001287460327" numOctaves="3" seed="3145" />
<feDisplacementMap in="shape" scale="1" xChannelSelector="R" yChannelSelector="G" result="displacedImage" width="100%" height="100%" />
<feMerge result="effect1_texture_2004_488">
<feMergeNode in="displacedImage"/>
</feMerge>
</filter>
</defs>
</svg>
