<svg width="40" height="40" viewBox="0 0 40 40" fill="none" xmlns="http://www.w3.org/2000/svg">
<g filter="url(#filter0_g_2004_472)">
<path d="M21.6104 26.8475C21.1928 26.4312 21.1183 25.9104 21.358 25.3965L20.0286 24.0693L18.7014 25.3908C18.909 25.8668 18.8803 26.4105 18.4858 26.804L12.5072 32.7699C12.0323 33.2448 11.2833 33.2253 10.8187 32.763L7.2112 29.1589C6.75811 28.7058 6.77531 27.9579 7.22955 27.5048L13.2081 21.5366C13.6027 21.1432 14.1429 21.1145 14.6282 21.3221L15.9473 19.9972L8.84463 12.8888C7.49797 11.541 7.5645 9.30082 8.87445 7.98054L9.65905 7.19021C10.119 6.79562 10.8279 6.75088 11.289 7.21085L20.0286 15.9286L28.7681 7.20971C29.2567 6.7222 30.0276 6.80594 30.4784 7.2705L31.1815 7.98169C32.488 9.30426 32.5569 11.541 31.2102 12.8888L24.1087 19.9972L25.437 21.3267C25.9256 21.1042 26.4625 21.1523 26.8467 21.5366L32.8241 27.5037C33.299 27.9774 33.2807 28.7253 32.8172 29.1887L29.2648 32.7377C28.8105 33.192 28.0638 33.2792 27.5763 32.7928L21.6115 26.8464L21.6104 26.8475ZM17.154 17.8304L17.8572 17.1342L10.4838 9.77685C10.1466 10.2552 10.1947 10.8838 10.6077 11.2967L17.154 17.8293V17.8304ZM22.902 17.827L29.4437 11.2979C29.8463 10.8712 29.9106 10.2644 29.5664 9.778L22.1954 17.1342L22.902 17.827ZM17.0404 23.677L17.8526 22.8649L17.154 22.1664L16.3407 22.9808L17.0404 23.677ZM23.0201 23.6759L23.7107 22.9842L22.8985 22.1652L22.1965 22.8661L23.0201 23.6759Z" fill="#252323"/>
</g>
<defs>
<filter id="filter0_g_2004_472" x="-0.5" y="-0.5" width="41" height="41" filterUnits="userSpaceOnUse" color-interpolation-filters="sRGB">
<feFlood flood-opacity="0" result="BackgroundImageFix"/>
<feBlend mode="normal" in="SourceGraphic" in2="BackgroundImageFix" result="shape"/>
<feTurbulence type="fractalNoise" baseFrequency="0.99900001287460327 0.99900001287460327" numOctaves="3" seed="3145" />
<feDisplacementMap in="shape" scale="1" xChannelSelector="R" yChannelSelector="G" result="displacedImage" width="100%" height="100%" />
<feMerge result="effect1_texture_2004_472">
<feMergeNode in="displacedImage"/>
</feMerge>
</filter>
</defs>
</svg>
