<svg width="40" height="40" viewBox="0 0 40 40" fill="none" xmlns="http://www.w3.org/2000/svg">
<g filter="url(#filter0_g_2004_484)">
<path d="M22.5829 33.119H21.8157C21.7359 33.119 21.5512 33.079 21.4578 33.0674C20.9424 33.0033 20.4691 32.855 19.9768 32.7078L18.351 32.0674L12.5519 29.4437L13.7611 25.1459C14.055 24.1016 14.2449 23.0984 14.4244 22.0206L16.2801 22.1688C16.8721 22.2162 17.4431 22.3077 18.0088 22.4833L20.1594 23.151C20.4554 23.2425 20.7713 23.2867 21.081 23.3003C22.3142 23.355 23.5192 23.5001 24.6958 23.8756C25.5082 24.1342 26.6816 24.7011 26.4979 25.6822C26.3384 26.5319 25.1125 26.7295 24.3725 26.7779C23.6325 26.8263 22.9828 26.8189 22.2733 26.7643L19.6703 26.5655C19.4898 26.5518 19.3323 26.5718 19.1581 26.6339C19.4803 27.0492 21.5459 27.6024 22.0025 27.6402C23.3271 27.7496 24.6192 27.6823 25.9647 27.6917L29.8745 26.0397C30.5977 25.7348 31.4237 25.8105 32.0912 26.1554C32.7 26.4698 33.1241 27.0923 33.0485 27.7822C32.9729 28.472 31.6987 29.3375 31.1487 29.674C29.4305 30.7266 27.6504 31.6341 25.7653 32.3566C24.8375 32.712 23.9222 32.9507 22.944 33.0685C22.8065 33.0853 22.6743 33.0737 22.5819 33.12L22.5829 33.119Z" fill="#375E3D"/>
<path d="M6.88 30.5562V19.3842C6.99125 19.0466 7.25576 18.9163 7.61787 18.9457C8.4586 19.0151 13.5722 19.36 13.4263 20.6135C13.2762 21.8943 13.0821 23.1089 12.7703 24.3624L11.2306 30.5478C11.1655 30.8107 10.9209 30.9632 10.6659 30.9642L7.54649 30.9695C7.22216 30.9695 7.01749 30.8307 6.88 30.5573V30.5562Z" fill="#375E3D"/>
<path d="M32.888 8.93572C32.0473 9.85901 31.6327 11.2545 31.4186 12.4554L30.8686 15.5428C30.6776 16.6175 30.3071 17.8815 29.5125 18.6345C27.7891 20.2686 25.1808 20.4663 23.2338 19.0782C22.7752 19.9752 22.4078 20.8817 22.1139 21.8355C22.0394 22.0763 21.8032 22.1962 21.5912 22.1888C21.3425 22.1804 21.1504 22.0216 21.0706 21.7566C20.4471 19.6976 19.7838 17.687 18.9567 15.6974C18.5684 14.7625 18.1695 13.8813 17.6048 13.0085C16.4681 13.7099 15.0302 13.5585 14.1128 12.5984C13.8777 12.3523 13.7182 12.0305 13.6216 11.7045C13.2994 10.6235 13.2952 9.77278 12.9698 8.68018C12.7137 7.82209 12.1931 7.76635 12.3715 7.24898C12.55 6.7316 13.1965 6.90616 13.4243 6.91668C15.0344 6.98924 16.5038 7.4288 17.7623 8.4236C18.9504 9.36266 19.2265 10.9874 18.3847 12.2408C18.9084 12.9875 19.2957 13.7478 19.6631 14.5669C20.4335 16.2852 21.0234 18.0151 21.6332 19.869C22.8696 17.0518 24.5458 14.691 26.6765 12.5237C26.8917 12.2776 26.8791 11.938 26.665 11.7403C26.4152 11.51 26.095 11.5615 25.8547 11.8065C24.4818 13.202 23.2821 14.7142 22.2671 16.3883C22.137 16.6038 21.9166 16.6964 21.7004 16.668C21.4663 16.6375 21.3026 16.4671 21.2417 16.22C20.7715 14.3335 21.397 12.4164 22.8518 11.1409C25.4264 8.88103 29.0895 8.00507 32.4514 7.99035C32.7096 7.98929 32.9143 8.09445 33.0098 8.2953C33.1126 8.51088 33.0686 8.73802 32.888 8.93572Z" fill="#427449"/>
</g>
<defs>
<filter id="filter0_g_2004_484" x="-0.5" y="-0.5" width="41" height="41" filterUnits="userSpaceOnUse" color-interpolation-filters="sRGB">
<feFlood flood-opacity="0" result="BackgroundImageFix"/>
<feBlend mode="normal" in="SourceGraphic" in2="BackgroundImageFix" result="shape"/>
<feTurbulence type="fractalNoise" baseFrequency="0.99900001287460327 0.99900001287460327" numOctaves="3" seed="3145" />
<feDisplacementMap in="shape" scale="1" xChannelSelector="R" yChannelSelector="G" result="displacedImage" width="100%" height="100%" />
<feMerge result="effect1_texture_2004_484">
<feMergeNode in="displacedImage"/>
</feMerge>
</filter>
</defs>
</svg>
