<svg width="40" height="40" viewBox="0 0 40 40" fill="none" xmlns="http://www.w3.org/2000/svg">
<g filter="url(#filter0_g_2004_477)">
<path d="M7.2 33.12C7.65709 31.9396 8.63606 31.2693 9.86359 31.2987C10.0379 31.3034 10.2147 31.2186 10.3077 31.0725C10.8355 30.2361 11.7579 29.8803 12.7345 30.0512C12.9454 30.0877 13.1669 30.0017 13.2116 29.7849C13.4343 28.7046 14.1871 27.8317 15.0565 27.4053C16.1733 26.8575 17.3384 26.9458 18.3562 27.5089C18.4787 27.5772 18.6967 27.5136 18.7732 27.417C19.4636 26.55 20.419 25.9822 21.524 25.8149C23.5373 25.5098 25.6931 26.5099 26.3846 28.5056C26.4436 28.6752 26.6108 28.78 26.7923 28.7883C28.1187 28.8519 29.1755 29.6648 29.6007 30.9088C29.8128 31.5296 30.2345 30.9689 31.3937 31.2975C32.2137 31.5308 32.8062 32.2223 32.8463 33.1188H7.20118L7.2 33.12ZM23.006 27.9389C23.2392 27.9389 23.3924 27.7775 23.37 27.5454C23.357 27.4017 23.2004 27.2497 23.0083 27.2497H21.2259C21.0033 27.2521 20.8525 27.4229 20.8607 27.6079C20.869 27.7928 21.0186 27.9401 21.2236 27.9401L23.0072 27.9377L23.006 27.9389ZM16.7187 29.9216C16.9307 29.9216 17.0427 29.6377 17.0109 29.5116C16.9708 29.349 16.8188 29.2383 16.6362 29.2383L14.8444 29.2407C14.6229 29.2407 14.4839 29.4127 14.4981 29.6176C14.5075 29.759 14.6677 29.931 14.8491 29.931L16.7187 29.9228V29.9216ZM20.6534 29.9251C20.8572 29.9251 21.0045 29.7307 20.9939 29.5623C20.9844 29.4032 20.8419 29.2395 20.6605 29.2395H18.8097C18.6024 29.2395 18.4587 29.4244 18.474 29.6106C18.4893 29.7967 18.6601 29.9298 18.8663 29.9298L20.6534 29.9251ZM24.6411 29.9263C24.852 29.9263 24.9804 29.7036 24.9686 29.5564C24.9545 29.3856 24.8119 29.2371 24.6164 29.2371H22.8293C22.6243 29.2371 22.4664 29.3632 22.4499 29.5576C22.4382 29.6989 22.5831 29.9239 22.7704 29.9239H24.6399L24.6411 29.9263ZM14.081 31.995C14.2754 31.995 14.4062 31.7664 14.3932 31.6286C14.3791 31.4672 14.2318 31.307 14.0504 31.307H12.2115C12.0076 31.3093 11.8569 31.4978 11.8722 31.6781C11.884 31.8206 12.0359 31.9973 12.2079 31.9973L14.081 31.995ZM18.6189 31.9938C18.8392 31.9938 18.9676 31.777 18.9535 31.6239C18.937 31.446 18.785 31.3058 18.5871 31.3058H16.8059C16.5809 31.3081 16.4242 31.4672 16.4407 31.6816C16.4525 31.8359 16.6068 31.9973 16.7976 31.9973L18.6189 31.9938ZM23.2086 31.9997C23.4042 31.9549 23.5314 31.7935 23.5196 31.6274C23.509 31.4707 23.3559 31.3082 23.178 31.3082H21.339C21.1341 31.3105 20.9844 31.499 20.9986 31.6792C21.0104 31.8265 21.1612 31.9961 21.3355 31.9961L23.2086 31.9997ZM27.7477 31.9938C27.9668 31.9938 28.0952 31.7758 28.0811 31.625C28.0646 31.4448 27.9126 31.307 27.7135 31.307H25.9346C25.7084 31.307 25.5518 31.4672 25.5671 31.6816C25.5777 31.8371 25.7355 31.9973 25.9264 31.9973L27.7477 31.9938Z" fill="#61422C"/>
<path d="M19.5966 25.7595C19.5224 25.2164 19.6414 24.6887 19.5283 24.1397C19.3634 23.6166 18.3043 22.9192 17.8095 22.6801C16.5502 23.8958 14.6983 23.8369 13.5014 22.5964C12.6932 21.76 12.1278 20.7363 11.8097 19.5947C11.7649 19.4357 11.8768 19.226 12.0264 19.1836C13.3199 18.8113 14.7171 18.5239 16.0413 18.8054C17.5904 19.1341 18.2195 20.5725 18.1476 22.0581C18.6377 22.349 19.0677 22.64 19.5672 23.03L19.5731 19.2531C18.2395 18.6971 17.323 17.5402 17.6281 16.057C17.9002 14.7353 18.7932 13.5926 19.6108 12.5323C19.6673 12.4593 19.8016 12.3733 19.8782 12.365C19.9548 12.3568 20.1232 12.4204 20.1845 12.4864C21.0468 13.4241 21.7348 14.4879 22.1318 15.6918C22.6666 17.307 21.7631 18.6888 20.2599 19.259V23.9147C20.9479 23.2891 21.6924 22.8462 22.5111 22.435C22.5406 21.7635 22.7409 21.1368 23.2486 20.7045C24.1663 19.9458 26.2043 20.2957 27.2693 20.6043C26.943 21.522 26.4977 22.3007 25.8462 22.9487C24.9886 23.8016 23.7057 23.8852 22.7609 23.0865C21.7972 23.6225 20.8465 24.0454 20.2705 25.0244L20.2457 25.4426L19.5943 25.7595H19.5966Z" fill="#427449"/>
<path d="M23.1048 25.1434C22.9717 24.7864 22.8939 24.4554 22.8539 24.0513C24.0791 24.6545 25.4338 24.4012 26.3904 23.4281C27.2056 22.5988 27.7664 21.5668 28.0915 20.4406C28.1492 20.2391 28.0314 20.0388 27.837 19.9847C26.4316 19.5912 24.9025 19.3049 23.4429 19.7255L23.6255 18.6923L32.3867 20.2509L31.6328 24.4295C31.4007 25.7171 30.6161 26.7632 29.5311 27.4476C28.9315 27.7963 28.3295 28.0649 27.6721 28.2452L26.9747 28.0932C26.328 26.4958 24.8483 25.4143 23.1072 25.1434H23.1048Z" fill="#252323"/>
<path d="M29.5406 15.6329L27.7605 15.3254L28.7795 9.59183L30.5572 9.91461L29.5406 15.6329Z" fill="#252323"/>
<path d="M32.2831 9.51414L27.2999 8.63177L27.6074 6.88L32.5929 7.76473L32.2831 9.51414Z" fill="#252323"/>
<path d="M28.9562 18.9268L27.1727 18.6264L27.6404 16.0016L29.4145 16.3115L28.9562 18.9268Z" fill="#252323"/>
</g>
<defs>
<filter id="filter0_g_2004_477" x="-0.5" y="-0.5" width="41" height="41" filterUnits="userSpaceOnUse" color-interpolation-filters="sRGB">
<feFlood flood-opacity="0" result="BackgroundImageFix"/>
<feBlend mode="normal" in="SourceGraphic" in2="BackgroundImageFix" result="shape"/>
<feTurbulence type="fractalNoise" baseFrequency="0.99900001287460327 0.99900001287460327" numOctaves="3" seed="3145" />
<feDisplacementMap in="shape" scale="1" xChannelSelector="R" yChannelSelector="G" result="displacedImage" width="100%" height="100%" />
<feMerge result="effect1_texture_2004_477">
<feMergeNode in="displacedImage"/>
</feMerge>
</filter>
</defs>
</svg>
