<svg width="40" height="40" viewBox="0 0 40 40" fill="none" xmlns="http://www.w3.org/2000/svg">
<g filter="url(#filter0_g_2004_481)">
<path d="M7.52 26.2754V22.2887C7.52 21.8496 7.87498 21.4946 8.31406 21.4936L33.9754 21.4695C34.4144 21.4695 34.7705 21.8256 34.7705 22.2647L34.7683 26.247C34.7683 26.6861 34.4123 27.0422 33.9732 27.0433L8.31625 27.0695C7.87716 27.0695 7.52109 26.7145 7.52109 26.2743L7.52 26.2754ZM12.6066 24.2569C12.6044 23.8189 12.2494 23.4651 11.8114 23.4651H11.8071C11.368 23.4651 11.013 23.8211 11.0119 24.2591V24.2613C11.0119 24.7015 11.3691 25.0576 11.8093 25.0565H11.8125C12.2527 25.0554 12.6077 24.6971 12.6055 24.2569H12.6066ZM31.2775 24.2591C31.2753 23.8189 30.9182 23.464 30.4791 23.4651H30.4769C30.0378 23.4662 29.6817 23.8233 29.6828 24.2635C29.6828 24.7026 30.04 25.0576 30.4791 25.0565H30.4845C30.9236 25.0565 31.2797 24.6982 31.2775 24.2591Z" fill="#3B3025"/>
<path d="M7.52 33.4448V29.4581C7.52 29.019 7.87498 28.6641 8.31406 28.663L33.9732 28.6379C34.4134 28.6379 34.7705 28.9939 34.7705 29.4352L34.7672 33.4154C34.7672 33.8544 34.4112 34.2105 33.9721 34.2116L8.31515 34.24C7.87607 34.24 7.52 33.885 7.52 33.4448ZM12.6066 31.4242C12.6044 30.9873 12.2505 30.6334 11.8136 30.6323H11.8071C11.3691 30.6323 11.013 30.9873 11.013 31.4253C11.013 31.8665 11.3713 32.2237 11.8125 32.2215H11.8147C12.2538 32.2193 12.6077 31.8622 12.6055 31.4242H12.6066ZM31.2775 31.4253C31.2775 30.9862 30.9192 30.6301 30.4791 30.6323H30.4747C30.0367 30.6345 29.6828 30.9906 29.6839 31.4286C29.685 31.8665 30.0411 32.2215 30.4791 32.2215H30.4834C30.9225 32.2215 31.2786 31.8644 31.2775 31.4253Z" fill="#3B3025"/>
<path d="M24.1986 19.8735L18.0886 19.879C18.0165 19.879 17.9619 19.8167 17.9674 19.7457C18.1115 18.0724 17.4737 16.4799 16.2329 15.3516C16.1925 15.3156 16.1804 15.2577 16.2034 15.2085C16.8467 13.8552 17.9433 12.8646 19.3228 12.3621C19.3949 12.3359 19.4266 12.2529 19.3884 12.1863L17.8581 9.52994C17.8243 9.47205 17.8439 9.39777 17.9018 9.36391L19.0673 8.68344C19.1251 8.64958 19.2005 8.66924 19.2344 8.72823L20.9142 11.6303C20.9754 11.7363 21.1392 11.6959 21.1425 11.5724C21.1458 11.4425 21.1447 11.3103 21.1414 11.1628C21.1032 9.55287 22.3298 8.11657 23.9627 8.02045C24.6006 7.98222 25.186 8.00953 25.8283 8.00843C25.896 8.00843 25.9506 8.06195 25.9517 8.12967L25.9561 8.98818C25.9648 10.7128 24.5755 12.0934 22.8497 12.0716H22.8399C22.7012 12.0694 22.6717 12.2638 22.8038 12.3064C24.239 12.7706 25.4449 13.8137 26.086 15.2173C26.1079 15.2653 26.0948 15.3221 26.0555 15.3582C24.8321 16.4734 24.1932 18.0233 24.3199 19.7425C24.3253 19.8135 24.2707 19.8746 24.1986 19.8746V19.8735Z" fill="#257D31"/>
<path fill-rule="evenodd" clip-rule="evenodd" d="M11.5084 12.3883C11.6373 12.2594 11.85 12.2618 11.9723 12.3961C12.7629 13.2578 13.2642 14.314 13.4586 15.4782C13.4794 15.6016 13.5669 15.7052 13.6881 15.7379C15.3919 16.2076 16.5302 17.8344 16.3795 19.5885C16.3653 19.7534 16.2241 19.8775 16.0592 19.8776H9.40686C9.24213 19.8773 9.1028 19.7541 9.08752 19.5905C8.93796 17.9161 9.98627 16.3291 11.5973 15.7907C11.7533 15.7383 11.8498 15.579 11.8151 15.4186C11.6567 14.7076 11.3123 14.0639 10.8219 13.5035C10.7105 13.3758 10.7146 13.1842 10.8336 13.0641L11.5084 12.3883Z" fill="#257D31"/>
<path fill-rule="evenodd" clip-rule="evenodd" d="M31.1154 12.7155C31.4267 13.0266 31.4232 13.526 31.169 13.8853C30.9612 14.179 30.7879 14.4942 30.6563 14.8313C30.4687 15.3118 30.8116 15.7929 31.266 16.037C32.3673 16.6289 33.1165 17.748 33.2103 19.0233C33.2464 19.5148 32.8115 19.877 32.3188 19.877H26.7961C26.3074 19.877 25.8746 19.5206 25.9075 19.033C25.9999 17.6633 26.8662 16.4443 28.1352 15.9008C28.5223 15.735 28.8322 15.4072 28.9329 14.9983C29.1364 14.1716 29.5023 13.4081 30.0244 12.7436C30.2961 12.3979 30.8043 12.4047 31.1154 12.7155Z" fill="#257D31"/>
</g>
<defs>
<filter id="filter0_g_2004_481" x="-0.5" y="-0.5" width="41" height="41" filterUnits="userSpaceOnUse" color-interpolation-filters="sRGB">
<feFlood flood-opacity="0" result="BackgroundImageFix"/>
<feBlend mode="normal" in="SourceGraphic" in2="BackgroundImageFix" result="shape"/>
<feTurbulence type="fractalNoise" baseFrequency="0.99900001287460327 0.99900001287460327" numOctaves="3" seed="3145" />
<feDisplacementMap in="shape" scale="1" xChannelSelector="R" yChannelSelector="G" result="displacedImage" width="100%" height="100%" />
<feMerge result="effect1_texture_2004_481">
<feMergeNode in="displacedImage"/>
</feMerge>
</filter>
</defs>
</svg>
