<svg width="40" height="41" viewBox="0 0 40 41" fill="none" xmlns="http://www.w3.org/2000/svg">
<g filter="url(#filter0_g_2004_494)">
<path d="M32.9424 36.2824H6.90804C6.41205 36.2658 5.97712 35.9161 5.97712 35.4099L5.9733 31.9431H33.8543L33.8568 35.3489C33.8568 35.855 33.4944 36.2378 32.9437 36.2824H32.9424Z" fill="#3B3025"/>
<path d="M33.8534 30.085H5.97117L5.96353 26.7403C5.96226 26.1909 6.3349 25.77 6.90719 25.7471H32.9136C33.4617 25.7687 33.828 26.1528 33.8573 26.6767L33.8522 30.085H33.8534Z" fill="#3B3025"/>
<path d="M30.115 39.9999H25.6829C24.6744 39.8155 24.4747 39.0652 24.5752 38.1406H31.3639C31.3766 38.3937 31.3855 38.6353 31.3639 38.8808C31.3105 39.5154 30.7814 39.9999 30.1137 39.9999H30.115Z" fill="#3B3025"/>
<path d="M14.0585 39.9846L9.56156 39.9948C8.9651 39.9961 8.46276 39.5153 8.389 38.9456C8.35339 38.6734 8.36483 38.4166 8.3839 38.1419H15.1624C15.1866 38.414 15.198 38.6747 15.1548 38.9723C15.0823 39.4619 14.6359 39.9846 14.0585 39.9859V39.9846Z" fill="#3B3025"/>
<path d="M18.8792 21.3643C17.414 21.5176 16.1236 20.5991 15.8683 19.1154C17.6082 19.5452 18.2493 18.5597 19.0665 20.4896C19.1747 20.2775 19.3593 20.0817 19.5466 19.949C19.6312 19.3248 19.6257 18.6445 20.0711 18.1271C20.5817 17.5345 21.3878 17.2169 22.1898 17.1977C22.8211 17.1827 23.3414 17.0622 24.0074 16.7871C24.031 18.8389 22.3285 20.3829 20.2667 20.5102C20.0475 20.9044 19.9434 21.3602 19.9462 21.8406V23.3754C19.9462 23.6701 19.7073 23.9089 19.4127 23.9089C19.118 23.9089 18.8792 23.6701 18.8792 23.3754V21.3643Z" fill="#427449"/>
<path d="M29.1624 21.5171C27.6396 21.6845 26.3599 20.6773 26.1682 19.2289C26.735 19.3548 27.1908 19.4516 27.691 19.37C28.6177 19.2206 29.0595 19.8888 29.361 20.6344C29.4708 20.4145 29.6598 20.2222 29.846 20.0797C29.9099 19.4461 29.9321 18.7544 30.3698 18.2453C30.8866 17.6435 31.6828 17.3363 32.4859 17.3128C33.118 17.2948 33.6502 17.1731 34.3074 16.8909C34.3227 19.0048 32.5817 20.5473 30.5476 20.6524C30.3517 21.0785 30.235 21.5074 30.2392 21.9764L30.2491 23.3436C30.2513 23.6422 30.0098 23.8855 29.7111 23.8855C29.4152 23.8855 29.1748 23.6466 29.1731 23.3507L29.1624 21.5157V21.5171Z" fill="#427449"/>
<path d="M8.69332 22.0965C7.23776 22.2381 5.88144 21.2915 5.69254 19.7552C7.27146 20.3246 7.99698 19.0805 8.88791 21.1845C8.99632 20.9629 9.18673 20.7679 9.37159 20.6248C9.43691 19.9964 9.45358 19.3147 9.86638 18.8028C10.4001 18.1393 11.2368 17.8279 12.0791 17.8153C12.6851 17.8069 13.1966 17.647 13.8318 17.3987C13.847 19.5392 12.118 21.0891 10.0554 21.2139C9.72045 21.9482 9.76692 22.6342 9.76576 23.371C9.76531 23.6596 9.52712 23.8846 9.23852 23.8846C8.93741 23.8846 8.69332 23.6405 8.69332 23.3394V22.0965Z" fill="#427449"/>
<path d="M27.8573 5.29684C29.4754 4.9689 30.9562 6.0188 31.265 7.56696C31.5739 9.11512 30.5532 10.6353 29 10.9531C27.4467 11.2709 25.9609 10.2756 25.6177 8.75415C25.2745 7.23268 26.2265 5.62859 27.856 5.29684H27.8573Z" fill="#D1A82B"/>
<path d="M32.0266 10.9619C32.2465 11.1792 32.2071 11.5059 32.0367 11.6927C31.8664 11.8796 31.5131 11.9342 31.2957 11.7207L30.8356 11.2669C30.6258 11.061 30.6271 10.7242 30.8394 10.5106C30.997 10.353 31.3389 10.2844 31.5525 10.4941L32.0253 10.9606L32.0266 10.9619Z" fill="#D1A82B"/>
<path d="M26.0228 4.95886C26.2656 5.20163 26.2198 5.54102 26.0139 5.73168C25.7978 5.93251 25.4839 5.91852 25.2589 5.69354L24.856 5.28935C24.6437 5.07581 24.6386 4.75549 24.828 4.54703C25.0174 4.33858 25.3758 4.30935 25.6021 4.53687L26.0228 4.95886Z" fill="#D1A82B"/>
<path d="M28.9582 12.7108C28.9353 13.0489 28.6303 13.2141 28.3875 13.1899C28.1015 13.162 27.907 12.9396 27.907 12.6269V12.0676C27.9083 11.7625 28.1066 11.5414 28.39 11.5147C28.6214 11.4931 28.9239 11.6596 28.9531 11.957C28.976 12.1845 28.976 12.4527 28.9582 12.712V12.7108Z" fill="#D1A82B"/>
<path d="M28.9658 4.19728C28.9607 4.51377 28.7052 4.71207 28.4472 4.71843C28.1688 4.72478 27.9146 4.51759 27.9134 4.20236L27.9096 3.57954C27.9083 3.28211 28.1244 3.06476 28.3913 3.04188C28.6582 3.019 28.9493 3.20585 28.9607 3.5198C28.9696 3.74478 28.9696 3.97484 28.9658 4.196V4.19728Z" fill="#D1A82B"/>
<path d="M31.6083 5.69219C31.382 5.92226 31.049 5.93244 30.8355 5.72017C30.6588 5.54476 30.6016 5.20666 30.8177 4.98931L31.2816 4.52409C31.485 4.31945 31.8206 4.33725 32.015 4.52663C32.2095 4.71602 32.2438 5.0465 32.0214 5.27275L31.607 5.69347L31.6083 5.69219Z" fill="#D1A82B"/>
<path d="M33.5097 8.13003C33.4932 8.75539 32.7496 8.66515 32.2806 8.63973C32.0162 8.62574 31.8319 8.34737 31.8268 8.13637C31.8218 7.89995 31.9794 7.63304 32.2603 7.60762C32.5412 7.5822 32.8386 7.58219 33.117 7.61651C33.3712 7.64829 33.5161 7.92157 33.5097 8.1313V8.13003Z" fill="#D1A82B"/>
<path d="M25.6343 11.6675C25.3978 11.9077 25.0852 11.9153 24.8716 11.7298C24.6327 11.5239 24.6288 11.1616 24.8653 10.9328L25.3356 10.479C25.5415 10.2808 25.8821 10.3634 26.0334 10.5197C26.2495 10.7422 26.2304 11.0612 26.0156 11.2786L25.6317 11.6675H25.6343Z" fill="#D1A82B"/>
<path d="M24.5866 8.63325C24.3362 8.65105 24.0781 8.65231 23.8481 8.64469C23.5519 8.63579 23.3651 8.36633 23.36 8.12864C23.3536 7.84774 23.5761 7.58717 23.8926 7.59098L24.5815 7.60115C24.8395 7.60496 25.0175 7.8668 25.034 8.07398C25.0531 8.30913 24.9043 8.61165 24.5853 8.63453L24.5866 8.63325Z" fill="#D1A82B"/>
</g>
<defs>
<filter id="filter0_g_2004_494" x="-0.5" y="-0.5" width="41" height="41" filterUnits="userSpaceOnUse" color-interpolation-filters="sRGB">
<feFlood flood-opacity="0" result="BackgroundImageFix"/>
<feBlend mode="normal" in="SourceGraphic" in2="BackgroundImageFix" result="shape"/>
<feTurbulence type="fractalNoise" baseFrequency="0.99900001287460327 0.99900001287460327" numOctaves="3" seed="3145" />
<feDisplacementMap in="shape" scale="1" xChannelSelector="R" yChannelSelector="G" result="displacedImage" width="100%" height="100%" />
<feMerge result="effect1_texture_2004_494">
<feMergeNode in="displacedImage"/>
</feMerge>
</filter>
</defs>
</svg>
