<svg width="40" height="41" viewBox="0 0 40 41" fill="none" xmlns="http://www.w3.org/2000/svg">
<g filter="url(#filter0_g_2004_478)">
<path d="M14.518 8.28557C15.2844 8.39743 16.0471 8.56394 16.722 8.99864C17.3601 9.41047 17.8342 9.98881 18.1037 10.7057C18.3236 11.2904 18.4736 11.9107 18.4748 12.5614L18.4875 19.3184L19.5184 18.3016C19.8984 17.9266 20.492 17.9482 20.8352 18.3041C21.1784 18.66 21.1936 19.2422 20.825 19.6121L18.4824 21.9597L18.4799 23.8968L16.6241 23.8943V15.1506C14.5104 15.2307 12.4945 14.5697 11.864 12.3594C11.5628 11.3044 11.5513 10.2023 11.7509 9.11686C11.9009 8.29829 12.8224 8.41014 13.2164 8.2843H14.5167L14.518 8.28557Z" fill="#427449"/>
<path d="M30.5751 36.2845H4.55511C4.0594 36.268 3.6247 35.9185 3.6247 35.4126L3.62088 31.9477H31.4865L31.489 35.3516C31.489 35.8575 31.1268 36.2401 30.5764 36.2845H30.5751Z" fill="#3B3025"/>
<path d="M31.4867 30.0907H3.6198L3.61217 26.7478C3.6109 26.1987 3.98333 25.7779 4.55531 25.7551H30.5474C31.0952 25.7767 31.4613 26.1605 31.4905 26.6842L31.4854 30.0907H31.4867Z" fill="#3B3025"/>
<path d="M8.69112 23.898L8.67587 22.1541C7.77341 22.1859 6.92179 22.1071 6.09433 21.7843C3.80895 20.8932 3.44797 18.3664 3.78988 16.2106C3.85852 15.7759 4.17883 15.4696 4.61226 15.4048C6.79977 15.0743 9.36733 15.4467 10.2012 17.8096C10.4121 18.4058 10.5367 19.0299 10.538 19.6819L10.5482 23.893L8.69112 23.898Z" fill="#427449"/>
<path d="M26.4226 22.1579L26.4099 23.8967H24.5554L24.5618 19.809C24.5643 17.8999 25.3321 16.175 27.2577 15.5738C28.2975 15.2497 29.3639 15.2471 30.4405 15.3933C30.9235 15.4581 31.2565 15.7797 31.3264 16.264C31.4789 17.3126 31.4751 18.3511 31.1815 19.3705C30.5561 21.5389 28.6 22.2469 26.4214 22.1592L26.4226 22.1579Z" fill="#427449"/>
<path d="M27.7498 40H23.3201C22.3122 39.8157 22.1126 39.0657 22.213 38.1417H28.998C29.0107 38.3946 29.0196 38.6361 28.998 38.8814C28.9446 39.5157 28.4158 40 27.7485 40H27.7498Z" fill="#3B3025"/>
<path d="M11.7 39.9859L7.20551 39.9961C6.60938 39.9974 6.10731 39.5169 6.03359 38.9475C5.998 38.6755 6.00944 38.4187 6.0285 38.1442H12.8033C12.8274 38.4162 12.8389 38.6767 12.7957 38.9742C12.7232 39.4635 12.2771 39.9859 11.7 39.9872V39.9859Z" fill="#3B3025"/>
<path d="M25.7771 5.29684C27.3952 4.9689 28.876 6.0188 29.1849 7.56696C29.4937 9.11512 28.4731 10.6353 26.9198 10.9531C25.3666 11.2709 23.8807 10.2756 23.5375 8.75415C23.1943 7.23268 24.1464 5.62859 25.7759 5.29684H25.7771Z" fill="#D1A82B"/>
<path d="M29.9464 10.9619C30.1663 11.1792 30.1269 11.5059 29.9566 11.6927C29.7862 11.8796 29.4329 11.9342 29.2155 11.7207L28.7554 11.2669C28.5457 11.061 28.547 10.7242 28.7592 10.5106C28.9168 10.353 29.2587 10.2844 29.4723 10.4941L29.9451 10.9606L29.9464 10.9619Z" fill="#D1A82B"/>
<path d="M23.9426 4.95886C24.1854 5.20163 24.1396 5.54102 23.9337 5.73168C23.7177 5.93251 23.4037 5.91852 23.1787 5.69354L22.7758 5.28935C22.5635 5.07581 22.5584 4.75549 22.7478 4.54703C22.9372 4.33858 23.2957 4.30935 23.5219 4.53687L23.9426 4.95886Z" fill="#D1A82B"/>
<path d="M26.878 12.7108C26.8552 13.0489 26.5501 13.2141 26.3073 13.1899C26.0213 13.162 25.8269 12.9396 25.8269 12.6269V12.0676C25.8281 11.7625 26.0264 11.5414 26.3099 11.5147C26.5412 11.4931 26.8437 11.6596 26.873 11.957C26.8958 12.1845 26.8958 12.4527 26.878 12.712V12.7108Z" fill="#D1A82B"/>
<path d="M26.8856 4.19728C26.8805 4.51377 26.6251 4.71207 26.367 4.71843C26.0887 4.72478 25.8345 4.51759 25.8332 4.20236L25.8294 3.57954C25.8281 3.28211 26.0442 3.06476 26.3111 3.04188C26.578 3.019 26.8691 3.20585 26.8805 3.5198C26.8894 3.74478 26.8894 3.97484 26.8856 4.196V4.19728Z" fill="#D1A82B"/>
<path d="M29.5281 5.69219C29.3019 5.92226 28.9688 5.93244 28.7553 5.72017C28.5786 5.54476 28.5214 5.20666 28.7375 4.98931L29.2015 4.52409C29.4048 4.31945 29.7404 4.33725 29.9349 4.52663C30.1293 4.71602 30.1637 5.0465 29.9412 5.27275L29.5269 5.69347L29.5281 5.69219Z" fill="#D1A82B"/>
<path d="M31.4296 8.13003C31.413 8.75539 30.6695 8.66515 30.2004 8.63973C29.9361 8.62574 29.7518 8.34737 29.7467 8.13637C29.7416 7.89995 29.8992 7.63304 30.1801 7.60762C30.461 7.5822 30.7584 7.58219 31.0368 7.61651C31.291 7.64829 31.4359 7.92157 31.4296 8.1313V8.13003Z" fill="#D1A82B"/>
<path d="M23.5541 11.6675C23.3177 11.9077 23.005 11.9153 22.7915 11.7298C22.5525 11.5239 22.5487 11.1616 22.7851 10.9328L23.2554 10.479C23.4613 10.2808 23.802 10.3634 23.9532 10.5197C24.1693 10.7422 24.1502 11.0612 23.9354 11.2786L23.5516 11.6675H23.5541Z" fill="#D1A82B"/>
<path d="M22.5064 8.63325C22.256 8.65105 21.998 8.65231 21.7679 8.64469C21.4717 8.63579 21.2849 8.36633 21.2798 8.12864C21.2735 7.84774 21.4959 7.58717 21.8124 7.59098L22.5013 7.60115C22.7593 7.60496 22.9373 7.8668 22.9538 8.07398C22.9729 8.30913 22.8242 8.61165 22.5051 8.63453L22.5064 8.63325Z" fill="#D1A82B"/>
</g>
<defs>
<filter id="filter0_g_2004_478" x="-0.5" y="-0.5" width="41" height="41" filterUnits="userSpaceOnUse" color-interpolation-filters="sRGB">
<feFlood flood-opacity="0" result="BackgroundImageFix"/>
<feBlend mode="normal" in="SourceGraphic" in2="BackgroundImageFix" result="shape"/>
<feTurbulence type="fractalNoise" baseFrequency="0.99900001287460327 0.99900001287460327" numOctaves="3" seed="3145" />
<feDisplacementMap in="shape" scale="1" xChannelSelector="R" yChannelSelector="G" result="displacedImage" width="100%" height="100%" />
<feMerge result="effect1_texture_2004_478">
<feMergeNode in="displacedImage"/>
</feMerge>
</filter>
</defs>
</svg>
