<svg width="40" height="41" viewBox="0 0 40 41" fill="none" xmlns="http://www.w3.org/2000/svg">
<g filter="url(#filter0_g_2004_473)">
<path d="M32.8646 36.7379H7.05571C6.56402 36.7216 6.13284 36.3749 6.13284 35.8731L6.12906 32.4362H33.7686L33.7711 35.8125C33.7711 36.3143 33.4118 36.6938 32.8659 36.7379H32.8646Z" fill="#3B3025"/>
<path d="M33.7687 30.5944H6.12789L6.12032 27.2786C6.11906 26.7339 6.48847 26.3166 7.05581 26.2939H32.837C33.3804 26.3153 33.7435 26.6961 33.7725 27.2155L33.7675 30.5944H33.7687Z" fill="#3B3025"/>
<path d="M30.0624 40.4234H25.6687C24.6689 40.2406 24.4709 39.4967 24.5705 38.5802H31.3005C31.3131 38.831 31.3219 39.0706 31.3005 39.3139C31.2475 39.943 30.723 40.4234 30.0611 40.4234H30.0624Z" fill="#3B3025"/>
<path d="M14.1428 40.4094L9.68472 40.4195C9.09343 40.4207 8.59543 39.9441 8.52231 39.3793C8.48701 39.1095 8.49835 38.8549 8.51726 38.5825H15.2371C15.2611 38.8523 15.2724 39.1108 15.2295 39.4058C15.1577 39.8912 14.7151 40.4094 14.1428 40.4106V40.4094Z" fill="#3B3025"/>
<path d="M9.92269 23.4509H11.6376C11.7758 23.4509 11.8878 23.563 11.8876 23.7012L11.887 24.1846C11.8868 24.3226 11.775 24.4343 11.637 24.4343H8.20565C8.06758 24.4343 7.95565 24.3224 7.95565 24.1843V21.7354C7.95565 21.5973 8.06758 21.4854 8.20565 21.4854H9.67117C9.80924 21.4854 9.92117 21.3735 9.92117 21.2354V20.752C9.92117 20.6139 9.80924 20.502 9.67117 20.502H8.20704C8.06745 20.502 7.95331 20.3872 7.97221 20.2489C8.07869 19.4698 8.61764 18.8354 9.41308 18.6109C9.51746 17.3382 9.14423 16.1123 8.27556 15.1381C8.18416 15.0356 8.18388 14.8787 8.28081 14.7814L8.62199 14.439C8.72019 14.3405 8.88042 14.3406 8.97377 14.4438C9.25782 14.7577 9.48317 15.0744 9.68808 15.4265C9.79075 15.6029 10.0527 15.6035 10.1549 15.4268C10.3655 15.0627 10.5958 14.7333 10.8859 14.4318C10.9798 14.3341 11.1351 14.3385 11.2297 14.4355L11.5664 14.7803C11.6616 14.8778 11.6606 15.0332 11.5698 15.1348C10.7089 16.0986 10.3306 17.2985 10.4255 18.6033C11.2752 18.8466 11.8842 19.5867 11.8854 20.497L11.8887 22.2158C11.889 22.354 11.777 22.4663 11.6387 22.4663H10.1724C10.0344 22.4663 9.92243 22.5782 9.92243 22.7163V23.4494L9.92224 23.4498C9.92184 23.4502 9.92213 23.4509 9.92269 23.4509Z" fill="#C9722A"/>
<path d="M20.1509 23.4511H21.8673C22.0055 23.4511 22.1175 23.5632 22.1173 23.7014L22.1167 24.1848C22.1165 24.3227 22.0046 24.4345 21.8667 24.4345H18.4353C18.2973 24.4345 18.1853 24.3225 18.1853 24.1845V21.7355C18.1853 21.5975 18.2973 21.4855 18.4353 21.4855H19.9009C20.0389 21.4855 20.1509 21.3736 20.1509 21.2355V20.7522C20.1509 20.6141 20.0389 20.5022 19.9009 20.5022H18.4367C18.2971 20.5022 18.183 20.3874 18.2019 20.2491C18.3008 19.5253 18.773 18.9264 19.4774 18.6659C19.5754 18.6297 19.649 18.5431 19.6541 18.4388C19.7121 17.2285 19.3344 16.0694 18.5053 15.1395C18.4139 15.037 18.4136 14.8801 18.5105 14.7828L18.8517 14.4404C18.9499 14.3419 19.1101 14.3421 19.2035 14.4452C19.4875 14.7591 19.7129 15.0758 19.9178 15.4279C20.0204 15.6043 20.2824 15.6049 20.3846 15.4282C20.5952 15.0642 20.8255 14.7348 21.1156 14.4332C21.2095 14.3355 21.3648 14.3399 21.4594 14.4369L21.7961 14.7817C21.8913 14.8792 21.8903 15.0346 21.7995 15.1363C20.977 16.057 20.595 17.1932 20.6453 18.4306C20.6495 18.5352 20.7226 18.6226 20.8206 18.6597C21.5828 18.9478 22.1139 19.6484 22.1151 20.4984L22.1184 22.2172C22.1187 22.3555 22.0067 22.4677 21.8684 22.4677H20.4021C20.264 22.4677 20.1521 22.5796 20.1521 22.7177V23.4498C20.1521 23.4505 20.1516 23.4511 20.1509 23.4511Z" fill="#C9722A"/>
<path d="M30.3463 23.4498C30.3459 23.4502 30.3462 23.4509 30.3468 23.4509H32.0617C32.1999 23.4509 32.3119 23.563 32.3117 23.7012L32.3111 24.1846C32.3109 24.3226 32.199 24.4343 32.0611 24.4343H28.6297C28.4917 24.4343 28.3797 24.3224 28.3797 24.1843V21.7354C28.3797 21.5973 28.4917 21.4854 28.6297 21.4854H30.0953C30.2333 21.4854 30.3453 21.3735 30.3453 21.2354V20.752C30.3453 20.6139 30.2333 20.502 30.0953 20.502H28.6311C28.4915 20.502 28.3774 20.3872 28.3963 20.2489C28.4952 19.525 28.9676 18.9259 29.6721 18.6646C29.77 18.6283 29.8434 18.5418 29.8484 18.4376C29.9066 17.2272 29.5288 16.068 28.6996 15.1381C28.6082 15.0356 28.608 14.8787 28.7049 14.7814L29.0461 14.439C29.1443 14.3405 29.3045 14.3406 29.3979 14.4438C29.6819 14.7577 29.9073 15.0744 30.1122 15.4265C30.2148 15.6029 30.4768 15.6035 30.5789 15.4268C30.7895 15.0624 31.0199 14.7325 31.31 14.4313C31.4039 14.3339 31.559 14.3384 31.6536 14.4352L31.9905 14.7803C32.0857 14.8778 32.0847 15.0332 31.9939 15.1348C31.1714 16.0556 30.7894 17.1918 30.8397 18.4291C30.8439 18.5338 30.917 18.6212 31.015 18.6583C31.7772 18.9464 32.3083 19.6469 32.3095 20.497L32.3128 22.2158C32.3131 22.354 32.2011 22.4663 32.0628 22.4663H30.5965C30.4584 22.4663 30.3465 22.5782 30.3465 22.7163V23.4494C30.3465 23.4496 30.3464 23.4497 30.3463 23.4498Z" fill="#C9722A"/>
<path d="M28.6996 15.1381C29.506 16.0425 29.8854 17.1637 29.8522 18.3379C29.848 18.4847 29.9636 18.6099 30.1105 18.6088L30.5827 18.6053C30.7271 18.6042 30.84 18.4812 30.8367 18.3368C30.8087 17.1353 31.1919 16.0326 31.9938 15.1348C32.0846 15.0332 32.0857 14.8778 31.9905 14.7803L31.6535 14.4352C31.5589 14.3384 31.4038 14.3339 31.3099 14.4313C31.0198 14.7325 30.7895 15.0624 30.5789 15.4268C30.4767 15.6035 30.2148 15.6029 30.1121 15.4265C29.9072 15.0744 29.6818 14.7577 29.3978 14.4438C29.3044 14.3406 29.1442 14.3405 29.046 14.439L28.7048 14.7814C28.6079 14.8787 28.6082 15.0356 28.6996 15.1381Z" fill="#427449"/>
<path d="M18.8516 14.4404L18.5104 14.7828C18.4135 14.8801 18.4138 15.037 18.5052 15.1395C19.3721 16.1118 19.7456 17.3347 19.6433 18.6047H20.3863C20.5315 18.6047 20.6455 18.4814 20.6422 18.3362C20.6147 17.1355 20.9979 16.0335 21.7995 15.1363C21.8903 15.0346 21.8913 14.8792 21.7961 14.7817L21.4594 14.4369C21.3647 14.3399 21.2094 14.3355 21.1155 14.4332C20.8255 14.7348 20.5951 15.0642 20.3846 15.4282C20.2823 15.6049 20.0204 15.6043 19.9177 15.4279C19.7128 15.0758 19.4875 14.7591 19.2034 14.4452C19.1101 14.3421 18.9498 14.3419 18.8516 14.4404Z" fill="#427449"/>
<path d="M8.62193 14.439L8.28076 14.7814C8.18382 14.8787 8.18411 15.0356 8.27551 15.1381C9.08189 16.0425 9.46133 17.1637 9.42811 18.3379C9.42395 18.4847 9.53953 18.6099 9.6864 18.6088L10.1586 18.6053C10.3031 18.6042 10.4159 18.4812 10.4126 18.3368C10.3846 17.1353 10.7678 16.0326 11.5698 15.1348C11.6606 15.0332 11.6616 14.8778 11.5664 14.7803L11.2297 14.4355C11.135 14.3385 10.9797 14.3341 10.8858 14.4318C10.5958 14.7333 10.3654 15.0627 10.1549 15.4268C10.0527 15.6035 9.79069 15.6029 9.68802 15.4265C9.48312 15.0744 9.25776 14.7577 8.97372 14.4438C8.88036 14.3406 8.72013 14.3405 8.62193 14.439Z" fill="#427449"/>
<path d="M12.8 11.4961C12.4261 12.0518 11.7254 12.0595 11.265 11.6754L7.07961 8.18188C6.55309 7.74313 6.58107 7.05002 7.05798 6.58837L12.6182 1.20377C12.7555 1.07151 13.001 1.07532 13.137 1.18978L17.049 4.45819C17.2003 4.58409 17.2817 4.82318 17.1609 5.00377L12.8 11.4986V11.4961Z" fill="#427449"/>
<path d="M18.1252 9.11457C18.0056 9.00393 17.8403 8.95179 17.7055 8.98485L15.3031 9.56858L16.6626 7.5147L17.4562 7.54014C17.6483 7.57066 17.8467 7.47909 17.9459 7.31122C18.4507 6.46424 18.2727 6.40955 19.2507 6.40828C19.3766 6.40828 19.5457 6.59395 19.5572 6.71477L19.8065 9.37655C19.8319 9.64743 19.6628 9.84074 19.3728 9.85982C19.2316 9.86999 18.9302 9.87889 18.7865 9.83947L18.1239 9.11203L18.1252 9.11457Z" fill="#427449"/>
<path d="M9.40128 1.61159C7.99852 2.06687 7.00145 3.52812 7.24944 5.03133L6.46985 5.77531C5.95097 4.46286 6.25747 3.01052 7.19349 1.95496C8.26178 0.75061 10.0181 -0.00481081 11.5099 0.896862L10.7672 1.60904C10.3055 1.46279 9.85403 1.46534 9.40256 1.61159H9.40128Z" fill="#427449"/>
<path d="M31.4037 9.22018C31.6225 9.41476 31.6097 9.7098 31.4648 9.90311C31.3198 10.0964 31.0107 10.1664 30.7882 9.98832L29.6563 9.08283C29.4516 8.91877 29.374 8.67841 29.4833 8.45585C29.5825 8.25237 29.903 8.07942 30.1472 8.23711C30.586 8.52071 30.9929 8.85646 31.4037 9.22145V9.22018Z" fill="#2C5E91"/>
<path d="M25.8011 7.4606L24.289 7.31053C24.0219 7.28383 23.8515 7.03329 23.8655 6.80692C23.882 6.53731 24.1033 6.31221 24.4073 6.33128C24.9249 6.36308 25.4158 6.41395 25.927 6.49407C26.1699 6.53222 26.3302 6.7942 26.3238 6.99005C26.3162 7.2444 26.1203 7.49239 25.8024 7.4606H25.8011Z" fill="#2C5E91"/>
<path d="M22.9272 7.36606L21.4838 7.62422C21.1989 7.67891 20.9636 7.47034 20.9229 7.22871C20.8797 6.97436 21.031 6.71238 21.3146 6.65133C21.8042 6.54578 22.2863 6.46057 22.7886 6.39317C23.076 6.35501 23.3113 6.56994 23.3456 6.80522C23.3838 7.06593 23.2388 7.30883 22.926 7.36479L22.9272 7.36606Z" fill="#2C5E91"/>
<path d="M28.8077 7.42795C29.0964 7.55767 29.1905 7.84763 29.0952 8.09308C28.9998 8.33853 28.72 8.47333 28.4555 8.35506C28.0167 8.16175 27.5868 7.98116 27.1341 7.81456C26.8657 7.71537 26.7309 7.46992 26.8047 7.21048C26.8696 6.98284 27.1315 6.773 27.4062 6.86711C27.8768 7.02862 28.3334 7.2143 28.8077 7.42795Z" fill="#2C5E91"/>
<path d="M33.3991 11.5704C33.5797 11.8324 33.4602 12.1376 33.2732 12.2674C33.0214 12.4429 32.7454 12.3449 32.5725 12.1122L31.7319 10.9804C31.5551 10.7425 31.6047 10.4538 31.8069 10.2923C32.0205 10.1206 32.3296 10.1474 32.5153 10.3788C32.8218 10.7603 33.1092 11.147 33.3991 11.5704Z" fill="#2C5E91"/>
<path d="M26.0878 11.905C26.3778 12.3539 27.1841 13.59 26.5114 13.8685C26.2252 13.9868 25.953 13.8622 25.8411 13.5888C25.6758 13.1869 25.4825 12.8104 25.2612 12.4366C25.1162 12.1924 25.1823 11.8973 25.438 11.7511C25.6173 11.6493 25.9365 11.6684 26.0891 11.905H26.0878Z" fill="#2C5E91"/>
<path d="M25.065 10.7254C25.313 10.934 25.2964 11.257 25.14 11.4414C24.9454 11.6729 24.6389 11.6614 24.4164 11.4732C24.0946 11.2023 23.7576 10.9671 23.3989 10.7483C23.1573 10.6008 23.0759 10.3261 23.2069 10.0781C23.3099 9.88352 23.6088 9.73727 23.8555 9.87589C24.2803 10.1137 24.6745 10.396 25.065 10.7242V10.7254Z" fill="#2C5E91"/>
<path d="M22.2662 10.2565L21.4777 10.067C21.2093 10.0022 21.1025 9.69821 21.1521 9.49091C21.2958 8.8881 22.0652 9.17297 22.5434 9.32431C22.7838 9.40062 22.8741 9.69185 22.8257 9.88897C22.7774 10.0861 22.5574 10.3252 22.2662 10.2552V10.2565Z" fill="#2C5E91"/>
<path d="M27.1535 15.4858C27.1725 15.8101 26.9195 16.0149 26.6727 16.0187C26.3917 16.0238 26.1755 15.8216 26.1615 15.51L26.131 14.8309C26.1182 14.5447 26.295 14.3413 26.5583 14.3031C26.7885 14.27 27.0911 14.4341 27.109 14.7291L27.1535 15.4858Z" fill="#2C5E91"/>
</g>
<defs>
<filter id="filter0_g_2004_473" x="-0.5" y="0" width="41" height="41" filterUnits="userSpaceOnUse" color-interpolation-filters="sRGB">
<feFlood flood-opacity="0" result="BackgroundImageFix"/>
<feBlend mode="normal" in="SourceGraphic" in2="BackgroundImageFix" result="shape"/>
<feTurbulence type="fractalNoise" baseFrequency="0.99900001287460327 0.99900001287460327" numOctaves="3" seed="3145" />
<feDisplacementMap in="shape" scale="1" xChannelSelector="R" yChannelSelector="G" result="displacedImage" width="100%" height="100%" />
<feMerge result="effect1_texture_2004_473">
<feMergeNode in="displacedImage"/>
</feMerge>
</filter>
</defs>
</svg>
