<svg width="40" height="41" viewBox="0 0 40 41" fill="none" xmlns="http://www.w3.org/2000/svg">
<g filter="url(#filter0_g_2004_487)">
<path d="M32.9424 36.7823H6.90804C6.41205 36.7658 5.97712 36.4161 5.97712 35.9099L5.9733 32.4431H33.8543L33.8568 35.8489C33.8568 36.355 33.4944 36.7378 32.9437 36.7823H32.9424Z" fill="#3B3025"/>
<path d="M33.8534 30.585H5.97117L5.96353 27.2403C5.96226 26.6909 6.3349 26.27 6.90719 26.2471H32.9136C33.4617 26.2687 33.828 26.6528 33.8573 27.1767L33.8522 30.585H33.8534Z" fill="#3B3025"/>
<path d="M30.115 40.4999H25.6829C24.6744 40.3155 24.4747 39.5652 24.5752 38.6406H31.3639C31.3766 38.8937 31.3855 39.1353 31.3639 39.3808C31.3105 40.0154 30.7814 40.4999 30.1137 40.4999H30.115Z" fill="#3B3025"/>
<path d="M14.0585 40.4846L9.56156 40.4948C8.9651 40.4961 8.46276 40.0153 8.389 39.4456C8.35339 39.1734 8.36483 38.9166 8.3839 38.6419H15.1624C15.1866 38.914 15.198 39.1747 15.1548 39.4723C15.0823 39.9619 14.6359 40.4846 14.0585 40.4859V40.4846Z" fill="#3B3025"/>
<path d="M18.8792 21.8643C17.414 22.0176 16.1236 21.0991 15.8683 19.6154C17.6082 20.0452 18.2493 19.0597 19.0665 20.9896C19.1747 20.7775 19.3593 20.5817 19.5466 20.449C19.6312 19.8248 19.6257 19.1445 20.0711 18.6271C20.5817 18.0345 21.3878 17.7169 22.1898 17.6977C22.8211 17.6827 23.3414 17.5622 24.0074 17.2871C24.031 19.3389 22.3285 20.8829 20.2667 21.0102C20.0475 21.4044 19.9434 21.8602 19.9462 22.3406V23.8754C19.9462 24.1701 19.7073 24.4089 19.4127 24.4089C19.118 24.4089 18.8792 24.1701 18.8792 23.8754V21.8643Z" fill="#427449"/>
<path d="M29.1624 22.0171C27.6396 22.1845 26.3599 21.1773 26.1682 19.7289C26.735 19.8548 27.1908 19.9516 27.691 19.87C28.6177 19.7206 29.0595 20.3888 29.361 21.1344C29.4708 20.9145 29.6598 20.7222 29.846 20.5797C29.9099 19.9461 29.9321 19.2544 30.3698 18.7453C30.8866 18.1435 31.6828 17.8363 32.4859 17.8128C33.118 17.7948 33.6502 17.6731 34.3074 17.3909C34.3227 19.5048 32.5817 21.0473 30.5476 21.1524C30.3517 21.5785 30.235 22.0074 30.2392 22.4764L30.2491 23.8436C30.2513 24.1422 30.0098 24.3855 29.7111 24.3855C29.4152 24.3855 29.1748 24.1466 29.1731 23.8507L29.1624 22.0157V22.0171Z" fill="#427449"/>
<path d="M8.69332 22.5965C7.23776 22.7381 5.88144 21.7915 5.69254 20.2552C7.27146 20.8246 7.99698 19.5805 8.88791 21.6845C8.99632 21.4629 9.18673 21.2679 9.37159 21.1248C9.43691 20.4964 9.45358 19.8147 9.86638 19.3028C10.4001 18.6393 11.2368 18.3279 12.0791 18.3153C12.6851 18.3069 13.1966 18.147 13.8318 17.8987C13.847 20.0392 12.118 21.5891 10.0554 21.7139C9.72045 22.4482 9.76692 23.1342 9.76576 23.871C9.76531 24.1596 9.52712 24.3846 9.23852 24.3846C8.93741 24.3846 8.69332 24.1405 8.69332 23.8394V22.5965Z" fill="#427449"/>
<path d="M12.3201 11.4961C11.9462 12.0519 11.2454 12.0595 10.7851 11.6754L6.59966 8.18191C6.07314 7.74316 6.10112 7.05005 6.57803 6.5884L12.1382 1.2038C12.2756 1.07154 12.521 1.07535 12.6571 1.18981L16.5691 4.45822C16.7204 4.58412 16.8018 4.82321 16.681 5.0038L12.3201 11.4986V11.4961Z" fill="#427449"/>
<path d="M17.6454 9.11449C17.5259 9.00385 17.3606 8.95171 17.2258 8.98477L14.8234 9.56851L16.1829 7.51463L16.9765 7.54006C17.1685 7.57059 17.3669 7.47902 17.4661 7.31115C17.971 6.46416 17.793 6.40947 18.771 6.4082C18.8969 6.4082 19.066 6.59388 19.0775 6.7147L19.3267 9.37647C19.3522 9.64736 19.183 9.84066 18.8931 9.85974C18.7519 9.86991 18.4505 9.87882 18.3068 9.83939L17.6442 9.11195L17.6454 9.11449Z" fill="#427449"/>
<path d="M8.92145 1.61159C7.51869 2.06687 6.52162 3.52812 6.76962 5.03133L5.99002 5.77531C5.47114 4.46286 5.77764 3.01052 6.71367 1.95496C7.78195 0.75061 9.53826 -0.00481081 11.03 0.896862L10.2873 1.60904C9.82568 1.46279 9.37421 1.46534 8.92273 1.61159H8.92145Z" fill="#427449"/>
<path d="M30.9238 9.22018C31.1425 9.41476 31.1298 9.7098 30.9848 9.90311C30.8398 10.0964 30.5308 10.1664 30.3082 9.98832L29.1764 9.08283C28.9716 8.91877 28.894 8.67841 29.0034 8.45585C29.1026 8.25237 29.4231 8.07942 29.6673 8.23711C30.106 8.52071 30.513 8.85646 30.9238 9.22145V9.22018Z" fill="#2C5E91"/>
<path d="M25.3214 7.46052L23.8092 7.31046C23.5422 7.28375 23.3718 7.03322 23.3857 6.80684C23.4023 6.53723 23.6236 6.31213 23.9275 6.33121C24.4451 6.363 24.936 6.41387 25.4473 6.49399C25.6902 6.53214 25.8504 6.79413 25.8441 6.98998C25.8364 7.24433 25.6406 7.49232 25.3227 7.46052H25.3214Z" fill="#2C5E91"/>
<path d="M22.4473 7.36598L21.0039 7.62415C20.719 7.67883 20.4837 7.47027 20.443 7.22863C20.3998 6.97428 20.5511 6.7123 20.8347 6.65126C21.3244 6.5457 21.8064 6.46049 22.3087 6.39309C22.5961 6.35494 22.8314 6.56987 22.8658 6.80514C22.9039 7.06585 22.7589 7.30875 22.4461 7.36471L22.4473 7.36598Z" fill="#2C5E91"/>
<path d="M28.3279 7.42789C28.6166 7.55761 28.7107 7.84757 28.6153 8.09302C28.5199 8.33846 28.2402 8.47327 27.9756 8.355C27.5369 8.16169 27.107 7.9811 26.6543 7.8145C26.3859 7.71531 26.2511 7.46986 26.3249 7.21042C26.3897 6.98278 26.6517 6.77294 26.9264 6.86705C27.397 7.02856 27.8535 7.21423 28.3279 7.42789Z" fill="#2C5E91"/>
<path d="M32.9194 11.5704C33.1 11.8324 32.9805 12.1376 32.7935 12.2673C32.5417 12.4429 32.2657 12.3449 32.0928 12.1122L31.2521 10.9803C31.0754 10.7425 31.125 10.4538 31.3272 10.2923C31.5408 10.1206 31.8499 10.1473 32.0356 10.3788C32.3421 10.7603 32.6295 11.1469 32.9194 11.5704Z" fill="#2C5E91"/>
<path d="M25.608 11.9049C25.8979 12.3539 26.7042 13.59 26.0315 13.8685C25.7453 13.9868 25.4732 13.8622 25.3613 13.5887C25.1959 13.1869 25.0026 12.8104 24.7813 12.4365C24.6363 12.1923 24.7025 11.8973 24.9581 11.751C25.1374 11.6493 25.4566 11.6684 25.6092 11.9049H25.608Z" fill="#2C5E91"/>
<path d="M24.585 10.7255C24.833 10.934 24.8165 11.2571 24.66 11.4415C24.4655 11.6729 24.159 11.6615 23.9364 11.4733C23.6146 11.2024 23.2776 10.9671 22.919 10.7484C22.6774 10.6008 22.596 10.3261 22.727 10.0781C22.83 9.88357 23.1288 9.73732 23.3756 9.87594C23.8003 10.1138 24.1946 10.3961 24.585 10.7242V10.7255Z" fill="#2C5E91"/>
<path d="M21.7862 10.2564L20.9977 10.0669C20.7293 10.0021 20.6225 9.69813 20.6721 9.49083C20.8158 8.88802 21.5852 9.1729 22.0634 9.32424C22.3038 9.40054 22.3941 9.69177 22.3458 9.88889C22.2974 10.086 22.0774 10.3251 21.7862 10.2552V10.2564Z" fill="#2C5E91"/>
<path d="M26.6737 15.4858C26.6928 15.8101 26.4397 16.0148 26.193 16.0186C25.9119 16.0237 25.6957 15.8215 25.6818 15.5099L25.6512 14.8308C25.6385 14.5447 25.8153 14.3412 26.0785 14.303C26.3087 14.27 26.6114 14.434 26.6292 14.7291L26.6737 15.4858Z" fill="#2C5E91"/>
</g>
<defs>
<filter id="filter0_g_2004_487" x="-0.5" y="0" width="41" height="41" filterUnits="userSpaceOnUse" color-interpolation-filters="sRGB">
<feFlood flood-opacity="0" result="BackgroundImageFix"/>
<feBlend mode="normal" in="SourceGraphic" in2="BackgroundImageFix" result="shape"/>
<feTurbulence type="fractalNoise" baseFrequency="0.99900001287460327 0.99900001287460327" numOctaves="3" seed="3145" />
<feDisplacementMap in="shape" scale="1" xChannelSelector="R" yChannelSelector="G" result="displacedImage" width="100%" height="100%" />
<feMerge result="effect1_texture_2004_487">
<feMergeNode in="displacedImage"/>
</feMerge>
</filter>
</defs>
</svg>
